{"glyphs":{"0":{"ha":960,"x_min":111,"x_max":849,"o":"m 849 754 l 849 110 q 739 0 849 0 l 221 0 q 111 110 111 0 l 111 754 q 221 864 111 864 l 739 864 q 849 754 849 864 m 663 125 l 663 739 q 655 774 663 767 q 619 782 647 782 l 342 782 q 306 774 314 782 q 299 739 299 767 l 299 125 q 306 90 299 97 q 342 82 314 82 l 619 82 q 655 90 647 82 q 663 125 663 97 z "},"1":{"ha":511,"x_min":33,"x_max":400,"o":"m 400 864 l 400 0 l 210 0 l 210 782 l 33 782 l 33 864 l 400 864 z "},"2":{"ha":885,"x_min":76,"x_max":813,"o":"m 264 739 l 264 569 l 76 569 l 76 754 q 186 864 76 864 l 699 864 q 808 754 808 864 l 808 665 q 791 538 808 582 q 721 444 774 493 l 324 82 l 813 82 l 813 0 l 76 0 l 76 82 l 540 504 q 603 581 585 546 q 622 669 622 615 l 622 739 q 614 774 622 767 q 579 782 606 782 l 307 782 q 272 774 281 782 q 264 739 264 767 z "},"3":{"ha":931,"x_min":96,"x_max":832,"o":"m 282 739 l 282 592 l 96 592 l 96 754 q 206 864 96 864 l 722 864 q 832 754 832 864 l 832 522 q 763 440 832 444 q 832 360 832 432 l 832 110 q 722 0 832 0 l 206 0 q 96 110 96 0 l 96 271 l 282 271 l 282 125 q 290 90 282 97 q 325 82 297 82 l 603 82 q 638 90 631 82 q 646 125 646 97 l 646 353 q 638 388 646 381 q 603 396 631 396 l 382 396 l 382 479 l 603 479 q 638 487 631 479 q 646 522 646 494 l 646 739 q 638 774 646 767 q 603 782 631 782 l 325 782 q 290 774 297 782 q 282 739 282 767 z "},"4":{"ha":935,"x_min":47,"x_max":911,"o":"m 911 222 l 911 140 l 761 140 l 761 0 l 585 0 l 585 140 l 47 140 l 47 238 l 444 864 l 638 864 l 240 222 l 585 222 l 585 456 l 761 456 l 761 222 l 911 222 z "},"5":{"ha":904,"x_min":110,"x_max":828,"o":"m 307 526 l 718 526 q 828 417 828 526 l 828 110 q 718 0 828 0 l 219 0 q 110 110 110 0 l 110 279 l 296 279 l 296 125 q 303 90 296 97 q 339 82 311 82 l 600 82 q 635 90 628 82 q 643 125 643 97 l 643 401 q 635 436 643 428 q 600 444 628 444 l 115 444 l 115 864 l 814 864 l 814 782 l 307 782 l 307 526 z "},"6":{"ha":926,"x_min":111,"x_max":828,"o":"m 642 125 l 642 371 q 633 406 642 397 q 599 414 625 414 l 299 414 l 299 125 q 306 90 299 97 q 342 82 314 82 l 599 82 q 633 90 625 82 q 642 125 642 97 m 299 496 l 718 496 q 828 386 828 496 l 828 110 q 718 0 828 0 l 221 0 q 111 110 111 0 l 111 754 q 221 864 111 864 l 710 864 q 819 754 819 864 l 819 594 l 635 594 l 635 739 q 627 774 635 767 q 592 782 619 782 l 342 782 q 306 774 314 782 q 299 739 299 767 l 299 496 z "},"7":{"ha":747,"x_min":46,"x_max":724,"o":"m 724 864 l 724 778 l 349 0 l 151 0 l 531 782 l 46 782 l 46 864 l 724 864 z "},"8":{"ha":936,"x_min":110,"x_max":826,"o":"m 219 864 l 717 864 q 826 754 826 864 l 826 517 q 758 435 826 439 q 826 354 826 426 l 826 110 q 717 0 826 0 l 219 0 q 110 110 110 0 l 110 354 q 178 435 110 426 q 110 517 110 439 l 110 754 q 219 864 110 864 m 296 350 l 296 125 q 303 90 296 97 q 339 82 311 82 l 599 82 q 633 90 625 82 q 642 125 642 97 l 642 350 q 633 385 642 378 q 599 393 625 393 l 339 393 q 303 385 311 393 q 296 350 296 378 m 642 519 l 642 739 q 633 774 642 767 q 599 782 625 782 l 339 782 q 303 774 311 782 q 296 739 296 767 l 296 519 q 303 484 296 492 q 339 476 311 476 l 599 476 q 633 484 625 476 q 642 519 642 492 z "},"9":{"ha":932,"x_min":104,"x_max":821,"o":"m 335 442 l 633 442 l 633 739 q 625 774 633 767 q 590 782 617 782 l 335 782 q 300 774 308 782 q 292 739 292 767 l 292 485 q 300 450 292 458 q 335 442 308 442 m 214 864 l 711 864 q 821 754 821 864 l 821 110 q 711 0 821 0 l 224 0 q 114 110 114 0 l 114 258 l 300 258 l 300 125 q 308 90 300 97 q 343 82 317 82 l 590 82 q 625 90 617 82 q 633 125 633 97 l 633 360 l 214 360 q 104 469 104 360 l 104 754 q 214 864 104 864 z "},"\u0000":{"ha":0,"x_min":0,"x_max":0,"o":""},"\r":{"ha":0,"x_min":0,"x_max":0,"o":""}," ":{"ha":381,"x_min":0,"x_max":0,"o":""},"!":{"ha":432,"x_min":111,"x_max":322,"o":"m 111 864 l 322 864 l 290 282 l 143 282 l 111 864 m 117 0 l 117 174 l 315 174 l 315 0 l 117 0 z "},"\"":{"ha":569,"x_min":79,"x_max":490,"o":"m 79 864 l 242 864 l 242 542 l 79 542 l 79 864 m 328 864 l 490 864 l 490 542 l 328 542 l 328 864 z "},"#":{"ha":1318,"x_min":75,"x_max":1243,"o":"m 794 321 l 868 543 l 542 543 l 469 321 l 794 321 m 1243 543 l 1025 543 l 951 321 l 1172 321 l 1172 217 l 917 217 l 846 0 l 689 0 l 760 217 l 435 217 l 364 0 l 206 0 l 276 217 l 75 217 l 75 321 l 311 321 l 385 543 l 146 543 l 146 647 l 419 647 l 490 864 l 647 864 l 576 647 l 903 647 l 974 864 l 1131 864 l 1060 647 l 1243 647 l 1243 543 z "},"$":{"ha":917,"x_min":94,"x_max":819,"o":"m 321 476 l 710 476 q 819 367 819 476 l 819 110 q 710 0 819 0 l 543 0 l 543 -126 l 364 -126 l 364 0 l 207 0 q 97 110 97 0 l 97 254 l 282 254 l 282 125 q 290 90 282 97 q 325 82 297 82 l 593 82 q 628 90 619 82 q 636 125 636 97 l 636 351 q 628 386 636 378 q 593 394 619 394 l 204 394 q 94 504 94 394 l 94 754 q 204 864 94 864 l 364 864 l 364 992 l 543 992 l 543 864 l 706 864 q 815 754 815 864 l 815 610 l 631 610 l 631 739 q 622 774 631 767 q 588 782 614 782 l 321 782 q 286 774 294 782 q 278 739 278 767 l 278 519 q 286 484 278 492 q 321 476 294 476 z "},"%":{"ha":1567,"x_min":72,"x_max":1494,"o":"m 1494 389 l 1494 89 q 1411 1 1494 1 l 1051 1 q 967 89 967 1 l 967 389 q 1051 476 967 476 l 1411 476 q 1494 389 1494 476 m 1354 107 l 1354 371 q 1348 399 1354 393 q 1319 406 1342 406 l 1143 406 q 1115 399 1121 406 q 1110 371 1110 393 l 1110 107 q 1115 77 1110 83 q 1143 71 1121 71 l 1319 71 q 1348 77 1342 71 q 1354 107 1354 83 m 1031 864 l 1182 864 l 531 0 l 382 0 l 1031 864 m 600 775 l 600 475 q 515 388 600 388 l 156 388 q 72 475 72 388 l 72 775 q 156 863 72 863 l 515 863 q 600 775 600 863 m 458 493 l 458 757 q 452 787 458 781 q 424 793 446 793 l 249 793 q 220 787 226 793 q 214 757 214 781 l 214 493 q 220 464 214 471 q 249 457 226 457 l 424 457 q 452 464 446 457 q 458 493 458 471 z "},"&":{"ha":1183,"x_min":97,"x_max":1140,"o":"m 319 82 l 756 82 l 449 338 l 332 294 q 288 265 300 282 q 276 217 276 249 l 276 125 q 284 90 276 97 q 319 82 292 82 m 382 739 l 382 629 q 398 572 382 599 q 429 532 414 546 q 501 471 444 518 l 618 514 q 686 552 667 531 q 706 611 706 574 l 706 739 q 697 774 706 767 q 663 782 689 782 l 425 782 q 390 774 397 782 q 382 739 382 767 m 207 0 q 97 110 97 0 l 97 226 q 123 313 97 283 q 217 367 149 343 l 353 417 q 233 526 261 490 q 204 615 204 563 l 204 754 q 314 864 204 864 l 774 864 q 883 754 883 864 l 883 625 q 851 513 883 553 q 744 446 818 474 l 597 392 l 956 92 q 961 125 961 101 l 961 321 l 1107 321 l 1107 119 q 1051 13 1107 40 l 1140 -62 l 929 -62 l 854 0 l 207 0 z "},"'":{"ha":326,"x_min":79,"x_max":247,"o":"m 79 864 l 247 864 l 247 542 l 79 542 l 79 864 z "},"(":{"ha":489,"x_min":119,"x_max":563,"o":"m 119 190 l 119 501 q 222 876 119 756 q 513 997 325 997 l 563 997 l 563 915 l 528 915 q 304 526 304 906 l 304 165 q 528 -222 304 -212 l 563 -222 l 563 -304 l 513 -304 q 119 190 119 -304 z "},")":{"ha":489,"x_min":-74,"x_max":369,"o":"m 369 501 l 369 190 q -22 -304 369 -304 l -74 -304 l -74 -222 l -39 -222 q 185 165 185 -212 l 185 526 q -39 915 185 906 l -74 915 l -74 997 l -22 997 q 267 876 164 997 q 369 501 369 756 z "},"*":{"ha":696,"x_min":75,"x_max":622,"o":"m 281 910 l 421 910 l 421 821 q 404 718 421 768 q 494 764 447 747 l 578 792 l 622 657 l 538 629 q 438 614 488 614 q 507 542 479 581 l 558 471 l 444 388 l 392 460 q 346 551 364 501 q 299 463 328 503 l 247 392 l 133 475 l 185 544 q 258 618 211 582 q 160 635 208 618 l 75 661 l 119 796 l 203 769 q 294 722 253 751 q 281 821 281 768 l 281 910 z "},"+":{"ha":936,"x_min":79,"x_max":857,"o":"m 857 493 l 857 369 l 556 369 l 556 157 l 381 157 l 381 369 l 79 369 l 79 493 l 381 493 l 381 706 l 556 706 l 556 493 l 857 493 z "},",":{"ha":349,"x_min":82,"x_max":279,"o":"m 82 -192 l 82 183 l 279 183 l 279 83 l 147 -192 l 82 -192 z "},"-":{"ha":575,"x_min":82,"x_max":493,"o":"m 82 336 l 82 418 l 493 418 l 493 336 l 82 336 z "},".":{"ha":361,"x_min":82,"x_max":279,"o":"m 82 0 l 82 174 l 279 174 l 279 0 l 82 0 z "},"/":{"ha":597,"x_min":-33,"x_max":713,"o":"m 546 971 l 713 971 l 133 -189 l -33 -189 l 546 971 z "},":":{"ha":361,"x_min":82,"x_max":279,"o":"m 82 508 l 279 508 l 279 165 l 82 165 l 82 508 z "},";":{"ha":349,"x_min":82,"x_max":279,"o":"m 82 500 l 82 674 l 279 674 l 279 500 l 82 500 m 82 -192 l 82 183 l 279 183 l 279 83 l 147 -192 l 82 -192 z "},"<":{"ha":949,"x_min":51,"x_max":878,"o":"m 878 556 l 204 433 l 878 308 l 878 175 l 51 364 l 51 504 l 878 688 l 878 556 z "},"=":{"ha":976,"x_min":100,"x_max":876,"o":"m 100 500 l 100 625 l 876 625 l 876 500 l 100 500 m 100 236 l 100 361 l 876 361 l 876 236 l 100 236 z "},">":{"ha":949,"x_min":72,"x_max":897,"o":"m 744 433 l 72 556 l 72 688 l 897 504 l 897 364 l 72 175 l 72 308 l 744 433 z "},"?":{"ha":826,"x_min":38,"x_max":758,"o":"m 288 0 l 288 174 l 486 174 l 486 0 l 288 0 m 147 864 l 649 864 q 758 756 758 864 l 758 485 q 649 376 758 376 l 472 376 l 464 282 l 313 282 l 299 463 l 536 463 q 569 472 561 463 q 576 507 576 481 l 576 738 q 569 774 576 765 q 536 783 561 783 l 261 783 q 227 774 235 783 q 219 738 219 765 l 219 600 l 38 600 l 38 756 q 147 864 38 864 z "},"@":{"ha":1564,"x_min":114,"x_max":1463,"o":"m 568 592 l 829 592 q 901 551 885 592 l 901 592 l 1057 592 l 1057 164 l 1268 164 q 1300 171 1293 164 q 1307 203 1307 178 l 1307 658 q 1300 691 1307 683 q 1268 699 1293 699 l 308 699 q 276 691 283 699 q 269 658 269 683 l 269 24 q 276 -8 269 -1 q 308 -15 283 -15 l 1210 -15 l 1210 -99 l 214 -99 q 114 1 114 -99 l 114 682 q 214 782 114 782 l 1363 782 q 1463 682 1463 782 l 1463 182 q 1363 82 1463 82 l 908 82 l 908 164 q 829 108 900 108 l 568 108 q 468 208 468 108 l 468 492 q 568 592 468 592 m 624 471 l 624 229 q 631 197 624 204 q 663 190 638 190 l 857 190 q 901 232 900 190 l 901 468 q 857 510 900 510 l 663 510 q 631 502 638 510 q 624 471 624 494 z "},"A":{"ha":982,"x_min":36,"x_max":946,"o":"m 310 253 l 669 253 l 489 747 l 310 253 m 763 0 l 700 171 l 281 171 l 218 0 l 36 0 l 368 864 l 613 864 l 946 0 l 763 0 z "},"B":{"ha":979,"x_min":124,"x_max":868,"o":"m 124 864 l 758 864 q 868 754 868 864 l 868 514 q 799 432 868 436 q 868 351 868 424 l 868 110 q 758 0 868 0 l 124 0 l 124 864 m 688 121 l 688 349 q 680 383 688 375 q 644 392 672 392 l 310 392 l 310 82 l 642 82 q 678 90 668 82 q 688 121 688 97 m 688 517 l 688 739 q 680 774 688 767 q 644 782 672 782 l 310 782 l 310 474 l 644 474 q 680 481 672 474 q 688 517 688 489 z "},"C":{"ha":922,"x_min":111,"x_max":844,"o":"m 844 565 l 657 565 l 657 739 q 649 774 657 767 q 614 782 642 782 l 342 782 q 306 774 314 782 q 299 739 299 767 l 299 125 q 306 90 299 97 q 342 82 314 82 l 614 82 q 649 90 642 82 q 657 125 657 97 l 657 299 l 844 299 l 844 110 q 735 0 844 0 l 221 0 q 111 110 111 0 l 111 754 q 221 864 111 864 l 735 864 q 844 754 844 864 l 844 565 z "},"D":{"ha":982,"x_min":124,"x_max":871,"o":"m 685 125 l 685 739 q 677 774 685 767 q 642 782 669 782 l 310 782 l 310 82 l 642 82 q 677 90 669 82 q 685 125 685 97 m 124 864 l 761 864 q 871 754 871 864 l 871 110 q 761 0 871 0 l 124 0 l 124 864 z "},"E":{"ha":836,"x_min":124,"x_max":776,"o":"m 315 82 l 776 82 l 776 0 l 124 0 l 124 864 l 757 864 l 757 782 l 315 782 l 315 483 l 700 483 l 700 401 l 315 401 l 315 82 z "},"F":{"ha":799,"x_min":124,"x_max":758,"o":"m 758 782 l 315 782 l 315 450 l 704 450 l 704 368 l 315 368 l 315 0 l 124 0 l 124 864 l 758 864 l 758 782 z "},"G":{"ha":944,"x_min":111,"x_max":846,"o":"m 846 593 l 658 593 l 658 739 q 650 774 658 767 q 615 782 642 782 l 342 782 q 306 774 314 782 q 299 739 299 767 l 299 125 q 306 90 299 97 q 342 82 314 82 l 617 82 q 652 90 644 82 q 660 125 660 97 l 660 363 l 467 363 l 467 444 l 846 444 l 846 110 q 736 0 846 0 l 221 0 q 111 110 111 0 l 111 754 q 221 864 111 864 l 736 864 q 846 754 846 864 l 846 593 z "},"H":{"ha":1049,"x_min":124,"x_max":925,"o":"m 739 864 l 925 864 l 925 0 l 739 0 l 739 392 l 310 392 l 310 0 l 124 0 l 124 864 l 310 864 l 310 474 l 739 474 l 739 864 z "},"I":{"ha":461,"x_min":135,"x_max":326,"o":"m 135 864 l 326 864 l 326 0 l 135 0 l 135 864 z "},"J":{"ha":846,"x_min":47,"x_max":735,"o":"m 47 315 l 235 315 l 235 125 q 242 90 235 97 q 278 82 250 82 l 506 82 q 541 90 533 82 q 549 125 549 97 l 549 864 l 735 864 l 735 110 q 625 0 735 0 l 157 0 q 47 110 47 0 l 47 315 z "},"K":{"ha":963,"x_min":124,"x_max":933,"o":"m 708 864 l 919 864 l 540 442 l 933 0 l 719 0 l 333 442 l 708 864 m 124 864 l 306 864 l 306 0 l 124 0 l 124 864 z "},"L":{"ha":772,"x_min":124,"x_max":738,"o":"m 310 82 l 738 82 l 738 0 l 124 0 l 124 864 l 310 864 l 310 82 z "},"M":{"ha":1232,"x_min":124,"x_max":1108,"o":"m 289 0 l 124 0 l 124 864 l 324 864 l 611 313 l 910 864 l 1108 864 l 1108 0 l 943 0 l 943 671 l 682 188 l 543 188 l 289 671 l 289 0 z "},"N":{"ha":1014,"x_min":124,"x_max":890,"o":"m 719 864 l 890 864 l 890 0 l 721 0 l 294 674 l 294 0 l 124 0 l 124 864 l 299 864 l 719 193 l 719 864 z "},"O":{"ha":950,"x_min":111,"x_max":839,"o":"m 839 754 l 839 110 q 729 0 839 0 l 221 0 q 111 110 111 0 l 111 754 q 221 864 111 864 l 729 864 q 839 754 839 864 m 654 125 l 654 739 q 647 774 654 767 q 611 782 639 782 l 340 782 q 306 774 314 782 q 297 739 297 767 l 297 125 q 306 90 297 97 q 340 82 314 82 l 611 82 q 647 90 639 82 q 654 125 654 97 z "},"P":{"ha":944,"x_min":124,"x_max":872,"o":"m 688 407 l 688 739 q 680 774 688 767 q 644 782 672 782 l 310 782 l 310 364 l 644 364 q 680 372 672 364 q 688 407 688 381 m 124 864 l 763 864 q 872 754 872 864 l 872 392 q 763 282 872 282 l 310 282 l 310 0 l 124 0 l 124 864 z "},"Q":{"ha":911,"x_min":92,"x_max":825,"o":"m 275 739 l 275 125 q 283 90 275 97 q 318 82 292 82 l 593 82 q 628 90 619 82 q 636 125 636 97 l 636 739 q 628 774 636 767 q 593 782 619 782 l 318 782 q 283 774 292 782 q 275 739 275 767 m 201 0 q 92 110 92 0 l 92 754 q 201 864 92 864 l 708 864 q 818 754 818 864 l 818 110 q 708 0 818 0 l 660 0 l 825 -135 l 607 -135 l 450 0 l 201 0 z "},"R":{"ha":972,"x_min":124,"x_max":886,"o":"m 310 782 l 310 392 l 646 392 q 681 400 672 392 q 689 435 689 408 l 689 739 q 681 774 689 767 q 646 782 672 782 l 310 782 m 310 310 l 310 0 l 124 0 l 124 864 l 764 864 q 874 754 874 864 l 874 419 q 764 310 874 310 l 690 310 l 886 0 l 693 0 l 504 310 l 310 310 z "},"S":{"ha":918,"x_min":96,"x_max":821,"o":"m 635 125 l 635 351 q 627 386 635 378 q 592 394 619 394 l 206 394 q 96 504 96 394 l 96 754 q 206 864 96 864 l 707 864 q 817 754 817 864 l 817 606 l 629 606 l 629 739 q 622 774 629 767 q 586 782 614 782 l 326 782 q 292 774 300 782 q 283 739 283 767 l 283 519 q 292 484 283 492 q 326 476 300 476 l 711 476 q 821 367 821 476 l 821 110 q 711 0 821 0 l 210 0 q 100 110 100 0 l 100 258 l 286 258 l 286 125 q 294 90 286 97 q 329 82 303 82 l 592 82 q 627 90 619 82 q 635 125 635 97 z "},"T":{"ha":800,"x_min":13,"x_max":789,"o":"m 789 864 l 789 782 l 493 782 l 493 0 l 307 0 l 307 782 l 13 782 l 13 864 l 789 864 z "},"U":{"ha":968,"x_min":111,"x_max":857,"o":"m 297 864 l 297 125 q 306 90 297 97 q 340 82 314 82 l 629 82 q 664 90 656 82 q 672 125 672 97 l 672 864 l 857 864 l 857 110 q 747 0 857 0 l 221 0 q 111 110 111 0 l 111 864 l 297 864 z "},"V":{"ha":976,"x_min":39,"x_max":936,"o":"m 749 864 l 936 864 l 607 0 l 368 0 l 39 864 l 228 864 l 486 125 l 749 864 z "},"W":{"ha":1500,"x_min":40,"x_max":1460,"o":"m 1278 864 l 1460 864 l 1172 0 l 940 0 l 749 665 l 558 0 l 326 0 l 40 864 l 229 864 l 443 131 l 653 864 l 844 864 l 1054 131 l 1278 864 z "},"X":{"ha":954,"x_min":35,"x_max":918,"o":"m 579 446 l 918 0 l 717 0 l 475 329 l 231 0 l 35 0 l 371 436 l 47 864 l 250 864 l 475 554 l 697 864 l 893 864 l 579 446 z "},"Y":{"ha":917,"x_min":10,"x_max":907,"o":"m 560 0 l 374 0 l 374 281 l 10 864 l 196 864 l 465 401 l 722 864 l 907 864 l 560 282 l 560 0 z "},"Z":{"ha":883,"x_min":72,"x_max":813,"o":"m 813 864 l 813 782 l 283 82 l 799 82 l 799 0 l 72 0 l 72 82 l 600 782 l 89 782 l 89 864 l 813 864 z "},"[":{"ha":472,"x_min":121,"x_max":525,"o":"m 525 918 l 308 918 l 308 -224 l 525 -224 l 525 -306 l 121 -306 l 121 1000 l 525 1000 l 525 918 z "},"\\":{"ha":588,"x_min":-114,"x_max":631,"o":"m -114 971 l 51 971 l 631 -189 l 464 -189 l -114 971 z "},"]":{"ha":472,"x_min":-53,"x_max":351,"o":"m 351 1000 l 351 -306 l -53 -306 l -53 -224 l 164 -224 l 164 918 l -53 918 l -53 1000 l 351 1000 z "},"^":{"ha":903,"x_min":60,"x_max":843,"o":"m 344 928 l 558 928 l 843 456 l 668 456 l 451 822 l 235 456 l 60 456 l 344 928 z "},"_":{"ha":840,"x_min":4,"x_max":836,"o":"m 4 -82 l 4 0 l 836 0 l 836 -82 l 4 -82 z "},"`":{"ha":706,"x_min":231,"x_max":622,"o":"m 429 906 l 622 703 l 463 703 l 231 906 l 429 906 z "},"a":{"ha":892,"x_min":100,"x_max":781,"o":"m 322 82 l 553 82 q 590 92 579 82 q 601 128 601 103 l 601 546 q 590 581 601 571 q 553 592 579 592 l 322 592 q 287 583 294 592 q 279 549 279 575 l 279 125 q 287 90 279 97 q 322 82 294 82 m 601 674 l 781 674 l 781 0 l 601 0 l 601 43 q 524 0 585 0 l 210 0 q 100 110 100 0 l 100 564 q 210 674 100 674 l 524 674 q 601 631 585 674 l 601 674 z "},"b":{"ha":892,"x_min":111,"x_max":793,"o":"m 614 125 l 614 549 q 606 583 614 575 q 571 592 597 592 l 340 592 q 292 546 292 592 l 292 501 l 290 501 l 290 163 l 292 163 l 292 128 q 340 82 292 82 l 571 82 q 606 90 597 82 q 614 125 614 97 m 369 674 l 683 674 q 793 564 793 674 l 793 110 q 683 0 793 0 l 369 0 q 290 47 307 0 l 290 0 l 111 0 l 111 929 l 290 929 l 290 626 q 369 674 307 674 z "},"c":{"ha":839,"x_min":100,"x_max":765,"o":"m 765 444 l 589 444 l 589 549 q 581 583 589 575 q 546 592 572 592 l 322 592 q 287 583 294 592 q 279 549 279 575 l 279 125 q 287 90 279 97 q 322 82 294 82 l 546 82 q 581 90 572 82 q 589 125 589 97 l 589 228 l 765 228 l 765 110 q 656 0 765 0 l 210 0 q 100 110 100 0 l 100 564 q 210 674 100 674 l 656 674 q 765 564 765 674 l 765 444 z "},"d":{"ha":892,"x_min":100,"x_max":781,"o":"m 322 82 l 553 82 q 590 92 579 82 q 601 128 601 103 l 601 546 q 590 581 601 571 q 553 592 579 592 l 322 592 q 287 583 294 592 q 279 549 279 575 l 279 125 q 287 90 279 97 q 322 82 294 82 m 601 929 l 781 929 l 781 0 l 601 0 l 601 43 q 524 0 585 0 l 210 0 q 100 110 100 0 l 100 564 q 210 674 100 674 l 524 674 q 601 631 585 674 l 601 929 z "},"e":{"ha":882,"x_min":100,"x_max":794,"o":"m 279 386 l 619 386 l 619 549 q 611 583 619 575 q 576 592 603 592 l 322 592 q 287 583 294 592 q 279 549 279 575 l 279 386 m 210 674 l 685 674 q 794 564 794 674 l 794 304 l 279 304 l 279 125 q 287 90 279 97 q 322 82 294 82 l 574 82 q 608 90 600 82 q 617 125 617 97 l 617 201 l 792 201 l 792 110 q 682 0 792 0 l 210 0 q 100 110 100 0 l 100 564 q 210 674 100 674 z "},"f":{"ha":542,"x_min":64,"x_max":531,"o":"m 531 843 l 386 843 q 351 835 358 843 q 343 800 343 828 l 343 674 l 531 674 l 531 592 l 343 592 l 343 0 l 164 0 l 164 592 l 64 592 l 64 674 l 164 674 l 164 819 q 274 929 164 929 l 531 929 l 531 843 z "},"g":{"ha":882,"x_min":100,"x_max":782,"o":"m 322 82 l 553 82 q 590 92 579 82 q 601 128 601 103 l 601 546 q 590 581 601 571 q 553 592 579 592 l 322 592 q 287 583 294 592 q 279 549 279 575 l 279 125 q 287 90 279 97 q 322 82 294 82 m 781 29 l 782 29 l 782 -86 q 672 -196 782 -196 l 129 -196 l 129 -114 l 560 -114 q 594 -106 586 -114 q 603 -71 603 -97 l 603 15 l 601 15 l 601 43 q 524 0 585 0 l 210 0 q 100 110 100 0 l 100 564 q 210 674 100 674 l 524 674 q 601 631 585 674 l 601 674 l 781 674 l 781 29 z "},"h":{"ha":893,"x_min":111,"x_max":794,"o":"m 369 674 l 685 674 q 794 564 794 674 l 794 0 l 614 0 l 614 549 q 606 583 614 575 q 571 592 597 592 l 340 592 q 292 546 292 592 l 292 504 l 290 504 l 290 0 l 111 0 l 111 929 l 290 929 l 290 626 q 369 674 307 674 z "},"i":{"ha":422,"x_min":118,"x_max":306,"o":"m 301 0 l 121 0 l 121 674 l 301 674 l 301 0 m 118 796 l 118 931 l 306 931 l 306 796 l 118 796 z "},"j":{"ha":413,"x_min":-50,"x_max":306,"o":"m 121 -71 l 121 674 l 301 674 l 301 -86 q 192 -196 301 -196 l -50 -196 l -50 -114 l 78 -114 q 113 -106 106 -114 q 121 -71 121 -97 m 118 796 l 118 931 l 306 931 l 306 796 l 118 796 z "},"k":{"ha":868,"x_min":111,"x_max":842,"o":"m 111 0 l 111 929 l 290 929 l 290 0 l 111 0 m 842 674 l 521 340 l 842 0 l 635 0 l 321 340 l 635 674 l 842 674 z "},"l":{"ha":426,"x_min":124,"x_max":303,"o":"m 303 0 l 124 0 l 124 929 l 303 929 l 303 0 z "},"m":{"ha":1360,"x_min":111,"x_max":1261,"o":"m 864 674 l 1151 674 q 1261 564 1261 674 l 1261 0 l 1082 0 l 1082 549 q 1074 583 1082 575 q 1039 592 1067 592 l 833 592 q 783 540 783 592 l 783 0 l 603 0 l 603 549 q 594 583 603 575 q 560 592 586 592 l 339 592 q 290 546 290 592 l 290 0 l 111 0 l 111 674 l 290 674 l 290 631 q 368 674 307 674 l 674 674 q 775 615 754 674 q 864 674 792 674 z "},"n":{"ha":892,"x_min":111,"x_max":793,"o":"m 369 674 l 683 674 q 793 564 793 674 l 793 0 l 614 0 l 614 549 q 606 583 614 575 q 571 592 597 592 l 340 592 q 292 546 292 592 l 292 503 l 290 503 l 290 0 l 111 0 l 111 674 l 290 674 l 290 626 q 369 674 307 674 z "},"o":{"ha":885,"x_min":100,"x_max":785,"o":"m 607 125 l 607 549 q 599 583 607 575 q 564 592 592 592 l 321 592 q 286 583 294 592 q 278 549 278 575 l 278 125 q 286 90 278 97 q 321 82 294 82 l 564 82 q 599 90 592 82 q 607 125 607 97 m 210 674 l 675 674 q 785 564 785 674 l 785 110 q 675 0 785 0 l 210 0 q 100 110 100 0 l 100 564 q 210 674 100 674 z "},"p":{"ha":903,"x_min":111,"x_max":803,"o":"m 624 125 l 624 549 q 616 583 624 575 q 581 592 608 592 l 339 592 q 290 544 290 592 l 290 128 q 339 82 290 82 l 581 82 q 616 90 608 82 q 624 125 624 97 m 368 674 l 693 674 q 803 564 803 674 l 803 110 q 693 0 803 0 l 368 0 q 290 43 307 0 l 290 -196 l 111 -196 l 111 674 l 289 674 l 289 625 q 368 674 306 674 z "},"q":{"ha":896,"x_min":135,"x_max":826,"o":"m 357 82 l 597 82 q 635 92 624 82 q 646 128 646 103 l 646 544 q 635 581 646 571 q 597 592 624 592 l 357 592 q 322 583 331 592 q 314 549 314 575 l 314 125 q 322 90 314 97 q 357 82 331 82 m 649 674 l 826 674 l 826 -196 l 646 -196 l 646 40 q 569 0 626 0 l 244 0 q 135 110 135 0 l 135 564 q 244 674 135 674 l 569 674 q 649 625 632 674 l 649 674 z "},"r":{"ha":550,"x_min":111,"x_max":539,"o":"m 418 675 l 539 675 l 539 585 l 386 585 q 290 481 290 585 l 290 0 l 111 0 l 111 674 l 290 674 l 290 590 q 418 675 317 675 z "},"s":{"ha":822,"x_min":93,"x_max":736,"o":"m 558 124 l 558 251 q 550 286 558 278 q 515 294 542 294 l 203 294 q 93 404 93 294 l 93 564 q 203 674 93 674 l 621 674 q 731 564 731 674 l 731 479 l 556 479 l 556 550 q 547 585 556 578 q 513 593 539 593 l 315 593 q 281 585 289 593 q 272 550 272 578 l 272 419 q 281 384 272 392 q 315 376 289 376 l 626 376 q 736 267 736 376 l 736 110 q 626 0 736 0 l 207 0 q 97 110 97 0 l 97 194 l 272 194 l 272 124 q 281 89 272 97 q 315 81 289 81 l 515 81 q 550 89 542 81 q 558 124 558 97 z "},"t":{"ha":533,"x_min":42,"x_max":486,"o":"m 486 592 l 329 592 l 329 131 q 337 95 329 103 q 372 88 344 88 l 485 88 l 485 0 l 260 0 q 150 110 150 0 l 150 592 l 42 592 l 42 674 l 150 674 l 150 807 l 329 807 l 329 674 l 486 674 l 486 592 z "},"u":{"ha":892,"x_min":100,"x_max":781,"o":"m 601 674 l 781 674 l 781 0 l 601 0 l 601 43 q 524 0 585 0 l 210 0 q 100 110 100 0 l 100 674 l 279 674 l 279 125 q 287 90 279 97 q 322 82 294 82 l 553 82 q 590 92 579 82 q 601 128 601 103 l 601 674 z "},"v":{"ha":847,"x_min":31,"x_max":817,"o":"m 31 674 l 208 674 l 422 115 l 639 674 l 817 674 l 542 0 l 304 0 l 31 674 z "},"w":{"ha":1253,"x_min":31,"x_max":1222,"o":"m 1053 674 l 1222 674 l 996 0 l 775 0 l 626 540 l 481 0 l 260 0 l 31 674 l 201 674 l 376 115 l 536 674 l 719 674 l 876 115 l 1053 674 z "},"x":{"ha":850,"x_min":36,"x_max":822,"o":"m 524 354 l 822 0 l 613 0 l 407 243 l 189 0 l 36 0 l 332 326 l 42 674 l 251 674 l 447 435 l 653 674 l 810 674 l 524 354 z "},"y":{"ha":833,"x_min":36,"x_max":825,"o":"m 311 -196 l 160 -196 l 160 -114 l 251 -114 q 360 -56 332 -114 l 386 0 l 319 0 l 36 674 l 221 674 l 433 119 l 644 674 l 825 674 l 517 -53 q 444 -162 486 -128 q 311 -196 403 -196 z "},"z":{"ha":728,"x_min":68,"x_max":660,"o":"m 660 82 l 660 0 l 68 0 l 68 82 l 463 592 l 88 592 l 88 674 l 654 674 l 654 592 l 258 82 l 660 82 z "},"{":{"ha":576,"x_min":88,"x_max":621,"o":"m 419 829 l 419 515 q 390 395 419 440 q 303 344 361 350 q 390 294 361 339 q 419 174 419 249 l 419 -136 q 433 -203 419 -182 q 485 -225 446 -225 l 621 -225 l 621 -307 l 439 -307 q 283 -265 331 -307 q 235 -121 235 -222 l 235 163 q 206 271 235 238 q 110 304 176 304 l 88 304 l 88 386 l 110 386 q 206 421 176 386 q 235 531 235 456 l 235 813 q 283 957 235 914 q 439 1000 331 1000 l 621 1000 l 621 918 l 485 918 q 433 897 446 918 q 419 829 419 875 z "},"|":{"ha":419,"x_min":125,"x_max":294,"o":"m 125 1042 l 294 1042 l 294 -179 l 125 -179 l 125 1042 z "},"}":{"ha":583,"x_min":-37,"x_max":496,"o":"m 164 515 l 164 829 q 151 897 164 875 q 100 918 138 918 l -37 918 l -37 1000 l 144 1000 q 301 957 253 1000 q 349 813 349 914 l 349 531 q 378 421 349 456 q 475 386 408 386 l 496 386 l 496 304 l 475 304 q 378 271 408 304 q 349 163 349 238 l 349 -121 q 301 -265 349 -222 q 144 -307 253 -307 l -37 -307 l -37 -225 l 100 -225 q 151 -203 138 -225 q 164 -136 164 -182 l 164 174 q 193 294 164 249 q 281 344 222 339 q 193 395 222 350 q 164 515 164 440 z "},"~":{"ha":1094,"x_min":96,"x_max":1000,"o":"m 602 267 q 570 284 602 267 q 471 336 538 301 q 352 371 404 371 q 285 359 300 371 q 271 315 271 347 l 271 232 l 96 232 l 96 356 q 203 463 96 463 l 372 463 q 480 440 428 463 q 567 392 532 418 q 756 322 661 322 q 809 335 794 322 q 824 379 824 347 l 824 463 l 1000 463 l 1000 339 q 890 232 1000 232 l 726 232 q 602 267 667 232 z "},"¡":{"ha":422,"x_min":106,"x_max":317,"o":"m 138 392 l 285 392 l 317 -190 l 106 -190 l 138 392 m 113 674 l 310 674 l 310 499 l 113 499 l 113 674 z "},"¢":{"ha":833,"x_min":96,"x_max":763,"o":"m 763 444 l 586 444 l 586 549 q 578 583 586 575 q 543 592 569 592 l 318 592 q 283 583 292 592 q 275 549 275 575 l 275 125 q 283 90 275 97 q 318 82 292 82 l 543 82 q 578 90 569 82 q 586 125 586 97 l 586 228 l 763 228 l 763 110 q 653 0 763 0 l 517 0 l 517 -107 l 338 -107 l 338 0 l 206 0 q 96 110 96 0 l 96 564 q 206 674 96 674 l 338 674 l 338 781 l 517 781 l 517 674 l 653 674 q 763 564 763 674 l 763 444 z "},"£":{"ha":971,"x_min":81,"x_max":903,"o":"m 903 113 l 903 0 l 90 0 l 90 97 q 194 256 194 104 l 194 378 l 81 378 l 81 460 l 194 460 l 194 754 q 304 864 194 864 l 776 864 q 886 754 886 864 l 886 599 l 700 599 l 700 739 q 692 774 700 767 q 657 782 683 782 l 425 782 q 390 774 397 782 q 382 739 382 767 l 382 460 l 756 460 l 756 378 l 382 378 l 382 265 q 373 162 382 197 q 335 113 364 126 l 903 113 z "},"¤":{"ha":1036,"x_min":88,"x_max":949,"o":"m 390 235 l 653 235 q 726 249 707 235 q 744 314 744 263 l 744 504 q 724 576 744 557 q 653 594 704 594 l 390 594 q 318 576 338 594 q 299 504 299 557 l 299 314 q 317 249 299 263 q 390 235 335 235 m 890 519 l 890 308 q 879 236 890 269 l 949 168 l 847 67 l 757 156 q 708 153 726 153 l 333 153 q 281 156 311 153 l 189 67 l 88 168 l 161 240 q 151 308 151 268 l 151 519 q 161 588 151 560 l 88 660 l 189 763 l 281 674 q 333 676 311 676 l 708 676 q 757 674 726 676 l 847 763 l 949 660 l 879 592 q 890 519 890 558 z "},"¥":{"ha":1000,"x_min":51,"x_max":949,"o":"m 601 278 l 882 278 l 882 196 l 601 196 l 601 0 l 415 0 l 415 196 l 132 196 l 132 278 l 415 278 l 415 281 l 357 374 l 132 374 l 132 456 l 306 456 l 51 864 l 238 864 l 507 401 l 764 864 l 949 864 l 706 456 l 881 456 l 881 374 l 657 374 l 601 282 l 601 278 z "},"¦":{"ha":400,"x_min":115,"x_max":285,"o":"m 115 347 l 285 347 l 285 -179 l 115 -179 l 115 347 m 285 515 l 115 515 l 115 1042 l 285 1042 l 285 515 z "},"§":{"ha":1006,"x_min":181,"x_max":861,"o":"m 818 197 l 818 46 q 708 -64 818 -64 l 290 -64 q 181 46 181 -64 l 181 125 l 364 125 l 364 61 q 372 26 364 33 q 407 18 381 18 l 593 18 q 628 26 619 18 q 636 61 636 33 l 636 188 q 628 222 636 214 q 593 231 619 231 l 294 231 q 185 340 185 231 l 185 463 q 258 579 185 563 q 221 651 221 607 l 221 808 q 331 918 221 918 l 751 918 q 861 808 861 918 l 861 729 l 678 729 l 678 793 q 669 828 678 819 q 635 836 661 836 l 447 836 q 412 828 419 836 q 404 793 404 819 l 404 667 q 412 631 404 639 q 447 624 419 624 l 747 624 q 857 514 857 624 l 857 386 q 782 274 857 288 q 818 197 818 247 m 631 542 l 411 542 q 376 533 383 542 q 368 499 368 525 l 368 356 q 376 320 368 328 q 411 313 383 313 l 631 313 q 666 320 658 313 q 674 356 674 328 l 674 499 q 666 533 674 525 q 631 542 658 542 z "},"¨":{"ha":874,"x_min":136,"x_max":736,"o":"m 521 881 l 736 881 l 736 743 l 521 743 l 521 881 m 136 881 l 353 881 l 353 743 l 136 743 l 136 881 z "},"©":{"ha":1468,"x_min":107,"x_max":1361,"o":"m 1361 474 l 1361 383 q 1278 94 1361 188 q 997 0 1194 0 l 469 0 q 190 94 274 0 q 107 383 107 188 l 107 474 q 190 767 107 669 q 469 864 274 864 l 997 864 q 1277 767 1193 864 q 1361 474 1361 669 m 494 83 l 974 83 q 1152 156 1100 83 q 1204 374 1204 229 l 1204 482 q 1151 706 1204 628 q 974 783 1099 783 l 494 783 q 317 706 369 783 q 264 482 264 628 l 264 374 q 316 156 264 229 q 494 83 368 83 m 864 333 l 864 376 l 1007 376 l 1007 318 q 897 208 1007 208 l 572 208 q 463 318 463 208 l 463 558 q 572 668 463 668 l 897 668 q 1007 558 1007 668 l 1007 500 l 864 500 l 864 543 q 856 578 864 569 q 821 586 847 586 l 649 586 q 614 578 622 586 q 606 543 606 569 l 606 333 q 614 298 606 306 q 649 290 622 290 l 821 290 q 856 298 847 290 q 864 333 864 306 z "},"ª":{"ha":611,"x_min":74,"x_max":529,"o":"m 232 447 l 367 447 q 401 481 401 447 l 401 772 q 367 806 401 806 l 232 806 q 206 800 213 806 q 200 775 200 794 l 200 478 q 206 453 200 458 q 232 447 213 447 m 401 864 l 529 864 l 529 389 l 401 389 l 401 421 q 346 389 389 389 l 151 389 q 74 467 74 389 l 74 786 q 151 864 74 864 l 346 864 q 401 832 389 864 l 401 864 z "},"«":{"ha":832,"x_min":200,"x_max":646,"o":"m 646 565 l 464 353 l 646 142 l 381 142 l 200 354 l 381 565 l 646 565 z "},"¬":{"ha":1056,"x_min":88,"x_max":963,"o":"m 963 553 l 963 207 l 846 207 l 846 408 l 88 408 l 88 553 l 963 553 z "},"­":{"ha":496,"x_min":76,"x_max":418,"o":"m 76 356 l 76 436 l 418 436 l 418 356 l 76 356 z "},"®":{"ha":874,"x_min":76,"x_max":797,"o":"m 797 739 l 797 688 q 749 526 797 579 q 589 472 701 472 l 285 472 q 124 525 172 472 q 76 688 76 578 l 76 739 q 124 904 76 850 q 285 958 172 958 l 589 958 q 749 903 701 958 q 797 739 797 849 m 300 529 l 575 529 q 670 568 642 529 q 699 683 699 607 l 699 744 q 575 906 699 906 l 300 906 q 176 744 176 906 l 176 683 q 205 568 176 607 q 300 529 233 529 m 304 851 l 518 851 q 563 808 563 851 l 563 725 q 522 682 563 682 l 510 682 l 575 583 l 488 583 l 428 681 l 385 681 l 385 583 l 304 583 l 304 851 m 482 742 l 482 793 q 467 808 482 808 l 385 808 l 385 726 l 467 726 q 482 742 482 726 z "},"¯":{"ha":874,"x_min":157,"x_max":717,"o":"m 157 764 l 157 844 l 717 844 l 717 764 l 157 764 z "},"°":{"ha":813,"x_min":82,"x_max":731,"o":"m 731 756 l 731 560 q 622 451 731 451 l 190 451 q 82 560 82 451 l 82 756 q 190 864 82 864 l 622 864 q 731 756 731 864 m 561 574 l 561 743 q 553 777 561 769 q 518 785 544 785 l 296 785 q 261 777 269 785 q 253 743 253 769 l 253 574 q 261 539 253 547 q 296 531 269 531 l 518 531 q 553 539 544 531 q 561 574 561 547 z "},"±":{"ha":972,"x_min":93,"x_max":871,"o":"m 93 171 l 93 274 l 871 274 l 871 171 l 93 171 m 565 563 l 871 563 l 871 449 l 565 449 l 565 329 l 399 329 l 399 449 l 93 449 l 93 563 l 399 563 l 399 706 l 565 706 l 565 563 z "},"²":{"ha":535,"x_min":76,"x_max":475,"o":"m 192 782 l 192 707 l 76 707 l 76 804 q 136 864 76 864 l 415 864 q 475 804 475 864 l 475 746 q 418 606 475 654 l 228 450 l 472 450 l 472 389 l 81 389 l 81 450 l 315 650 q 358 747 358 688 l 358 782 q 354 801 358 797 q 335 806 350 806 l 215 806 q 196 801 200 806 q 192 782 192 797 z "},"³":{"ha":564,"x_min":82,"x_max":490,"o":"m 199 782 l 199 714 l 82 714 l 82 804 q 143 864 82 864 l 429 864 q 490 804 490 864 l 490 676 q 453 631 490 633 q 490 586 490 628 l 490 449 q 429 389 490 389 l 143 389 q 82 449 82 389 l 82 538 l 199 538 l 199 472 q 203 452 199 457 q 222 447 207 447 l 350 447 q 369 452 365 447 q 374 472 374 457 l 374 576 q 369 596 374 592 q 350 600 364 600 l 225 600 l 225 660 l 350 660 q 369 664 365 660 q 374 683 374 668 l 374 782 q 369 801 374 797 q 350 806 364 806 l 222 806 q 203 801 208 806 q 199 782 199 797 z "},"´":{"ha":874,"x_min":235,"x_max":626,"o":"m 235 703 l 428 906 l 626 906 l 394 703 l 235 703 z "},"µ":{"ha":906,"x_min":111,"x_max":793,"o":"m 614 674 l 793 674 l 793 0 l 614 0 l 614 43 q 536 0 597 0 l 292 0 l 292 -196 l 111 -196 l 111 674 l 292 674 l 292 125 q 300 90 292 97 q 335 82 308 82 l 565 82 q 614 128 614 82 l 614 674 z "},"¶":{"ha":1046,"x_min":94,"x_max":926,"o":"m 603 864 l 603 -196 l 439 -196 l 439 306 l 204 306 q 94 415 94 306 l 94 754 q 204 864 94 864 l 603 864 m 763 864 l 926 864 l 926 -196 l 763 -196 l 763 864 z "},"·":{"ha":400,"x_min":104,"x_max":301,"o":"m 104 349 l 104 524 l 301 524 l 301 349 l 104 349 z "},"¸":{"ha":874,"x_min":247,"x_max":615,"o":"m 446 -186 l 446 -68 l 615 -68 l 615 -196 q 496 -315 615 -315 l 247 -315 l 247 -235 l 399 -235 q 435 -224 425 -235 q 446 -186 446 -214 z "},"¹":{"ha":360,"x_min":33,"x_max":271,"o":"m 271 864 l 271 389 l 146 389 l 146 806 l 33 806 l 33 864 l 271 864 z "},"º":{"ha":611,"x_min":83,"x_max":521,"o":"m 521 792 l 521 461 q 450 389 521 389 l 156 389 q 83 461 83 389 l 83 792 q 156 864 83 864 l 450 864 q 521 792 521 864 m 399 476 l 399 778 q 394 801 399 796 q 371 806 389 806 l 233 806 q 210 801 215 806 q 204 778 204 796 l 204 476 q 210 453 204 458 q 233 447 215 447 l 371 447 q 394 453 389 447 q 399 476 399 458 z "},"»":{"ha":821,"x_min":181,"x_max":625,"o":"m 444 565 l 625 354 l 444 142 l 181 142 l 361 353 l 181 565 l 444 565 z "},"¿":{"ha":872,"x_min":107,"x_max":828,"o":"m 578 672 l 578 499 l 379 499 l 379 672 l 578 672 m 646 72 l 828 72 l 828 -83 q 718 -192 828 -192 l 217 -192 q 107 -83 107 -192 l 107 188 q 217 296 107 296 l 393 296 l 401 390 l 553 390 l 567 210 l 329 210 q 297 201 304 210 q 289 165 289 192 l 289 -65 q 297 -102 289 -93 q 329 -111 304 -111 l 604 -111 q 638 -102 631 -111 q 646 -65 646 -93 l 646 72 z "},"À":{"ha":981,"x_min":35,"x_max":944,"o":"m 554 931 l 394 931 l 163 1133 l 361 1133 l 554 931 m 310 253 l 669 253 l 489 747 l 310 253 m 761 0 l 699 171 l 281 171 l 218 0 l 35 0 l 368 864 l 611 864 l 944 0 l 761 0 z "},"Á":{"ha":981,"x_min":35,"x_max":944,"o":"m 814 1133 l 582 931 l 422 931 l 615 1133 l 814 1133 m 308 253 l 668 253 l 488 747 l 308 253 m 761 0 l 699 171 l 279 171 l 217 0 l 35 0 l 367 864 l 611 864 l 944 0 l 761 0 z "},"Â":{"ha":981,"x_min":35,"x_max":944,"o":"m 489 1063 l 344 929 l 157 929 l 396 1136 l 581 1136 l 819 929 l 632 929 l 489 1063 m 308 253 l 668 253 l 488 747 l 308 253 m 761 0 l 699 171 l 279 171 l 217 0 l 35 0 l 367 864 l 611 864 l 944 0 l 761 0 z "},"Ã":{"ha":981,"x_min":35,"x_max":944,"o":"m 332 1007 l 332 929 l 183 929 l 183 1014 q 288 1121 183 1121 l 335 1121 q 499 1067 385 1121 q 639 1014 613 1014 q 665 1044 665 1014 l 665 1121 l 813 1121 l 813 1036 q 711 929 813 929 l 658 929 q 496 983 608 929 q 358 1038 383 1038 q 332 1007 332 1038 m 308 253 l 668 253 l 488 747 l 308 253 m 761 0 l 699 171 l 279 171 l 217 0 l 35 0 l 367 864 l 611 864 l 944 0 l 761 0 z "},"Ä":{"ha":981,"x_min":35,"x_max":944,"o":"m 792 1067 l 792 929 l 575 929 l 575 1067 l 792 1067 m 407 1067 l 407 929 l 192 929 l 192 1067 l 407 1067 m 310 253 l 669 253 l 489 747 l 310 253 m 761 0 l 699 171 l 281 171 l 218 0 l 35 0 l 368 864 l 611 864 l 944 0 l 761 0 z "},"Å":{"ha":981,"x_min":35,"x_max":944,"o":"m 375 1064 l 375 1040 q 382 1008 375 1015 q 415 1000 389 1000 l 564 1000 q 597 1008 590 1000 q 604 1040 604 1015 l 604 1064 q 597 1097 604 1089 q 564 1104 590 1104 l 415 1104 q 382 1097 389 1104 q 375 1064 375 1089 m 626 931 l 351 931 q 256 1026 256 931 l 256 1078 q 351 1175 256 1175 l 626 1175 q 724 1078 724 1175 l 724 1026 q 626 931 724 931 m 308 253 l 668 253 l 488 747 l 308 253 m 761 0 l 699 171 l 279 171 l 217 0 l 35 0 l 367 864 l 611 864 l 944 0 l 761 0 z "},"Æ":{"ha":1443,"x_min":32,"x_max":1372,"o":"m 735 275 l 735 749 l 415 275 l 735 275 m 921 82 l 1372 82 l 1372 0 l 735 0 l 735 193 l 360 193 l 229 0 l 32 0 l 626 864 l 1354 864 l 1354 782 l 921 782 l 921 483 l 1307 483 l 1307 401 l 921 401 l 921 82 z "},"Ç":{"ha":915,"x_min":108,"x_max":842,"o":"m 381 -186 l 381 -68 l 550 -68 l 550 -196 q 431 -315 550 -315 l 182 -315 l 182 -235 l 333 -235 q 370 -224 360 -235 q 381 -186 381 -214 m 842 565 l 654 565 l 654 739 q 647 774 654 767 q 611 782 639 782 l 339 782 q 303 774 311 782 q 296 739 296 767 l 296 125 q 303 90 296 97 q 339 82 311 82 l 611 82 q 647 90 639 82 q 654 125 654 97 l 654 299 l 842 299 l 842 110 q 732 0 842 0 l 218 0 q 108 110 108 0 l 108 754 q 218 864 108 864 l 732 864 q 842 754 842 864 l 842 565 z "},"È":{"ha":833,"x_min":122,"x_max":775,"o":"m 529 929 l 369 929 l 138 1132 l 336 1132 l 529 929 m 314 82 l 775 82 l 775 0 l 122 0 l 122 864 l 756 864 l 756 782 l 314 782 l 314 483 l 699 483 l 699 401 l 314 401 l 314 82 z "},"É":{"ha":833,"x_min":122,"x_max":775,"o":"m 767 1132 l 535 929 l 375 929 l 568 1132 l 767 1132 m 314 82 l 775 82 l 775 0 l 122 0 l 122 864 l 756 864 l 756 782 l 314 782 l 314 483 l 699 483 l 699 401 l 314 401 l 314 82 z "},"Ê":{"ha":833,"x_min":115,"x_max":778,"o":"m 447 1063 l 303 929 l 115 929 l 354 1136 l 539 1136 l 778 929 l 590 929 l 447 1063 m 314 401 l 314 82 l 775 82 l 775 0 l 122 0 l 122 864 l 756 864 l 756 782 l 314 782 l 314 483 l 699 483 l 699 401 l 314 401 z "},"Ë":{"ha":861,"x_min":122,"x_max":775,"o":"m 740 1067 l 740 929 l 524 929 l 524 1067 l 740 1067 m 356 1067 l 356 929 l 140 929 l 140 1067 l 356 1067 m 314 82 l 775 82 l 775 0 l 122 0 l 122 864 l 756 864 l 756 782 l 314 782 l 314 483 l 699 483 l 699 401 l 314 401 l 314 82 z "},"Ì":{"ha":449,"x_min":-96,"x_max":322,"o":"m 131 864 l 322 864 l 322 0 l 131 0 l 131 864 m 103 1132 l 296 929 l 136 929 l -96 1132 l 103 1132 z "},"Í":{"ha":449,"x_min":131,"x_max":547,"o":"m 131 864 l 322 864 l 322 0 l 131 0 l 131 864 m 156 929 l 349 1132 l 547 1132 l 315 929 l 156 929 z "},"Î":{"ha":449,"x_min":-97,"x_max":565,"o":"m 131 864 l 322 864 l 322 0 l 131 0 l 131 864 m -97 931 l 142 1138 l 326 1138 l 565 931 l 378 931 l 235 1064 l 90 931 l -97 931 z "},"Ï":{"ha":449,"x_min":-72,"x_max":528,"o":"m 132 864 l 322 864 l 322 0 l 132 0 l 132 864 m -72 1067 l 143 1067 l 143 929 l -72 929 l -72 1067 m 313 1067 l 528 1067 l 528 929 l 313 929 l 313 1067 z "},"Ð":{"ha":1001,"x_min":65,"x_max":893,"o":"m 706 125 l 706 739 q 697 774 706 767 q 663 782 689 782 l 333 782 l 333 478 l 568 478 l 568 393 l 333 393 l 333 82 l 663 82 q 697 90 689 82 q 706 125 706 97 m 147 864 l 783 864 q 893 754 893 864 l 893 110 q 783 0 893 0 l 147 0 l 147 393 l 65 393 l 65 478 l 147 478 l 147 864 z "},"Ñ":{"ha":1011,"x_min":122,"x_max":889,"o":"m 718 864 l 889 864 l 889 0 l 719 0 l 293 674 l 293 0 l 122 0 l 122 864 l 297 864 l 718 193 l 718 864 m 668 931 q 506 985 618 931 q 367 1039 393 1039 q 342 1008 342 1039 l 342 931 l 193 931 l 193 1015 q 297 1122 193 1122 l 344 1122 q 508 1069 394 1122 q 649 1015 622 1015 q 675 1046 675 1015 l 675 1122 l 822 1122 l 822 1038 q 721 931 822 931 l 668 931 z "},"Ò":{"ha":949,"x_min":110,"x_max":838,"o":"m 838 754 l 838 110 q 728 0 838 0 l 219 0 q 110 110 110 0 l 110 754 q 219 864 110 864 l 728 864 q 838 754 838 864 m 653 125 l 653 739 q 644 774 653 767 q 610 782 636 782 l 339 782 q 303 774 311 782 q 296 739 296 767 l 296 125 q 303 90 296 97 q 339 82 311 82 l 610 82 q 644 90 636 82 q 653 125 653 97 m 367 1132 l 560 929 l 400 929 l 168 1132 l 367 1132 z "},"Ó":{"ha":949,"x_min":110,"x_max":838,"o":"m 408 929 l 601 1132 l 800 1132 l 568 929 l 408 929 m 838 754 l 838 110 q 728 0 838 0 l 219 0 q 110 110 110 0 l 110 754 q 219 864 110 864 l 728 864 q 838 754 838 864 m 653 125 l 653 739 q 644 774 653 767 q 610 782 636 782 l 339 782 q 303 774 311 782 q 296 739 296 767 l 296 125 q 303 90 296 97 q 339 82 311 82 l 610 82 q 644 90 636 82 q 653 125 653 97 z "},"Ô":{"ha":949,"x_min":110,"x_max":838,"o":"m 143 929 l 382 1136 l 567 1136 l 806 929 l 618 929 l 475 1063 l 331 929 l 143 929 m 838 754 l 838 110 q 728 0 838 0 l 219 0 q 110 110 110 0 l 110 754 q 219 864 110 864 l 728 864 q 838 754 838 864 m 653 125 l 653 739 q 644 774 653 767 q 610 782 636 782 l 339 782 q 303 774 311 782 q 296 739 296 767 l 296 125 q 303 90 296 97 q 339 82 311 82 l 610 82 q 644 90 636 82 q 653 125 653 97 z "},"Õ":{"ha":949,"x_min":110,"x_max":838,"o":"m 838 754 l 838 110 q 728 0 838 0 l 219 0 q 110 110 110 0 l 110 754 q 219 864 110 864 l 728 864 q 838 754 838 864 m 653 125 l 653 739 q 644 774 653 767 q 610 782 636 782 l 339 782 q 303 774 311 782 q 296 739 296 767 l 296 125 q 303 90 296 97 q 339 82 311 82 l 610 82 q 644 90 636 82 q 653 125 653 97 m 631 931 q 468 985 581 931 q 330 1039 356 1039 q 304 1008 304 1039 l 304 931 l 156 931 l 156 1015 q 260 1122 156 1122 l 307 1122 q 471 1069 357 1122 q 611 1015 585 1015 q 638 1046 638 1015 l 638 1122 l 785 1122 l 785 1038 q 683 931 785 931 l 631 931 z "},"Ö":{"ha":939,"x_min":110,"x_max":838,"o":"m 838 754 l 838 110 q 728 0 838 0 l 219 0 q 110 110 110 0 l 110 754 q 219 864 110 864 l 728 864 q 838 754 838 864 m 653 125 l 653 739 q 644 774 653 767 q 610 782 636 782 l 339 782 q 303 774 311 782 q 296 739 296 767 l 296 125 q 303 90 296 97 q 339 82 311 82 l 610 82 q 644 90 636 82 q 653 125 653 97 m 560 1068 l 776 1068 l 776 929 l 560 929 l 560 1068 m 176 1068 l 392 1068 l 392 929 l 176 929 l 176 1068 z "},"×":{"ha":921,"x_min":114,"x_max":824,"o":"m 824 608 l 581 438 l 819 269 l 735 171 l 469 358 l 203 171 l 119 269 l 357 438 l 114 608 l 199 707 l 469 517 l 739 707 l 824 608 z "},"Ø":{"ha":985,"x_min":97,"x_max":890,"o":"m 685 122 l 685 619 l 303 93 q 342 79 308 79 l 640 79 q 676 87 668 79 q 685 122 685 94 m 299 742 l 299 239 l 683 765 q 640 785 678 785 l 342 785 q 306 777 314 785 q 299 742 299 769 m 864 754 l 864 110 q 754 0 864 0 l 235 0 l 207 -37 l 97 -37 l 146 29 q 121 110 121 56 l 121 754 q 231 864 121 864 l 754 864 l 782 901 l 890 901 l 840 833 q 864 754 864 803 z "},"Ù":{"ha":969,"x_min":111,"x_max":857,"o":"m 297 864 l 297 125 q 306 90 297 97 q 340 82 314 82 l 629 82 q 664 90 656 82 q 672 125 672 97 l 672 864 l 857 864 l 857 110 q 747 0 857 0 l 221 0 q 111 110 111 0 l 111 864 l 297 864 m 388 1132 l 581 929 l 421 929 l 189 1132 l 388 1132 z "},"Ú":{"ha":969,"x_min":111,"x_max":857,"o":"m 411 929 l 604 1132 l 803 1132 l 571 929 l 411 929 m 297 864 l 297 125 q 306 90 297 97 q 340 82 314 82 l 629 82 q 664 90 656 82 q 672 125 672 97 l 672 864 l 857 864 l 857 110 q 747 0 857 0 l 221 0 q 111 110 111 0 l 111 864 l 297 864 z "},"Û":{"ha":969,"x_min":111,"x_max":857,"o":"m 151 929 l 390 1136 l 575 1136 l 814 929 l 626 929 l 483 1063 l 339 929 l 151 929 m 297 864 l 297 125 q 306 90 297 97 q 340 82 314 82 l 629 82 q 664 90 656 82 q 672 125 672 97 l 672 864 l 857 864 l 857 110 q 747 0 857 0 l 221 0 q 111 110 111 0 l 111 864 l 297 864 z "},"Ü":{"ha":969,"x_min":111,"x_max":857,"o":"m 672 864 l 857 864 l 857 110 q 747 0 857 0 l 221 0 q 111 110 111 0 l 111 864 l 297 864 l 297 125 q 306 90 297 97 q 340 82 314 82 l 629 82 q 664 90 656 82 q 672 125 672 97 l 672 864 m 179 1067 l 396 1067 l 396 929 l 179 929 l 179 1067 m 564 1067 l 779 1067 l 779 929 l 564 929 l 564 1067 z "},"Ý":{"ha":915,"x_min":8,"x_max":906,"o":"m 792 1132 l 560 929 l 400 929 l 593 1132 l 792 1132 m 558 0 l 372 0 l 372 281 l 8 864 l 194 864 l 464 401 l 721 864 l 906 864 l 558 282 l 558 0 z "},"Þ":{"ha":944,"x_min":125,"x_max":860,"o":"m 675 267 l 675 597 q 667 633 675 625 q 632 640 658 640 l 310 640 l 310 224 l 632 224 q 667 231 658 224 q 675 267 675 239 m 310 722 l 750 722 q 860 613 860 722 l 860 251 q 750 142 860 142 l 310 142 l 310 0 l 125 0 l 125 864 l 310 864 l 310 722 z "},"ß":{"ha":1182,"x_min":125,"x_max":1115,"o":"m 460 214 l 638 214 l 638 125 q 645 90 638 97 q 681 82 653 82 l 894 82 q 930 90 922 82 q 938 125 938 97 l 938 279 q 930 314 938 306 q 894 322 922 322 l 569 322 q 460 432 460 322 l 460 533 q 565 643 460 643 l 819 643 q 859 651 850 643 q 868 682 868 658 l 868 736 q 860 772 868 764 q 825 781 851 781 l 350 781 q 315 772 324 781 q 307 736 307 764 l 307 0 l 125 0 l 125 754 q 235 864 125 864 l 944 864 q 1054 754 1054 864 l 1054 660 q 954 563 1054 563 l 676 563 q 642 555 650 563 q 633 519 633 547 l 633 446 q 642 411 633 419 q 676 403 650 403 l 1006 403 q 1115 293 1115 403 l 1115 110 q 1006 0 1115 0 l 569 0 q 460 110 460 0 l 460 214 z "},"à":{"ha":889,"x_min":97,"x_max":778,"o":"m 546 739 l 386 739 l 154 942 l 353 942 l 546 739 m 319 82 l 550 82 q 588 92 576 82 q 599 128 599 103 l 599 546 q 588 581 599 571 q 550 592 576 592 l 319 592 q 284 583 292 592 q 276 549 276 575 l 276 125 q 284 90 276 97 q 319 82 292 82 m 599 674 l 778 674 l 778 0 l 599 0 l 599 43 q 521 0 582 0 l 207 0 q 97 110 97 0 l 97 564 q 207 674 97 674 l 521 674 q 599 631 582 674 l 599 674 z "},"á":{"ha":889,"x_min":97,"x_max":778,"o":"m 760 942 l 528 739 l 368 739 l 561 942 l 760 942 m 319 82 l 550 82 q 588 92 576 82 q 599 128 599 103 l 599 546 q 588 581 599 571 q 550 592 576 592 l 319 592 q 284 583 292 592 q 276 549 276 575 l 276 125 q 284 90 276 97 q 319 82 292 82 m 599 674 l 778 674 l 778 0 l 599 0 l 599 43 q 521 0 582 0 l 207 0 q 97 110 97 0 l 97 564 q 207 674 97 674 l 521 674 q 599 631 582 674 l 599 674 z "},"â":{"ha":889,"x_min":97,"x_max":778,"o":"m 443 872 l 299 739 l 111 739 l 350 946 l 535 946 l 774 739 l 586 739 l 443 872 m 319 82 l 550 82 q 588 92 576 82 q 599 128 599 103 l 599 546 q 588 581 599 571 q 550 592 576 592 l 319 592 q 284 583 292 592 q 276 549 276 575 l 276 125 q 284 90 276 97 q 319 82 292 82 m 599 674 l 778 674 l 778 0 l 599 0 l 599 43 q 521 0 582 0 l 207 0 q 97 110 97 0 l 97 564 q 207 674 97 674 l 521 674 q 599 631 582 674 l 599 674 z "},"ã":{"ha":889,"x_min":97,"x_max":778,"o":"m 275 818 l 275 740 l 126 740 l 126 825 q 231 932 126 932 l 278 932 q 442 878 328 932 q 582 825 556 825 q 608 856 608 825 l 608 932 l 756 932 l 756 847 q 654 740 756 740 l 601 740 q 439 794 551 740 q 301 849 326 849 q 275 818 275 849 m 319 82 l 550 82 q 588 92 576 82 q 599 128 599 103 l 599 546 q 588 581 599 571 q 550 592 576 592 l 319 592 q 284 583 292 592 q 276 549 276 575 l 276 125 q 284 90 276 97 q 319 82 292 82 m 599 674 l 778 674 l 778 0 l 599 0 l 599 43 q 521 0 582 0 l 207 0 q 97 110 97 0 l 97 564 q 207 674 97 674 l 521 674 q 599 631 582 674 l 599 674 z "},"ä":{"ha":889,"x_min":97,"x_max":778,"o":"m 749 876 l 749 739 l 533 739 l 533 876 l 749 876 m 365 876 l 365 739 l 149 739 l 149 876 l 365 876 m 319 82 l 550 82 q 588 92 576 82 q 599 128 599 103 l 599 546 q 588 581 599 571 q 550 592 576 592 l 319 592 q 284 583 292 592 q 276 549 276 575 l 276 125 q 284 90 276 97 q 319 82 292 82 m 599 674 l 778 674 l 778 0 l 599 0 l 599 43 q 521 0 582 0 l 207 0 q 97 110 97 0 l 97 564 q 207 674 97 674 l 521 674 q 599 631 582 674 l 599 674 z "},"å":{"ha":889,"x_min":97,"x_max":778,"o":"m 326 874 l 326 850 q 333 817 326 825 q 367 810 340 810 l 515 810 q 549 817 542 810 q 556 850 556 825 l 556 874 q 549 906 556 899 q 515 914 542 914 l 367 914 q 333 906 340 914 q 326 874 326 899 m 578 740 l 303 740 q 207 836 207 740 l 207 888 q 303 985 207 985 l 578 985 q 675 888 675 985 l 675 836 q 578 740 675 740 m 319 82 l 550 82 q 588 92 576 82 q 599 128 599 103 l 599 546 q 588 581 599 571 q 550 592 576 592 l 319 592 q 284 583 292 592 q 276 549 276 575 l 276 125 q 284 90 276 97 q 319 82 292 82 m 599 674 l 778 674 l 778 0 l 599 0 l 599 43 q 521 0 582 0 l 207 0 q 97 110 97 0 l 97 564 q 207 674 97 674 l 521 674 q 599 631 582 674 l 599 674 z "},"æ":{"ha":1368,"x_min":99,"x_max":1263,"o":"m 321 82 l 535 82 q 570 91 560 82 q 581 124 581 100 l 581 299 l 278 232 l 278 125 q 286 90 278 97 q 321 82 294 82 m 1043 592 l 800 592 q 765 583 772 592 q 757 549 757 575 l 757 386 l 1086 386 l 1086 549 q 1078 583 1086 575 q 1043 592 1069 592 m 1251 304 l 757 304 l 757 125 q 765 90 757 97 q 800 82 772 82 l 1040 82 q 1075 90 1067 82 q 1083 125 1083 97 l 1083 200 l 1260 200 l 1260 110 q 1150 0 1260 0 l 774 0 q 668 51 683 0 q 551 0 651 0 l 208 0 q 99 110 99 0 l 99 279 l 581 388 l 581 550 q 570 584 581 575 q 535 593 560 593 l 321 593 q 286 585 294 593 q 278 550 278 578 l 278 428 l 99 428 l 99 564 q 208 674 99 674 l 551 674 q 668 622 651 674 q 774 674 683 674 l 1153 674 q 1263 564 1263 674 l 1263 307 l 1251 307 l 1251 304 z "},"ç":{"ha":833,"x_min":97,"x_max":763,"o":"m 344 -186 l 344 -68 l 514 -68 l 514 -196 q 394 -315 514 -315 l 146 -315 l 146 -235 l 297 -235 q 334 -224 324 -235 q 344 -186 344 -214 m 763 444 l 586 444 l 586 549 q 578 583 586 575 q 543 592 569 592 l 319 592 q 284 583 292 592 q 276 549 276 575 l 276 125 q 284 90 276 97 q 319 82 292 82 l 543 82 q 578 90 569 82 q 586 125 586 97 l 586 228 l 763 228 l 763 110 q 653 0 763 0 l 207 0 q 97 110 97 0 l 97 564 q 207 674 97 674 l 653 674 q 763 564 763 674 l 763 444 z "},"è":{"ha":875,"x_min":97,"x_max":792,"o":"m 540 739 l 381 739 l 149 942 l 347 942 l 540 739 m 276 386 l 617 386 l 617 549 q 608 583 617 575 q 574 592 600 592 l 319 592 q 284 583 292 592 q 276 549 276 575 l 276 386 m 207 674 l 682 674 q 792 564 792 674 l 792 304 l 276 304 l 276 125 q 284 90 276 97 q 319 82 292 82 l 571 82 q 606 90 597 82 q 614 125 614 97 l 614 201 l 789 201 l 789 110 q 679 0 789 0 l 207 0 q 97 110 97 0 l 97 564 q 207 674 97 674 z "},"é":{"ha":875,"x_min":97,"x_max":792,"o":"m 768 942 l 536 739 l 376 739 l 569 942 l 768 942 m 276 386 l 617 386 l 617 549 q 608 583 617 575 q 574 592 600 592 l 319 592 q 284 583 292 592 q 276 549 276 575 l 276 386 m 207 674 l 682 674 q 792 564 792 674 l 792 304 l 276 304 l 276 125 q 284 90 276 97 q 319 82 292 82 l 571 82 q 606 90 597 82 q 614 125 614 97 l 614 201 l 789 201 l 789 110 q 679 0 789 0 l 207 0 q 97 110 97 0 l 97 564 q 207 674 97 674 z "},"ê":{"ha":875,"x_min":97,"x_max":792,"o":"m 449 872 l 304 739 l 117 739 l 356 946 l 540 946 l 779 739 l 592 739 l 449 872 m 276 386 l 617 386 l 617 549 q 608 583 617 575 q 574 592 600 592 l 319 592 q 284 583 292 592 q 276 549 276 575 l 276 386 m 207 674 l 682 674 q 792 564 792 674 l 792 304 l 276 304 l 276 125 q 284 90 276 97 q 319 82 292 82 l 571 82 q 606 90 597 82 q 614 125 614 97 l 614 201 l 789 201 l 789 110 q 679 0 789 0 l 207 0 q 97 110 97 0 l 97 564 q 207 674 97 674 z "},"ë":{"ha":875,"x_min":96,"x_max":792,"o":"m 361 876 l 361 739 l 144 739 l 144 876 l 361 876 m 744 876 l 744 739 l 529 739 l 529 876 l 744 876 m 206 674 l 682 674 q 792 564 792 674 l 792 304 l 275 304 l 275 125 q 283 90 275 97 q 318 82 292 82 l 571 82 q 606 90 597 82 q 614 125 614 97 l 614 201 l 789 201 l 789 110 q 679 0 789 0 l 206 0 q 96 110 96 0 l 96 564 q 206 674 96 674 m 275 386 l 617 386 l 617 549 q 608 583 617 575 q 574 592 600 592 l 318 592 q 283 583 292 592 q 275 549 275 575 l 275 386 z "},"ì":{"ha":422,"x_min":-110,"x_max":301,"o":"m 301 0 l 122 0 l 122 674 l 301 674 l 301 0 m 89 942 l 282 739 l 122 739 l -110 942 l 89 942 z "},"í":{"ha":422,"x_min":122,"x_max":532,"o":"m 301 0 l 122 0 l 122 674 l 301 674 l 301 0 m 140 739 l 333 942 l 532 942 l 300 739 l 140 739 z "},"î":{"ha":422,"x_min":-118,"x_max":544,"o":"m 301 0 l 122 0 l 122 674 l 301 674 l 301 0 m -118 739 l 121 946 l 306 946 l 544 739 l 357 739 l 214 872 l 69 739 l -118 739 z "},"ï":{"ha":422,"x_min":-85,"x_max":515,"o":"m 301 0 l 122 0 l 122 674 l 301 674 l 301 0 m 300 876 l 515 876 l 515 739 l 300 739 l 300 876 m -85 876 l 132 876 l 132 739 l -85 739 l -85 876 z "},"ð":{"ha":653,"x_min":118,"x_max":835,"o":"m 656 125 l 656 442 l 340 442 q 306 433 314 442 q 297 399 297 425 l 297 125 q 306 90 297 97 q 340 82 314 82 l 613 82 q 647 90 639 82 q 656 125 656 97 m 835 433 l 835 110 q 725 0 835 0 l 228 0 q 118 110 118 0 l 118 414 q 228 524 118 524 l 642 524 q 560 664 621 593 l 329 604 l 329 683 l 497 726 q 297 864 429 786 l 540 864 q 663 768 610 818 l 824 810 l 824 731 l 724 706 q 835 433 835 572 z "},"ñ":{"ha":892,"x_min":111,"x_max":793,"o":"m 286 817 l 286 739 l 138 739 l 138 824 q 242 931 138 931 l 289 931 q 453 877 339 931 q 593 824 567 824 q 619 854 619 824 l 619 931 l 767 931 l 767 846 q 665 739 767 739 l 613 739 q 450 793 563 739 q 312 847 338 847 q 286 817 286 847 m 369 674 l 683 674 q 793 564 793 674 l 793 0 l 614 0 l 614 549 q 606 583 614 575 q 571 592 597 592 l 340 592 q 292 546 292 592 l 292 503 l 290 503 l 290 0 l 111 0 l 111 674 l 290 674 l 290 626 q 369 674 307 674 z "},"ò":{"ha":883,"x_min":100,"x_max":785,"o":"m 531 739 l 371 739 l 139 942 l 338 942 l 531 739 m 607 125 l 607 549 q 599 583 607 575 q 564 592 592 592 l 321 592 q 286 583 294 592 q 278 549 278 575 l 278 125 q 286 90 278 97 q 321 82 294 82 l 564 82 q 599 90 592 82 q 607 125 607 97 m 210 674 l 675 674 q 785 564 785 674 l 785 110 q 675 0 785 0 l 210 0 q 100 110 100 0 l 100 564 q 210 674 100 674 z "},"ó":{"ha":883,"x_min":100,"x_max":785,"o":"m 771 942 l 539 739 l 379 739 l 572 942 l 771 942 m 607 125 l 607 549 q 599 583 607 575 q 564 592 592 592 l 321 592 q 286 583 294 592 q 278 549 278 575 l 278 125 q 286 90 278 97 q 321 82 294 82 l 564 82 q 599 90 592 82 q 607 125 607 97 m 210 674 l 675 674 q 785 564 785 674 l 785 110 q 675 0 785 0 l 210 0 q 100 110 100 0 l 100 564 q 210 674 100 674 z "},"ô":{"ha":883,"x_min":100,"x_max":785,"o":"m 444 872 l 300 739 l 113 739 l 351 946 l 536 946 l 775 739 l 588 739 l 444 872 m 607 125 l 607 549 q 599 583 607 575 q 564 592 592 592 l 321 592 q 286 583 294 592 q 278 549 278 575 l 278 125 q 286 90 278 97 q 321 82 294 82 l 564 82 q 599 90 592 82 q 607 125 607 97 m 210 674 l 675 674 q 785 564 785 674 l 785 110 q 675 0 785 0 l 210 0 q 100 110 100 0 l 100 564 q 210 674 100 674 z "},"õ":{"ha":883,"x_min":100,"x_max":785,"o":"m 281 817 l 281 739 l 132 739 l 132 824 q 236 931 132 931 l 283 931 q 447 877 333 931 q 588 824 561 824 q 614 854 614 824 l 614 931 l 761 931 l 761 846 q 660 739 761 739 l 607 739 q 444 793 557 739 q 306 847 332 847 q 281 817 281 847 m 607 125 l 607 549 q 599 583 607 575 q 564 592 592 592 l 321 592 q 286 583 294 592 q 278 549 278 575 l 278 125 q 286 90 278 97 q 321 82 294 82 l 564 82 q 599 90 592 82 q 607 125 607 97 m 210 674 l 675 674 q 785 564 785 674 l 785 110 q 675 0 785 0 l 210 0 q 100 110 100 0 l 100 564 q 210 674 100 674 z "},"ö":{"ha":883,"x_min":99,"x_max":785,"o":"m 208 674 l 675 674 q 785 564 785 674 l 785 110 q 675 0 785 0 l 208 0 q 99 110 99 0 l 99 564 q 208 674 99 674 m 607 549 q 599 583 607 575 q 564 592 592 592 l 321 592 q 286 583 294 592 q 278 549 278 575 l 278 125 q 286 90 278 97 q 321 82 294 82 l 564 82 q 599 90 592 82 q 607 125 607 97 l 607 549 m 146 876 l 363 876 l 363 739 l 146 739 l 146 876 m 531 876 l 746 876 l 746 739 l 531 739 l 531 876 z "},"÷":{"ha":932,"x_min":72,"x_max":849,"o":"m 72 369 l 72 493 l 849 493 l 849 369 l 72 369 m 368 706 l 553 706 l 553 585 l 368 585 l 368 706 m 368 278 l 553 278 l 553 157 l 368 157 l 368 278 z "},"ø":{"ha":904,"x_min":88,"x_max":828,"o":"m 624 121 l 624 469 l 294 82 q 325 76 301 76 l 579 76 q 615 85 607 76 q 624 121 624 93 m 282 554 l 282 192 l 618 586 q 579 597 608 597 l 325 597 q 290 589 297 597 q 282 554 282 581 m 794 564 l 794 110 q 685 0 794 0 l 225 0 l 193 -37 l 88 -37 l 140 25 q 110 110 110 51 l 110 564 q 219 674 110 674 l 692 674 l 722 710 l 828 710 l 771 643 q 794 564 794 615 z "},"ù":{"ha":892,"x_min":100,"x_max":781,"o":"m 546 739 l 386 739 l 154 942 l 353 942 l 546 739 m 601 674 l 781 674 l 781 0 l 601 0 l 601 43 q 524 0 585 0 l 210 0 q 100 110 100 0 l 100 674 l 279 674 l 279 125 q 287 90 279 97 q 322 82 294 82 l 553 82 q 590 92 579 82 q 601 128 601 103 l 601 674 z "},"ú":{"ha":892,"x_min":100,"x_max":781,"o":"m 756 942 l 524 739 l 364 739 l 557 942 l 756 942 m 601 674 l 781 674 l 781 0 l 601 0 l 601 43 q 524 0 585 0 l 210 0 q 100 110 100 0 l 100 674 l 279 674 l 279 125 q 287 90 279 97 q 322 82 294 82 l 553 82 q 590 92 579 82 q 601 128 601 103 l 601 674 z "},"û":{"ha":892,"x_min":100,"x_max":781,"o":"m 439 872 l 294 739 l 107 739 l 346 946 l 531 946 l 769 739 l 582 739 l 439 872 m 601 674 l 781 674 l 781 0 l 601 0 l 601 43 q 524 0 585 0 l 210 0 q 100 110 100 0 l 100 674 l 279 674 l 279 125 q 287 90 279 97 q 322 82 294 82 l 553 82 q 590 92 579 82 q 601 128 601 103 l 601 674 z "},"ü":{"ha":901,"x_min":99,"x_max":781,"o":"m 740 876 l 740 739 l 524 739 l 524 876 l 740 876 m 356 876 l 356 739 l 140 739 l 140 876 l 356 876 m 601 674 l 781 674 l 781 0 l 601 0 l 601 43 q 524 0 585 0 l 208 0 q 99 110 99 0 l 99 674 l 278 674 l 278 125 q 286 90 278 97 q 321 82 294 82 l 553 82 q 601 128 601 82 l 601 674 z "},"ý":{"ha":832,"x_min":35,"x_max":824,"o":"m 310 -196 l 158 -196 l 158 -114 l 250 -114 q 358 -56 331 -114 l 385 0 l 318 0 l 35 674 l 219 674 l 432 119 l 643 674 l 824 674 l 515 -53 q 443 -162 485 -128 q 310 -196 401 -196 m 368 739 l 561 942 l 760 942 l 528 739 l 368 739 z "},"þ":{"ha":892,"x_min":111,"x_max":792,"o":"m 613 139 l 613 561 q 605 597 613 589 q 569 604 597 604 l 339 604 q 290 558 290 604 l 290 142 q 339 96 290 96 l 569 96 q 605 103 597 96 q 613 139 613 111 m 368 686 l 682 686 q 792 576 792 686 l 792 124 q 682 14 792 14 l 368 14 q 290 57 307 14 l 290 -196 l 111 -196 l 111 929 l 289 929 l 289 639 q 368 686 306 686 z "},"ÿ":{"ha":851,"x_min":36,"x_max":825,"o":"m 311 -196 l 160 -196 l 160 -114 l 251 -114 q 319 -101 294 -114 q 358 -56 343 -87 l 385 0 l 319 0 l 36 674 l 221 674 l 433 119 l 643 674 l 825 674 l 517 -53 q 444 -162 486 -128 q 311 -196 401 -196 m 522 876 l 738 876 l 738 739 l 522 739 l 522 876 m 138 876 l 354 876 l 354 739 l 138 739 l 138 876 z "},"Ā":{"ha":981,"x_min":35,"x_max":944,"o":"m 774 1011 l 774 931 l 214 931 l 214 1011 l 774 1011 m 308 253 l 668 253 l 488 747 l 308 253 m 761 0 l 699 171 l 279 171 l 217 0 l 35 0 l 367 864 l 611 864 l 944 0 l 761 0 z "},"ā":{"ha":889,"x_min":97,"x_max":778,"o":"m 711 824 l 711 743 l 151 743 l 151 824 l 711 824 m 319 82 l 550 82 q 588 92 576 82 q 599 128 599 103 l 599 546 q 588 581 599 571 q 550 592 576 592 l 319 592 q 284 583 292 592 q 276 549 276 575 l 276 125 q 284 90 276 97 q 319 82 292 82 m 599 674 l 778 674 l 778 0 l 599 0 l 599 43 q 521 0 582 0 l 207 0 q 97 110 97 0 l 97 564 q 207 674 97 674 l 521 674 q 599 631 582 674 l 599 674 z "},"Ă":{"ha":981,"x_min":35,"x_max":944,"o":"m 685 929 l 293 929 q 183 1039 183 929 l 183 1124 l 344 1124 l 344 1051 q 353 1017 344 1025 q 388 1008 361 1008 l 590 1008 q 625 1017 617 1008 q 633 1051 633 1025 l 633 1124 l 794 1124 l 794 1039 q 685 929 794 929 m 308 253 l 668 253 l 488 747 l 308 253 m 761 0 l 699 171 l 279 171 l 217 0 l 35 0 l 367 864 l 611 864 l 944 0 l 761 0 z "},"ă":{"ha":889,"x_min":97,"x_max":778,"o":"m 638 739 l 246 739 q 136 849 136 739 l 136 933 l 297 933 l 297 861 q 306 826 297 833 q 340 818 314 818 l 543 818 q 578 826 569 818 q 586 861 586 833 l 586 933 l 747 933 l 747 849 q 638 739 747 739 m 319 82 l 550 82 q 588 92 576 82 q 599 128 599 103 l 599 546 q 588 581 599 571 q 550 592 576 592 l 319 592 q 284 583 292 592 q 276 549 276 575 l 276 125 q 284 90 276 97 q 319 82 292 82 m 599 674 l 778 674 l 778 0 l 599 0 l 599 43 q 521 0 582 0 l 207 0 q 97 110 97 0 l 97 564 q 207 674 97 674 l 521 674 q 599 631 582 674 l 599 674 z "},"Ą":{"ha":981,"x_min":35,"x_max":968,"o":"m 308 253 l 668 253 l 488 747 l 308 253 m 742 -254 l 968 -254 l 968 -331 l 671 -331 q 561 -221 561 -331 l 561 -158 q 671 -49 561 -49 l 761 -49 l 761 0 l 699 171 l 279 171 l 217 0 l 35 0 l 367 864 l 611 864 l 944 0 l 938 0 l 938 -124 l 742 -124 q 706 -132 714 -124 q 697 -167 697 -140 l 697 -211 q 706 -246 697 -237 q 742 -254 714 -254 z "},"ą":{"ha":889,"x_min":97,"x_max":806,"o":"m 319 82 l 550 82 q 588 92 576 82 q 599 128 599 103 l 599 546 q 588 581 599 571 q 550 592 576 592 l 319 592 q 284 583 292 592 q 276 549 276 575 l 276 125 q 284 90 276 97 q 319 82 292 82 m 579 -254 l 806 -254 l 806 -331 l 508 -331 q 399 -221 399 -331 l 399 -158 q 508 -49 399 -49 l 599 -49 l 599 43 q 521 0 582 0 l 207 0 q 97 110 97 0 l 97 564 q 207 674 97 674 l 521 674 q 599 631 582 674 l 599 674 l 778 674 l 778 0 l 775 0 l 775 -124 l 579 -124 q 543 -132 551 -124 q 535 -167 535 -140 l 535 -211 q 543 -246 535 -237 q 579 -254 551 -254 z "},"Ć":{"ha":915,"x_min":108,"x_max":842,"o":"m 783 1133 l 551 931 l 392 931 l 585 1133 l 783 1133 m 842 565 l 654 565 l 654 739 q 647 774 654 767 q 611 782 639 782 l 339 782 q 303 774 311 782 q 296 739 296 767 l 296 125 q 303 90 296 97 q 339 82 311 82 l 611 82 q 647 90 639 82 q 654 125 654 97 l 654 299 l 842 299 l 842 110 q 732 0 842 0 l 218 0 q 108 110 108 0 l 108 754 q 218 864 108 864 l 732 864 q 842 754 842 864 l 842 565 z "},"ć":{"ha":833,"x_min":97,"x_max":763,"o":"m 754 942 l 522 739 l 363 739 l 556 942 l 754 942 m 763 444 l 586 444 l 586 549 q 578 583 586 575 q 543 592 569 592 l 319 592 q 284 583 292 592 q 276 549 276 575 l 276 125 q 284 90 276 97 q 319 82 292 82 l 543 82 q 578 90 569 82 q 586 125 586 97 l 586 228 l 763 228 l 763 110 q 653 0 763 0 l 207 0 q 97 110 97 0 l 97 564 q 207 674 97 674 l 653 674 q 763 564 763 674 l 763 444 z "},"Č":{"ha":915,"x_min":108,"x_max":842,"o":"m 569 929 l 385 929 l 146 1136 l 333 1136 l 478 1003 l 621 1136 l 808 1136 l 569 929 m 842 565 l 654 565 l 654 739 q 647 774 654 767 q 611 782 639 782 l 339 782 q 303 774 311 782 q 296 739 296 767 l 296 125 q 303 90 296 97 q 339 82 311 82 l 611 82 q 647 90 639 82 q 654 125 654 97 l 654 299 l 842 299 l 842 110 q 732 0 842 0 l 218 0 q 108 110 108 0 l 108 754 q 218 864 108 864 l 732 864 q 842 754 842 864 l 842 565 z "},"č":{"ha":833,"x_min":92,"x_max":763,"o":"m 515 739 l 331 739 l 92 946 l 279 946 l 424 813 l 567 946 l 754 946 l 515 739 m 763 444 l 586 444 l 586 549 q 578 583 586 575 q 543 592 569 592 l 319 592 q 284 583 292 592 q 276 549 276 575 l 276 125 q 284 90 276 97 q 319 82 292 82 l 543 82 q 578 90 569 82 q 586 125 586 97 l 586 228 l 763 228 l 763 110 q 653 0 763 0 l 207 0 q 97 110 97 0 l 97 564 q 207 674 97 674 l 653 674 q 763 564 763 674 l 763 444 z "},"Ď":{"ha":985,"x_min":128,"x_max":875,"o":"m 575 929 l 390 929 l 151 1136 l 339 1136 l 483 1003 l 626 1136 l 814 1136 l 575 929 m 689 125 l 689 739 q 681 774 689 767 q 646 782 672 782 l 314 782 l 314 82 l 646 82 q 681 90 672 82 q 689 125 689 97 m 128 864 l 765 864 q 875 754 875 864 l 875 110 q 765 0 875 0 l 128 0 l 128 864 z "},"ď":{"ha":913,"x_min":96,"x_max":1054,"o":"m 599 929 l 778 929 l 778 0 l 599 0 l 599 42 q 521 0 581 0 l 206 0 q 96 110 96 0 l 96 564 q 206 674 96 674 l 521 674 q 599 632 581 674 l 599 929 m 894 929 l 1054 929 l 1054 857 l 949 681 l 894 681 l 894 929 m 318 82 l 550 82 q 599 128 599 82 l 599 546 q 550 592 599 592 l 318 592 q 283 583 292 592 q 275 549 275 575 l 275 125 q 283 90 275 97 q 318 82 292 82 z "},"Đ":{"ha":1050,"x_min":107,"x_max":935,"o":"m 749 125 l 749 739 q 741 774 749 767 q 706 782 733 782 l 376 782 l 376 478 l 610 478 l 610 393 l 376 393 l 376 82 l 706 82 q 741 90 733 82 q 749 125 749 97 m 189 864 l 825 864 q 935 754 935 864 l 935 110 q 825 0 935 0 l 189 0 l 189 393 l 107 393 l 107 478 l 189 478 l 189 864 z "},"đ":{"ha":892,"x_min":99,"x_max":876,"o":"m 321 82 l 553 82 q 601 128 601 82 l 601 546 q 553 592 601 592 l 321 592 q 286 583 294 592 q 278 549 278 575 l 278 125 q 286 90 278 97 q 321 82 294 82 m 876 832 l 876 750 l 781 750 l 781 0 l 601 0 l 601 43 q 524 0 585 0 l 208 0 q 99 110 99 0 l 99 564 q 208 674 99 674 l 524 674 q 601 631 585 674 l 601 750 l 303 750 l 303 832 l 601 832 l 601 929 l 781 929 l 781 832 l 876 832 z "},"Ē":{"ha":833,"x_min":122,"x_max":775,"o":"m 724 1010 l 724 929 l 164 929 l 164 1010 l 724 1010 m 314 82 l 775 82 l 775 0 l 122 0 l 122 864 l 756 864 l 756 782 l 314 782 l 314 483 l 699 483 l 699 401 l 314 401 l 314 82 z "},"ē":{"ha":875,"x_min":97,"x_max":792,"o":"m 721 824 l 721 743 l 161 743 l 161 824 l 721 824 m 276 386 l 617 386 l 617 549 q 608 583 617 575 q 574 592 600 592 l 319 592 q 284 583 292 592 q 276 549 276 575 l 276 386 m 207 674 l 682 674 q 792 564 792 674 l 792 304 l 276 304 l 276 125 q 284 90 276 97 q 319 82 292 82 l 571 82 q 606 90 597 82 q 614 125 614 97 l 614 201 l 789 201 l 789 110 q 679 0 789 0 l 207 0 q 97 110 97 0 l 97 564 q 207 674 97 674 z "},"Ė":{"ha":833,"x_min":122,"x_max":775,"o":"m 564 1076 l 564 931 l 364 931 l 364 1076 l 564 1076 m 314 82 l 775 82 l 775 0 l 122 0 l 122 864 l 756 864 l 756 782 l 314 782 l 314 483 l 699 483 l 699 401 l 314 401 l 314 82 z "},"ė":{"ha":875,"x_min":97,"x_max":792,"o":"m 553 885 l 553 739 l 353 739 l 353 885 l 553 885 m 276 386 l 617 386 l 617 549 q 608 583 617 575 q 574 592 600 592 l 319 592 q 284 583 292 592 q 276 549 276 575 l 276 386 m 207 674 l 682 674 q 792 564 792 674 l 792 304 l 276 304 l 276 125 q 284 90 276 97 q 319 82 292 82 l 571 82 q 606 90 597 82 q 614 125 614 97 l 614 201 l 789 201 l 789 110 q 679 0 789 0 l 207 0 q 97 110 97 0 l 97 564 q 207 674 97 674 z "},"Ę":{"ha":833,"x_min":122,"x_max":806,"o":"m 579 -254 l 806 -254 l 806 -331 l 508 -331 q 399 -221 399 -331 l 399 -158 q 508 -49 399 -49 l 599 -49 l 599 0 l 122 0 l 122 864 l 756 864 l 756 782 l 314 782 l 314 483 l 699 483 l 699 401 l 314 401 l 314 82 l 775 82 l 775 -124 l 579 -124 q 543 -132 551 -124 q 535 -167 535 -140 l 535 -211 q 543 -246 535 -237 q 579 -254 551 -254 z "},"ę":{"ha":875,"x_min":97,"x_max":792,"o":"m 276 386 l 617 386 l 617 549 q 608 583 617 575 q 574 592 600 592 l 319 592 q 284 583 292 592 q 276 549 276 575 l 276 386 m 207 674 l 682 674 q 792 564 792 674 l 792 304 l 276 304 l 276 125 q 284 90 276 97 q 319 82 292 82 l 571 82 q 606 90 597 82 q 614 125 614 97 l 614 201 l 789 201 l 789 110 q 679 0 789 0 l 539 0 l 539 -124 l 343 -124 q 307 -132 315 -124 q 299 -167 299 -140 l 299 -211 q 307 -246 299 -237 q 343 -254 315 -254 l 569 -254 l 569 -331 l 272 -331 q 163 -221 163 -331 l 163 -158 q 272 -49 163 -49 l 363 -49 l 363 0 l 207 0 q 97 110 97 0 l 97 564 q 207 674 97 674 z "},"Ě":{"ha":833,"x_min":122,"x_max":792,"o":"m 553 929 l 368 929 l 129 1136 l 317 1136 l 461 1003 l 604 1136 l 792 1136 l 553 929 m 314 401 l 314 82 l 775 82 l 775 0 l 122 0 l 122 864 l 756 864 l 756 782 l 314 782 l 314 483 l 699 483 l 699 401 l 314 401 z "},"ě":{"ha":875,"x_min":97,"x_max":792,"o":"m 533 739 l 349 739 l 110 946 l 297 946 l 442 813 l 585 946 l 772 946 l 533 739 m 276 386 l 617 386 l 617 549 q 608 583 617 575 q 574 592 600 592 l 319 592 q 284 583 292 592 q 276 549 276 575 l 276 386 m 207 674 l 682 674 q 792 564 792 674 l 792 304 l 276 304 l 276 125 q 284 90 276 97 q 319 82 292 82 l 571 82 q 606 90 597 82 q 614 125 614 97 l 614 201 l 789 201 l 789 110 q 679 0 789 0 l 207 0 q 97 110 97 0 l 97 564 q 207 674 97 674 z "},"Ğ":{"ha":939,"x_min":108,"x_max":843,"o":"m 665 929 l 274 929 q 164 1039 164 929 l 164 1124 l 325 1124 l 325 1051 q 333 1017 325 1025 q 368 1008 342 1008 l 571 1008 q 606 1017 597 1008 q 614 1051 614 1025 l 614 1124 l 775 1124 l 775 1039 q 665 929 775 929 m 843 593 l 656 593 l 656 739 q 647 774 656 767 q 613 782 639 782 l 339 782 q 303 774 311 782 q 296 739 296 767 l 296 125 q 303 90 296 97 q 339 82 311 82 l 614 82 q 649 90 642 82 q 657 125 657 97 l 657 363 l 464 363 l 464 444 l 843 444 l 843 110 q 733 0 843 0 l 218 0 q 108 110 108 0 l 108 754 q 218 864 108 864 l 733 864 q 843 754 843 864 l 843 593 z "},"ğ":{"ha":879,"x_min":97,"x_max":779,"o":"m 646 739 l 254 739 q 144 849 144 739 l 144 933 l 306 933 l 306 861 q 314 826 306 833 q 349 818 322 818 l 551 818 q 586 826 578 818 q 594 861 594 833 l 594 933 l 756 933 l 756 849 q 646 739 756 739 m 319 82 l 550 82 q 588 92 576 82 q 599 128 599 103 l 599 546 q 588 581 599 571 q 550 592 576 592 l 319 592 q 284 583 292 592 q 276 549 276 575 l 276 125 q 284 90 276 97 q 319 82 292 82 m 778 29 l 779 29 l 779 -86 q 669 -196 779 -196 l 126 -196 l 126 -114 l 557 -114 q 592 -106 583 -114 q 600 -71 600 -97 l 600 15 l 599 15 l 599 43 q 521 0 582 0 l 207 0 q 97 110 97 0 l 97 564 q 207 674 97 674 l 521 674 q 599 631 582 674 l 599 674 l 778 674 l 778 29 z "},"Ģ":{"ha":939,"x_min":108,"x_max":843,"o":"m 376 -332 l 376 -68 l 564 -68 l 564 -144 l 436 -332 l 376 -332 m 843 593 l 656 593 l 656 739 q 647 774 656 767 q 613 782 639 782 l 339 782 q 303 774 311 782 q 296 739 296 767 l 296 125 q 303 90 296 97 q 339 82 311 82 l 614 82 q 649 90 642 82 q 657 125 657 97 l 657 363 l 464 363 l 464 444 l 843 444 l 843 110 q 733 0 843 0 l 218 0 q 108 110 108 0 l 108 754 q 218 864 108 864 l 733 864 q 843 754 843 864 l 843 593 z "},"ģ":{"ha":879,"x_min":100,"x_max":782,"o":"m 574 1003 l 574 738 l 386 738 l 386 814 l 514 1003 l 574 1003 m 322 82 l 553 82 q 590 92 579 82 q 601 128 601 103 l 601 546 q 590 581 601 571 q 553 592 579 592 l 322 592 q 287 583 294 592 q 279 549 279 575 l 279 125 q 287 90 279 97 q 322 82 294 82 m 781 29 l 782 29 l 782 -86 q 672 -196 782 -196 l 129 -196 l 129 -114 l 560 -114 q 594 -106 586 -114 q 603 -71 603 -97 l 603 15 l 601 15 l 601 43 q 524 0 585 0 l 210 0 q 100 110 100 0 l 100 564 q 210 674 100 674 l 524 674 q 601 631 585 674 l 601 674 l 781 674 l 781 29 z "},"Ī":{"ha":449,"x_min":-46,"x_max":514,"o":"m 131 864 l 322 864 l 322 0 l 131 0 l 131 864 m -46 929 l -46 1010 l 514 1010 l 514 929 l -46 929 z "},"ī":{"ha":422,"x_min":-62,"x_max":497,"o":"m 301 0 l 122 0 l 122 674 l 301 674 l 301 0 m -62 743 l -62 824 l 497 824 l 497 743 l -62 743 z "},"Į":{"ha":449,"x_min":-58,"x_max":349,"o":"m 122 -254 l 349 -254 l 349 -331 l 51 -331 q -58 -221 -58 -331 l -58 -158 q 51 -49 -58 -49 l 142 -49 l 142 0 l 131 0 l 131 864 l 322 864 l 322 0 l 318 0 l 318 -124 l 122 -124 q 86 -132 94 -124 q 78 -167 78 -140 l 78 -211 q 86 -246 78 -237 q 122 -254 94 -254 z "},"į":{"ha":422,"x_min":-78,"x_max":329,"o":"m 306 931 l 306 796 l 118 796 l 118 931 l 306 931 m 103 -254 l 329 -254 l 329 -331 l 32 -331 q -78 -221 -78 -331 l -78 -158 q 32 -49 -78 -49 l 122 -49 l 122 0 l 121 0 l 121 674 l 301 674 l 301 0 l 299 0 l 299 -124 l 103 -124 q 67 -132 75 -124 q 58 -167 58 -140 l 58 -211 q 67 -246 58 -237 q 103 -254 75 -254 z "},"İ":{"ha":426,"x_min":115,"x_max":315,"o":"m 122 726 l 311 726 l 311 0 l 122 0 l 122 726 m 115 938 l 315 938 l 315 792 l 115 792 l 115 938 z "},"ı":{"ha":422,"x_min":121,"x_max":301,"o":"m 121 674 l 301 674 l 301 0 l 121 0 l 121 674 z "},"Ķ":{"ha":957,"x_min":122,"x_max":932,"o":"m 122 864 l 304 864 l 304 0 l 122 0 l 122 864 m 707 864 l 918 864 l 539 442 l 932 0 l 718 0 l 332 442 l 707 864 m 401 -332 l 401 -68 l 589 -68 l 589 -144 l 461 -332 l 401 -332 z "},"ķ":{"ha":864,"x_min":111,"x_max":842,"o":"m 111 0 l 111 929 l 290 929 l 290 0 l 111 0 m 342 -332 l 342 -68 l 529 -68 l 529 -144 l 401 -332 l 342 -332 m 842 674 l 521 340 l 842 0 l 635 0 l 321 340 l 635 674 l 842 674 z "},"Ĺ":{"ha":767,"x_min":122,"x_max":736,"o":"m 540 1132 l 308 929 l 149 929 l 342 1132 l 540 1132 m 308 82 l 736 82 l 736 0 l 122 0 l 122 864 l 308 864 l 308 82 z "},"ĺ":{"ha":422,"x_min":122,"x_max":532,"o":"m 140 994 l 333 1197 l 532 1197 l 300 994 l 140 994 m 301 0 l 122 0 l 122 929 l 301 929 l 301 0 z "},"Ļ":{"ha":767,"x_min":122,"x_max":736,"o":"m 331 -332 l 331 -68 l 518 -68 l 518 -144 l 390 -332 l 331 -332 m 308 82 l 736 82 l 736 0 l 122 0 l 122 864 l 308 864 l 308 82 z "},"ļ":{"ha":422,"x_min":115,"x_max":303,"o":"m 301 0 l 122 0 l 122 929 l 301 929 l 301 0 m 115 -332 l 115 -68 l 303 -68 l 303 -144 l 175 -332 l 115 -332 z "},"Ľ":{"ha":767,"x_min":-115,"x_max":736,"o":"m 308 931 l 124 931 l -115 1138 l 72 1138 l 217 1004 l 360 1138 l 547 1138 l 308 931 m 308 82 l 736 82 l 736 0 l 122 0 l 122 864 l 308 864 l 308 82 z "},"ľ":{"ha":450,"x_min":122,"x_max":579,"o":"m 122 929 l 301 929 l 301 0 l 122 0 l 122 929 m 419 928 l 579 928 l 579 856 l 474 679 l 419 679 l 419 928 z "},"Ł":{"ha":776,"x_min":-43,"x_max":742,"o":"m 314 82 l 742 82 l 742 0 l 128 0 l 128 339 l -43 282 l -43 369 l 128 426 l 128 864 l 314 864 l 314 489 l 539 564 l 539 476 l 314 401 l 314 82 z "},"ł":{"ha":429,"x_min":-43,"x_max":479,"o":"m 304 0 l 125 0 l 125 403 l -43 346 l -43 435 l 125 490 l 125 929 l 304 929 l 304 550 l 479 608 l 479 521 l 304 463 l 304 0 z "},"Ń":{"ha":1011,"x_min":122,"x_max":889,"o":"m 439 928 l 632 1131 l 831 1131 l 599 928 l 439 928 m 718 864 l 889 864 l 889 0 l 719 0 l 293 674 l 293 0 l 122 0 l 122 864 l 297 864 l 718 193 l 718 864 z "},"ń":{"ha":892,"x_min":111,"x_max":810,"o":"m 810 942 l 578 739 l 418 739 l 611 942 l 810 942 m 369 674 l 683 674 q 793 564 793 674 l 793 0 l 614 0 l 614 549 q 606 583 614 575 q 571 592 597 592 l 340 592 q 292 546 292 592 l 292 503 l 290 503 l 290 0 l 111 0 l 111 674 l 290 674 l 290 626 q 369 674 307 674 z "},"Ņ":{"ha":1011,"x_min":122,"x_max":889,"o":"m 718 864 l 889 864 l 889 0 l 719 0 l 293 674 l 293 0 l 122 0 l 122 864 l 297 864 l 718 193 l 718 864 m 415 -332 l 415 -68 l 603 -68 l 603 -144 l 475 -332 l 415 -332 z "},"ņ":{"ha":892,"x_min":111,"x_max":793,"o":"m 360 -332 l 360 -68 l 547 -68 l 547 -144 l 419 -332 l 360 -332 m 369 674 l 683 674 q 793 564 793 674 l 793 0 l 614 0 l 614 549 q 606 583 614 575 q 571 592 597 592 l 340 592 q 292 546 292 592 l 292 503 l 290 503 l 290 0 l 111 0 l 111 674 l 290 674 l 290 626 q 369 674 307 674 z "},"Ň":{"ha":1011,"x_min":122,"x_max":889,"o":"m 422 929 l 183 1136 l 371 1136 l 515 1003 l 658 1136 l 846 1136 l 607 929 l 422 929 m 718 864 l 889 864 l 889 0 l 719 0 l 293 674 l 293 0 l 122 0 l 122 864 l 297 864 l 718 193 l 718 864 z "},"ň":{"ha":892,"x_min":111,"x_max":793,"o":"m 553 739 l 368 739 l 129 946 l 317 946 l 461 813 l 604 946 l 792 946 l 553 739 m 369 674 l 683 674 q 793 564 793 674 l 793 0 l 614 0 l 614 549 q 606 583 614 575 q 571 592 597 592 l 340 592 q 292 546 292 592 l 292 503 l 290 503 l 290 0 l 111 0 l 111 674 l 290 674 l 290 626 q 369 674 307 674 z "},"Ō":{"ha":949,"x_min":110,"x_max":838,"o":"m 196 931 l 196 1011 l 756 1011 l 756 931 l 196 931 m 838 754 l 838 110 q 728 0 838 0 l 219 0 q 110 110 110 0 l 110 754 q 219 864 110 864 l 728 864 q 838 754 838 864 m 653 125 l 653 739 q 644 774 653 767 q 610 782 636 782 l 339 782 q 303 774 311 782 q 296 739 296 767 l 296 125 q 303 90 296 97 q 339 82 311 82 l 610 82 q 644 90 636 82 q 653 125 653 97 z "},"ō":{"ha":883,"x_min":100,"x_max":785,"o":"m 718 824 l 718 743 l 158 743 l 158 824 l 718 824 m 607 125 l 607 549 q 599 583 607 575 q 564 592 592 592 l 321 592 q 286 583 294 592 q 278 549 278 575 l 278 125 q 286 90 278 97 q 321 82 294 82 l 564 82 q 599 90 592 82 q 607 125 607 97 m 210 674 l 675 674 q 785 564 785 674 l 785 110 q 675 0 785 0 l 210 0 q 100 110 100 0 l 100 564 q 210 674 100 674 z "},"Ő":{"ha":939,"x_min":110,"x_max":964,"o":"m 219 864 l 728 864 q 838 754 838 864 l 838 110 q 728 0 838 0 l 219 0 q 110 110 110 0 l 110 754 q 219 864 110 864 m 653 739 q 644 774 653 767 q 610 782 636 782 l 339 782 q 303 774 311 782 q 296 739 296 767 l 296 125 q 303 90 296 97 q 339 82 311 82 l 610 82 q 644 90 636 82 q 653 125 653 97 l 653 739 m 468 1153 l 650 1153 l 408 929 l 265 929 l 468 1153 m 782 1153 l 964 1153 l 718 929 l 576 929 l 782 1153 z "},"ő":{"ha":883,"x_min":99,"x_max":925,"o":"m 208 674 l 675 674 q 785 564 785 674 l 785 110 q 675 0 785 0 l 208 0 q 99 110 99 0 l 99 564 q 208 674 99 674 m 607 549 q 599 583 607 575 q 564 592 592 592 l 321 592 q 286 583 294 592 q 278 549 278 575 l 278 125 q 286 90 278 97 q 321 82 294 82 l 564 82 q 599 90 592 82 q 607 125 607 97 l 607 549 m 431 963 l 611 963 l 371 739 l 228 739 l 431 963 m 744 963 l 925 963 l 681 739 l 538 739 l 744 963 z "},"Œ":{"ha":1347,"x_min":111,"x_max":1276,"o":"m 660 125 l 660 739 q 652 774 660 767 q 617 782 644 782 l 340 782 q 306 774 314 782 q 297 739 297 767 l 297 125 q 306 90 297 97 q 340 82 314 82 l 617 82 q 652 90 644 82 q 660 125 660 97 m 850 82 l 1276 82 l 1276 0 l 707 0 l 707 19 q 622 0 675 0 l 221 0 q 111 110 111 0 l 111 754 q 221 864 111 864 l 622 864 q 707 844 675 864 l 707 864 l 1260 864 l 1260 782 l 850 782 l 850 483 l 1211 483 l 1211 401 l 850 401 l 850 82 z "},"œ":{"ha":1353,"x_min":100,"x_max":1267,"o":"m 772 386 l 1092 386 l 1092 549 q 1083 583 1092 575 q 1049 592 1075 592 l 815 592 q 781 583 789 592 q 772 549 772 575 l 772 386 m 593 124 l 593 550 q 583 583 593 574 q 547 592 572 592 l 322 592 q 287 583 294 592 q 279 549 279 575 l 279 125 q 287 90 279 97 q 322 82 294 82 l 547 82 q 583 91 572 82 q 593 124 593 100 m 783 674 l 1157 674 q 1267 564 1267 674 l 1267 304 l 772 304 l 772 125 q 781 90 772 97 q 815 82 789 82 l 1046 82 q 1081 90 1072 82 q 1089 125 1089 97 l 1089 201 l 1265 201 l 1265 110 q 1156 0 1265 0 l 782 0 q 676 51 692 0 q 561 0 660 0 l 210 0 q 100 110 100 0 l 100 564 q 210 674 100 674 l 563 674 q 678 622 661 674 q 783 674 693 674 z "},"Ŕ":{"ha":969,"x_min":122,"x_max":885,"o":"m 792 1131 l 560 928 l 400 928 l 593 1131 l 792 1131 m 308 782 l 308 392 l 644 392 q 680 400 672 392 q 688 435 688 408 l 688 739 q 680 774 688 767 q 644 782 672 782 l 308 782 m 308 310 l 308 0 l 122 0 l 122 864 l 763 864 q 872 754 872 864 l 872 419 q 763 310 872 310 l 689 310 l 885 0 l 692 0 l 503 310 l 308 310 z "},"ŕ":{"ha":551,"x_min":111,"x_max":671,"o":"m 671 943 l 439 740 l 279 740 l 472 943 l 671 943 m 290 674 l 290 590 q 418 675 317 675 l 539 675 l 539 585 l 386 585 q 290 481 290 585 l 290 0 l 111 0 l 111 674 l 290 674 z "},"Ŗ":{"ha":969,"x_min":122,"x_max":885,"o":"m 390 -332 l 390 -68 l 578 -68 l 578 -144 l 450 -332 l 390 -332 m 308 782 l 308 392 l 644 392 q 680 400 672 392 q 688 435 688 408 l 688 739 q 680 774 688 767 q 644 782 672 782 l 308 782 m 308 310 l 308 0 l 122 0 l 122 864 l 763 864 q 872 754 872 864 l 872 419 q 763 310 872 310 l 689 310 l 885 0 l 692 0 l 503 310 l 308 310 z "},"ŗ":{"ha":551,"x_min":106,"x_max":539,"o":"m 106 -332 l 106 -68 l 293 -68 l 293 -144 l 165 -332 l 106 -332 m 418 675 l 539 675 l 539 585 l 386 585 q 290 481 290 585 l 290 0 l 111 0 l 111 674 l 290 674 l 290 590 q 418 675 317 675 z "},"Ř":{"ha":969,"x_min":122,"x_max":885,"o":"m 582 926 l 397 926 l 158 1133 l 346 1133 l 490 1000 l 633 1133 l 821 1133 l 582 926 m 308 782 l 308 392 l 644 392 q 680 400 672 392 q 688 435 688 408 l 688 739 q 680 774 688 767 q 644 782 672 782 l 308 782 m 308 310 l 308 0 l 122 0 l 122 864 l 763 864 q 872 754 872 864 l 872 419 q 763 310 872 310 l 689 310 l 885 0 l 692 0 l 503 310 l 308 310 z "},"ř":{"ha":551,"x_min":1,"x_max":664,"o":"m 425 740 l 240 740 l 1 947 l 189 947 l 333 814 l 476 947 l 664 947 l 425 740 m 290 674 l 290 590 q 418 675 317 675 l 539 675 l 539 585 l 386 585 q 290 481 290 585 l 290 0 l 111 0 l 111 674 l 290 674 z "},"Ś":{"ha":917,"x_min":96,"x_max":821,"o":"m 394 928 l 588 1131 l 786 1131 l 554 928 l 394 928 m 635 125 l 635 351 q 627 386 635 378 q 592 394 619 394 l 206 394 q 96 504 96 394 l 96 754 q 206 864 96 864 l 707 864 q 817 754 817 864 l 817 606 l 629 606 l 629 739 q 622 774 629 767 q 586 782 614 782 l 326 782 q 292 774 300 782 q 283 739 283 767 l 283 519 q 292 484 283 492 q 326 476 300 476 l 711 476 q 821 367 821 476 l 821 110 q 711 0 821 0 l 210 0 q 100 110 100 0 l 100 258 l 286 258 l 286 125 q 294 90 286 97 q 329 82 303 82 l 592 82 q 627 90 619 82 q 635 125 635 97 z "},"ś":{"ha":819,"x_min":93,"x_max":751,"o":"m 360 739 l 553 942 l 751 942 l 519 739 l 360 739 m 558 124 l 558 251 q 550 286 558 278 q 515 294 542 294 l 203 294 q 93 404 93 294 l 93 564 q 203 674 93 674 l 621 674 q 731 564 731 674 l 731 479 l 556 479 l 556 550 q 547 585 556 578 q 513 593 539 593 l 315 593 q 281 585 289 593 q 272 550 272 578 l 272 419 q 281 384 272 392 q 315 376 289 376 l 626 376 q 736 267 736 376 l 736 110 q 626 0 736 0 l 207 0 q 97 110 97 0 l 97 194 l 272 194 l 272 124 q 281 89 272 97 q 315 81 289 81 l 515 81 q 550 89 542 81 q 558 124 558 97 z "},"Ş":{"ha":917,"x_min":96,"x_max":821,"o":"m 635 125 l 635 351 q 627 386 635 378 q 592 394 619 394 l 206 394 q 96 504 96 394 l 96 754 q 206 864 96 864 l 707 864 q 817 754 817 864 l 817 606 l 629 606 l 629 739 q 622 774 629 767 q 586 782 614 782 l 326 782 q 292 774 300 782 q 283 739 283 767 l 283 519 q 292 484 283 492 q 326 476 300 476 l 711 476 q 821 367 821 476 l 821 110 q 711 0 821 0 l 210 0 q 100 110 100 0 l 100 258 l 286 258 l 286 125 q 294 90 286 97 q 329 82 303 82 l 592 82 q 627 90 619 82 q 635 125 635 97 m 360 -332 l 360 -68 l 547 -68 l 547 -144 l 419 -332 l 360 -332 z "},"ş":{"ha":819,"x_min":93,"x_max":736,"o":"m 558 124 l 558 251 q 550 286 558 278 q 515 294 542 294 l 203 294 q 93 404 93 294 l 93 564 q 203 674 93 674 l 621 674 q 731 564 731 674 l 731 479 l 556 479 l 556 550 q 547 585 556 578 q 513 593 539 593 l 315 593 q 281 585 289 593 q 272 550 272 578 l 272 419 q 281 384 272 392 q 315 376 289 376 l 626 376 q 736 267 736 376 l 736 110 q 626 0 736 0 l 207 0 q 97 110 97 0 l 97 194 l 272 194 l 272 124 q 281 89 272 97 q 315 81 289 81 l 515 81 q 550 89 542 81 q 558 124 558 97 m 315 -332 l 315 -68 l 503 -68 l 503 -144 l 375 -332 l 315 -332 z "},"Š":{"ha":917,"x_min":96,"x_max":821,"o":"m 372 926 l 133 1133 l 321 1133 l 465 1000 l 608 1133 l 796 1133 l 557 926 l 372 926 m 635 125 l 635 351 q 627 386 635 378 q 592 394 619 394 l 206 394 q 96 504 96 394 l 96 754 q 206 864 96 864 l 707 864 q 817 754 817 864 l 817 606 l 629 606 l 629 739 q 622 774 629 767 q 586 782 614 782 l 326 782 q 292 774 300 782 q 283 739 283 767 l 283 519 q 292 484 283 492 q 326 476 300 476 l 711 476 q 821 367 821 476 l 821 110 q 711 0 821 0 l 210 0 q 100 110 100 0 l 100 258 l 286 258 l 286 125 q 294 90 286 97 q 329 82 303 82 l 592 82 q 627 90 619 82 q 635 125 635 97 z "},"š":{"ha":819,"x_min":90,"x_max":753,"o":"m 329 739 l 90 946 l 278 946 l 422 813 l 565 946 l 753 946 l 514 739 l 329 739 m 558 124 l 558 251 q 550 286 558 278 q 515 294 542 294 l 203 294 q 93 404 93 294 l 93 564 q 203 674 93 674 l 621 674 q 731 564 731 674 l 731 479 l 556 479 l 556 550 q 547 585 556 578 q 513 593 539 593 l 315 593 q 281 585 289 593 q 272 550 272 578 l 272 419 q 281 384 272 392 q 315 376 289 376 l 626 376 q 736 267 736 376 l 736 110 q 626 0 736 0 l 207 0 q 97 110 97 0 l 97 194 l 272 194 l 272 124 q 281 89 272 97 q 315 81 289 81 l 515 81 q 550 89 542 81 q 558 124 558 97 z "},"Ţ":{"ha":801,"x_min":14,"x_max":790,"o":"m 303 -332 l 303 -68 l 490 -68 l 490 -144 l 363 -332 l 303 -332 m 790 864 l 790 782 l 494 782 l 494 0 l 308 0 l 308 782 l 14 782 l 14 864 l 790 864 z "},"ţ":{"ha":801,"x_min":14,"x_max":790,"o":"m 304 -332 l 304 -68 l 492 -68 l 492 -144 l 364 -332 l 304 -332 m 790 864 l 790 782 l 494 782 l 494 0 l 308 0 l 308 782 l 14 782 l 14 864 l 790 864 z "},"Ť":{"ha":801,"x_min":14,"x_max":790,"o":"m 494 926 l 310 926 l 71 1133 l 258 1133 l 403 1000 l 546 1133 l 733 1133 l 494 926 m 790 864 l 790 782 l 494 782 l 494 0 l 308 0 l 308 782 l 14 782 l 14 864 l 790 864 z "},"ť":{"ha":532,"x_min":43,"x_max":571,"o":"m 331 807 l 331 674 l 486 674 l 486 592 l 331 592 l 331 131 q 339 95 331 103 q 374 88 347 88 l 485 88 l 485 0 l 261 0 q 151 110 151 0 l 151 592 l 43 592 l 43 674 l 151 674 l 151 807 l 331 807 m 411 1010 l 571 1010 l 571 938 l 465 768 l 411 768 l 411 1010 z "},"Ū":{"ha":969,"x_min":111,"x_max":857,"o":"m 297 864 l 297 125 q 306 90 297 97 q 340 82 314 82 l 629 82 q 664 90 656 82 q 672 125 672 97 l 672 864 l 857 864 l 857 110 q 747 0 857 0 l 221 0 q 111 110 111 0 l 111 864 l 297 864 m 203 929 l 203 1010 l 763 1010 l 763 929 l 203 929 z "},"ū":{"ha":892,"x_min":100,"x_max":781,"o":"m 718 825 l 718 744 l 158 744 l 158 825 l 718 825 m 601 674 l 781 674 l 781 0 l 601 0 l 601 43 q 524 0 585 0 l 210 0 q 100 110 100 0 l 100 674 l 279 674 l 279 125 q 287 90 279 97 q 322 82 294 82 l 553 82 q 590 92 579 82 q 601 128 601 103 l 601 674 z "},"Ů":{"ha":969,"x_min":111,"x_max":857,"o":"m 725 1078 l 725 1026 q 628 931 725 931 l 353 931 q 257 1026 257 931 l 257 1078 q 353 1175 257 1175 l 628 1175 q 725 1078 725 1175 m 606 1040 l 606 1064 q 599 1097 606 1089 q 565 1104 592 1104 l 417 1104 q 383 1097 390 1104 q 376 1064 376 1089 l 376 1040 q 383 1008 376 1015 q 417 1000 390 1000 l 565 1000 q 599 1008 592 1000 q 606 1040 606 1015 m 297 864 l 297 125 q 306 90 297 97 q 340 82 314 82 l 629 82 q 664 90 656 82 q 672 125 672 97 l 672 864 l 857 864 l 857 110 q 747 0 857 0 l 221 0 q 111 110 111 0 l 111 864 l 297 864 z "},"ů":{"ha":892,"x_min":100,"x_max":781,"o":"m 325 872 l 325 849 q 332 816 325 824 q 365 808 339 808 l 514 808 q 547 816 540 808 q 554 849 554 824 l 554 872 q 547 905 554 897 q 514 913 540 913 l 365 913 q 332 905 339 913 q 325 872 325 897 m 576 739 l 301 739 q 206 835 206 739 l 206 886 q 301 983 206 983 l 576 983 q 674 886 674 983 l 674 835 q 576 739 674 739 m 601 674 l 781 674 l 781 0 l 601 0 l 601 43 q 524 0 585 0 l 210 0 q 100 110 100 0 l 100 674 l 279 674 l 279 125 q 287 90 279 97 q 322 82 294 82 l 553 82 q 590 92 579 82 q 601 128 601 103 l 601 674 z "},"Ű":{"ha":957,"x_min":111,"x_max":960,"o":"m 297 864 l 297 125 q 306 90 297 97 q 340 82 314 82 l 629 82 q 664 90 656 82 q 672 125 672 97 l 672 864 l 857 864 l 857 110 q 747 0 857 0 l 221 0 q 111 110 111 0 l 111 864 l 297 864 m 779 1150 l 960 1150 l 715 926 l 572 926 l 779 1150 m 465 1150 l 646 1150 l 406 926 l 263 926 l 465 1150 z "},"ű":{"ha":892,"x_min":99,"x_max":913,"o":"m 668 740 l 525 740 l 732 964 l 913 964 l 668 740 m 599 964 l 358 740 l 215 740 l 418 964 l 599 964 m 601 674 l 781 674 l 781 0 l 601 0 l 601 43 q 524 0 585 0 l 208 0 q 99 110 99 0 l 99 674 l 278 674 l 278 125 q 286 90 278 97 q 321 82 294 82 l 553 82 q 601 128 601 82 l 601 674 z "},"Ų":{"ha":969,"x_min":111,"x_max":857,"o":"m 672 864 l 857 864 l 857 110 q 747 0 857 0 l 569 0 l 569 -124 l 374 -124 q 338 -132 346 -124 q 329 -167 329 -140 l 329 -211 q 338 -246 329 -237 q 374 -254 346 -254 l 600 -254 l 600 -331 l 303 -331 q 193 -221 193 -331 l 193 -158 q 303 -49 193 -49 l 393 -49 l 393 0 l 221 0 q 111 110 111 0 l 111 864 l 297 864 l 297 125 q 306 90 297 97 q 340 82 314 82 l 629 82 q 664 90 656 82 q 672 125 672 97 l 672 864 z "},"ų":{"ha":892,"x_min":100,"x_max":808,"o":"m 582 -254 l 808 -254 l 808 -331 l 511 -331 q 401 -221 401 -331 l 401 -158 q 511 -49 401 -49 l 601 -49 l 601 43 q 524 0 585 0 l 210 0 q 100 110 100 0 l 100 674 l 279 674 l 279 125 q 287 90 279 97 q 322 82 294 82 l 553 82 q 590 92 579 82 q 601 128 601 103 l 601 674 l 781 674 l 781 0 l 778 0 l 778 -124 l 582 -124 q 546 -132 554 -124 q 538 -167 538 -140 l 538 -211 q 546 -246 538 -237 q 582 -254 554 -254 z "},"Ÿ":{"ha":917,"x_min":10,"x_max":907,"o":"m 382 1067 l 382 929 l 165 929 l 165 1067 l 382 1067 m 765 1067 l 765 929 l 550 929 l 550 1067 l 765 1067 m 560 0 l 374 0 l 374 282 l 10 864 l 196 864 l 465 401 l 722 864 l 907 864 l 560 283 l 560 0 z "},"Ź":{"ha":882,"x_min":71,"x_max":811,"o":"m 776 1132 l 544 929 l 385 929 l 578 1132 l 776 1132 m 811 864 l 811 782 l 282 82 l 797 82 l 797 0 l 71 0 l 71 82 l 599 782 l 88 782 l 88 864 l 811 864 z "},"ź":{"ha":724,"x_min":65,"x_max":710,"o":"m 710 943 l 478 740 l 318 740 l 511 943 l 710 943 m 657 82 l 657 0 l 65 0 l 65 82 l 460 592 l 85 592 l 85 674 l 651 674 l 651 592 l 256 82 l 657 82 z "},"Ż":{"ha":882,"x_min":71,"x_max":811,"o":"m 565 1075 l 565 929 l 365 929 l 365 1075 l 565 1075 m 811 864 l 811 782 l 282 82 l 797 82 l 797 0 l 71 0 l 71 82 l 599 782 l 88 782 l 88 864 l 811 864 z "},"ż":{"ha":724,"x_min":65,"x_max":657,"o":"m 481 885 l 481 739 l 281 739 l 281 885 l 481 885 m 657 82 l 657 0 l 65 0 l 65 82 l 460 592 l 85 592 l 85 674 l 651 674 l 651 592 l 256 82 l 657 82 z "},"Ž":{"ha":882,"x_min":71,"x_max":811,"o":"m 549 929 l 364 929 l 125 1136 l 313 1136 l 457 1003 l 600 1136 l 788 1136 l 549 929 m 811 864 l 811 782 l 282 82 l 797 82 l 797 0 l 71 0 l 71 82 l 599 782 l 88 782 l 88 864 l 811 864 z "},"ž":{"ha":724,"x_min":44,"x_max":707,"o":"m 468 739 l 283 739 l 44 946 l 232 946 l 376 813 l 519 946 l 707 946 l 468 739 m 657 82 l 657 0 l 65 0 l 65 82 l 460 592 l 85 592 l 85 674 l 651 674 l 651 592 l 256 82 l 657 82 z "},"ƒ":{"ha":689,"x_min":35,"x_max":647,"o":"m 647 832 l 554 832 q 514 822 525 832 q 499 782 503 813 l 482 674 l 636 674 l 636 592 l 469 592 l 367 -67 q 318 -165 356 -133 q 194 -196 281 -196 l 35 -196 l 35 -110 l 126 -110 q 167 -99 156 -110 q 183 -58 178 -89 l 285 592 l 151 592 l 151 674 l 297 674 l 315 789 q 363 888 325 856 q 486 919 400 919 l 647 919 l 647 832 z "},"Ș":{"ha":917,"x_min":96,"x_max":821,"o":"m 635 125 l 635 351 q 627 386 635 378 q 592 394 619 394 l 206 394 q 96 504 96 394 l 96 754 q 206 864 96 864 l 707 864 q 817 754 817 864 l 817 606 l 629 606 l 629 739 q 622 774 629 767 q 586 782 614 782 l 326 782 q 292 774 300 782 q 283 739 283 767 l 283 519 q 292 484 283 492 q 326 476 300 476 l 711 476 q 821 367 821 476 l 821 110 q 711 0 821 0 l 210 0 q 100 110 100 0 l 100 258 l 286 258 l 286 125 q 294 90 286 97 q 329 82 303 82 l 592 82 q 627 90 619 82 q 635 125 635 97 m 360 -332 l 360 -68 l 547 -68 l 547 -144 l 419 -332 l 360 -332 z "},"ș":{"ha":819,"x_min":93,"x_max":736,"o":"m 558 124 l 558 251 q 550 286 558 278 q 515 294 542 294 l 203 294 q 93 404 93 294 l 93 564 q 203 674 93 674 l 621 674 q 731 564 731 674 l 731 479 l 556 479 l 556 550 q 547 585 556 578 q 513 593 539 593 l 315 593 q 281 585 289 593 q 272 550 272 578 l 272 419 q 281 384 272 392 q 315 376 289 376 l 626 376 q 736 267 736 376 l 736 110 q 626 0 736 0 l 207 0 q 97 110 97 0 l 97 194 l 272 194 l 272 124 q 281 89 272 97 q 315 81 289 81 l 515 81 q 550 89 542 81 q 558 124 558 97 m 313 -332 l 313 -68 l 500 -68 l 500 -144 l 372 -332 l 313 -332 z "},"Ț":{"ha":801,"x_min":14,"x_max":790,"o":"m 308 -332 l 308 -68 l 496 -68 l 496 -144 l 368 -332 l 308 -332 m 14 864 l 790 864 l 790 782 l 494 782 l 494 0 l 308 0 l 308 782 l 14 782 l 14 864 z "},"ț":{"ha":532,"x_min":43,"x_max":488,"o":"m 164 -332 l 164 -68 l 351 -68 l 351 -144 l 224 -332 l 164 -332 m 488 592 l 331 592 l 331 131 q 339 95 331 103 q 374 88 347 88 l 486 88 l 486 0 l 261 0 q 151 110 151 0 l 151 592 l 43 592 l 43 674 l 151 674 l 151 807 l 331 807 l 331 674 l 488 674 l 488 592 z "},"ˆ":{"ha":874,"x_min":106,"x_max":768,"o":"m 106 703 l 344 910 l 529 910 l 768 703 l 581 703 l 438 836 l 293 703 l 106 703 z "},"ˇ":{"ha":874,"x_min":106,"x_max":768,"o":"m 344 699 l 106 906 l 293 906 l 438 772 l 581 906 l 768 906 l 529 699 l 344 699 z "},"ˉ":{"ha":706,"x_min":113,"x_max":593,"o":"m 113 764 l 113 844 l 593 844 l 593 764 l 113 764 z "},"˘":{"ha":874,"x_min":131,"x_max":742,"o":"m 581 901 l 742 901 l 742 817 q 632 707 742 707 l 240 707 q 131 817 131 707 l 131 901 l 292 901 l 292 829 q 300 794 292 803 q 335 786 308 786 l 538 786 q 572 794 564 786 q 581 829 581 803 l 581 901 z "},"˙":{"ha":874,"x_min":339,"x_max":539,"o":"m 339 735 l 339 881 l 539 881 l 539 735 l 339 735 z "},"˚":{"ha":874,"x_min":203,"x_max":671,"o":"m 671 846 l 671 794 q 574 699 671 699 l 299 699 q 203 794 203 699 l 203 846 q 299 943 203 943 l 574 943 q 671 846 671 943 m 551 808 l 551 832 q 544 865 551 857 q 511 872 538 872 l 363 872 q 329 865 336 872 q 322 832 322 857 l 322 808 q 329 776 322 783 q 363 768 336 768 l 511 768 q 544 776 538 768 q 551 808 551 783 z "},"˛":{"ha":874,"x_min":233,"x_max":640,"o":"m 414 -254 l 640 -254 l 640 -331 l 343 -331 q 233 -221 233 -331 l 233 -158 q 343 -49 233 -49 l 433 -49 l 433 17 l 610 17 l 610 -124 l 414 -124 q 378 -132 386 -124 q 369 -167 369 -140 l 369 -211 q 378 -246 369 -237 q 414 -254 386 -254 z "},"˜":{"ha":874,"x_min":122,"x_max":751,"o":"m 597 721 q 435 775 547 721 q 297 829 322 829 q 271 799 271 829 l 271 721 l 122 721 l 122 806 q 226 913 122 913 l 274 913 q 438 859 324 913 q 578 806 551 806 q 604 836 604 806 l 604 913 l 751 913 l 751 828 q 650 721 751 721 l 597 721 z "},"˝":{"ha":874,"x_min":124,"x_max":822,"o":"m 642 926 l 822 926 l 576 703 l 435 703 l 642 926 m 328 926 l 508 926 l 267 703 l 124 703 l 328 926 z "},"π":{"ha":1168,"x_min":88,"x_max":1101,"o":"m 1101 674 l 1101 592 l 940 592 l 940 0 l 763 0 l 763 592 l 415 592 l 415 110 q 306 0 415 0 l 93 0 l 93 88 l 193 88 q 228 95 219 88 q 236 131 236 103 l 236 592 l 88 592 l 88 674 l 1101 674 z "},"ँ":{"ha":0,"x_min":-537,"x_max":188,"o":"m -431 951 q -512 978 -487 951 q -537 1060 -537 1004 l -537 1183 l -372 1183 l -372 1078 q -364 1042 -372 1050 q -328 1033 -356 1033 l -21 1033 q 14 1042 6 1033 q 22 1078 22 1050 l 22 1183 l 188 1183 l 188 1060 q 83 951 188 951 l -431 951 m -243 1119 l -243 1251 l -107 1251 l -107 1119 l -243 1119 z "},"ं":{"ha":0,"x_min":-353,"x_max":-162,"o":"m -353 954 l -353 1106 l -162 1106 l -162 954 l -353 954 z "},"ः":{"ha":558,"x_min":217,"x_max":403,"o":"m 217 594 l 217 761 l 403 761 l 403 594 l 217 594 m 217 132 l 217 299 l 403 299 l 403 132 l 217 132 z "},"अ":{"ha":1488,"x_min":114,"x_max":1515,"o":"m 1515 864 l 1515 782 l 1326 782 l 1326 0 l 1135 0 l 1135 411 l 872 411 l 872 217 q 765 108 872 108 l 222 108 q 114 217 114 108 l 114 351 l 306 351 l 306 235 q 314 199 306 208 q 350 190 322 190 l 636 190 q 672 199 664 190 q 681 235 681 208 l 681 396 q 671 433 681 422 q 633 443 661 443 l 428 443 l 428 525 l 633 525 q 671 535 661 525 q 681 572 681 544 l 681 738 q 672 773 681 764 q 636 782 664 782 l 350 782 q 314 773 322 782 q 306 738 306 764 l 306 621 l 114 621 l 114 756 q 222 864 114 864 l 765 864 q 872 756 872 864 l 872 576 q 801 499 872 500 l 801 493 l 1135 493 l 1135 864 l 1515 864 z "},"आ":{"ha":1982,"x_min":114,"x_max":2008,"o":"m 2008 864 l 2008 782 l 1819 782 l 1819 0 l 1628 0 l 1628 782 l 1326 782 l 1326 0 l 1135 0 l 1135 411 l 872 411 l 872 217 q 765 108 872 108 l 222 108 q 114 217 114 108 l 114 351 l 306 351 l 306 235 q 314 199 306 208 q 350 190 322 190 l 636 190 q 672 199 664 190 q 681 235 681 208 l 681 396 q 671 433 681 422 q 633 443 661 443 l 428 443 l 428 525 l 633 525 q 671 535 661 525 q 681 572 681 544 l 681 738 q 672 773 681 764 q 636 782 664 782 l 350 782 q 314 773 322 782 q 306 738 306 764 l 306 621 l 114 621 l 114 756 q 222 864 114 864 l 765 864 q 872 756 872 864 l 872 576 q 801 499 872 500 l 801 493 l 1135 493 l 1135 864 l 2008 864 z "},"इ":{"ha":1038,"x_min":-28,"x_max":1065,"o":"m 903 592 l 361 592 q 325 583 333 592 q 317 547 317 575 l 317 494 q 325 458 317 467 q 361 450 333 450 l 810 450 q 918 342 918 450 l 918 217 q 810 108 918 108 l 329 108 l 329 0 l 132 0 l 132 264 l 329 264 l 329 190 l 682 190 q 717 199 708 190 q 726 235 726 208 l 726 324 q 717 359 726 350 q 682 368 708 368 l 233 368 q 126 476 126 368 l 126 565 q 233 674 126 674 l 711 674 l 711 782 l -28 782 l -28 864 l 1065 864 l 1065 782 l 903 782 l 903 592 z "},"ई":{"ha":1039,"x_min":-26,"x_max":1067,"o":"m 904 592 l 363 592 q 327 583 336 592 q 318 547 318 575 l 318 494 q 327 458 318 467 q 363 450 336 450 l 811 450 q 919 342 919 450 l 919 217 q 811 108 919 108 l 331 108 l 331 0 l 133 0 l 133 264 l 331 264 l 331 190 l 683 190 q 719 199 711 190 q 728 235 728 208 l 728 324 q 719 359 728 350 q 683 368 711 368 l 235 368 q 128 476 128 368 l 128 565 q 235 674 128 674 l 713 674 l 713 782 l -26 782 l -26 864 l 660 864 l 660 1042 q 768 1149 660 1149 l 1035 1149 l 1035 1067 l 896 1067 q 860 1058 869 1067 q 851 1024 851 1050 l 851 864 l 1067 864 l 1067 782 l 904 782 l 904 592 z "},"उ":{"ha":1000,"x_min":-28,"x_max":1028,"o":"m 1028 864 l 1028 782 l 822 782 q 839 739 839 772 l 839 554 q 768 475 839 479 l 768 471 q 839 393 839 469 l 839 108 q 731 0 839 0 l 197 0 q 90 108 90 0 l 90 286 l 282 286 l 282 126 q 290 90 282 99 q 325 82 299 82 l 603 82 q 639 91 631 82 q 647 126 647 100 l 647 386 q 639 422 647 414 q 603 431 631 431 l 418 431 l 418 513 l 603 513 q 638 522 629 513 q 647 558 647 531 l 647 738 q 639 773 647 764 q 603 782 631 782 l -28 782 l -28 864 l 1028 864 z "},"ऊ":{"ha":1471,"x_min":-26,"x_max":1499,"o":"m 1499 864 l 1499 782 l 828 782 q 844 739 844 772 l 844 556 q 774 476 844 481 l 774 472 q 789 471 785 472 l 1279 471 q 1386 363 1386 471 l 1386 108 q 1279 0 1386 0 l 908 0 l 908 82 l 1151 82 q 1186 90 1178 82 q 1194 126 1194 99 l 1194 344 q 1186 381 1194 372 q 1151 389 1178 389 l 844 389 l 844 108 q 736 0 844 0 l 203 0 q 94 108 94 0 l 94 286 l 286 286 l 286 126 q 294 91 286 100 q 331 82 303 82 l 608 82 q 644 91 636 82 q 653 126 653 100 l 653 386 q 644 422 653 414 q 608 431 636 431 l 424 431 l 424 513 l 608 513 q 644 522 635 513 q 653 558 653 531 l 653 738 q 644 773 653 764 q 608 782 636 782 l -26 782 l -26 864 l 1499 864 z "},"ऋ":{"ha":1874,"x_min":-28,"x_max":1901,"o":"m 1260 546 l 1260 406 q 1299 360 1260 360 l 1536 360 q 1565 370 1557 360 q 1574 406 1574 381 l 1574 546 q 1565 582 1574 572 q 1531 592 1557 592 l 1303 592 q 1268 582 1276 592 q 1260 546 1260 572 m 906 782 l 906 360 l 1094 360 q 1072 440 1072 378 l 1072 567 q 1181 674 1072 674 l 1647 674 q 1756 567 1756 674 l 1756 436 q 1743 360 1756 383 q 1701 332 1731 338 l 1701 326 q 1742 302 1729 319 q 1756 243 1756 285 l 1756 107 q 1647 0 1756 0 l 1175 0 q 1076 107 1076 0 l 1076 189 l 1264 189 l 1264 124 q 1273 90 1264 99 q 1307 82 1282 82 l 1531 82 q 1565 92 1557 82 q 1572 128 1572 101 l 1572 236 q 1564 269 1572 261 q 1529 276 1556 276 l 906 276 l 906 0 l 715 0 l 715 276 l 622 276 l 314 0 l 82 0 l 447 326 l 278 513 q 191 574 235 558 q 89 589 147 589 l 57 589 l 57 674 l 183 674 q 328 656 275 674 q 438 578 382 638 l 635 360 l 715 360 l 715 782 l -28 782 l -28 864 l 1901 864 l 1901 782 l 906 782 z "},"ऌ":{"ha":1569,"x_min":-28,"x_max":1597,"o":"m 1410 47 l 1090 47 q 1053 37 1064 47 q 1043 1 1043 26 l 1043 -119 q 1053 -155 1043 -144 q 1090 -165 1064 -165 l 1450 -165 l 1450 -247 l 961 -247 q 881 -223 906 -247 q 857 -143 857 -199 l 857 25 q 881 105 857 81 q 961 129 906 129 l 1218 129 l 1218 592 l 913 592 q 877 583 886 592 q 868 547 868 575 l 868 263 l 678 263 l 678 547 q 669 583 678 574 q 632 592 660 592 l 374 592 q 338 583 347 592 q 329 547 329 575 l 329 126 q 338 91 329 100 q 374 82 347 82 l 656 82 l 656 0 l 246 0 q 138 108 138 0 l 138 565 q 246 674 138 674 l 685 674 q 747 659 728 674 q 771 611 767 644 l 776 611 q 851 674 785 674 l 1218 674 l 1218 782 l -28 782 l -28 864 l 1597 864 l 1597 782 l 1410 782 l 1410 47 z "},"ऍ":{"ha":1089,"x_min":-28,"x_max":1117,"o":"m 817 951 l 301 951 q 193 1058 193 951 l 193 1183 l 375 1183 l 375 1078 q 383 1042 375 1050 q 419 1033 392 1033 l 697 1033 q 733 1042 725 1033 q 742 1078 742 1050 l 742 1183 l 924 1183 l 924 1058 q 817 951 924 951 m 1117 864 l 1117 782 l 954 782 l 954 503 q 846 394 954 394 l 551 394 l 551 476 l 718 476 q 755 485 746 476 q 764 521 764 494 l 764 782 l 353 782 l 353 126 q 361 91 353 100 q 397 82 369 82 l 711 82 q 747 91 739 82 q 756 126 756 100 l 756 272 l 947 272 l 947 108 q 839 0 947 0 l 269 0 q 161 108 161 0 l 161 782 l -28 782 l -28 864 l 1117 864 z "},"ऎ":{"ha":1089,"x_min":-28,"x_max":1117,"o":"m 1117 864 l 1117 782 l 954 782 l 954 503 q 846 394 954 394 l 551 394 l 551 476 l 718 476 q 755 485 746 476 q 764 521 764 494 l 764 782 l 353 782 l 353 126 q 361 91 353 100 q 397 82 369 82 l 711 82 q 747 91 739 82 q 756 126 756 100 l 756 272 l 947 272 l 947 108 q 839 0 947 0 l 269 0 q 161 108 161 0 l 161 782 l -28 782 l -28 864 l 764 864 l 764 906 q 755 941 764 932 q 719 950 746 950 l 338 950 q 231 1057 231 950 l 231 1144 l 421 1144 l 421 1076 q 430 1041 421 1050 q 467 1032 439 1032 l 847 1032 q 956 924 956 1032 l 956 864 l 1117 864 z "},"ए":{"ha":1089,"x_min":-28,"x_max":1117,"o":"m 1117 864 l 1117 782 l 954 782 l 954 503 q 846 394 954 394 l 551 394 l 551 476 l 718 476 q 755 485 746 476 q 764 521 764 494 l 764 782 l 353 782 l 353 126 q 361 91 353 100 q 397 82 369 82 l 711 82 q 747 91 739 82 q 756 126 756 100 l 756 272 l 947 272 l 947 108 q 839 0 947 0 l 269 0 q 161 108 161 0 l 161 782 l -28 782 l -28 864 l 1117 864 z "},"ऐ":{"ha":1089,"x_min":-28,"x_max":1117,"o":"m 1117 864 l 1117 782 l 954 782 l 954 503 q 846 394 954 394 l 551 394 l 551 476 l 718 476 q 755 485 746 476 q 764 521 764 494 l 764 782 l 353 782 l 353 126 q 361 91 353 100 q 397 82 369 82 l 711 82 q 747 91 739 82 q 756 126 756 100 l 756 272 l 947 272 l 947 108 q 839 0 947 0 l 269 0 q 161 108 161 0 l 161 782 l -28 782 l -28 864 l 765 864 q 621 1004 694 918 l 499 1149 l 710 1149 l 950 864 l 1117 864 z "},"ऑ":{"ha":1972,"x_min":114,"x_max":1999,"o":"m 1733 951 l 1218 951 q 1110 1058 1110 951 l 1110 1183 l 1292 1183 l 1292 1078 q 1300 1042 1292 1050 q 1336 1033 1308 1033 l 1614 1033 q 1650 1042 1642 1033 q 1658 1078 1658 1050 l 1658 1183 l 1840 1183 l 1840 1058 q 1733 951 1840 951 m 1999 864 l 1999 782 l 1810 782 l 1810 0 l 1618 0 l 1618 782 l 1326 782 l 1326 0 l 1135 0 l 1135 411 l 872 411 l 872 217 q 765 108 872 108 l 222 108 q 114 217 114 108 l 114 351 l 306 351 l 306 235 q 314 199 306 208 q 350 190 322 190 l 636 190 q 672 199 664 190 q 681 235 681 208 l 681 396 q 671 433 681 422 q 633 443 661 443 l 428 443 l 428 525 l 633 525 q 671 535 661 525 q 681 572 681 544 l 681 738 q 672 773 681 764 q 636 782 664 782 l 350 782 q 314 773 322 782 q 306 738 306 764 l 306 621 l 114 621 l 114 756 q 222 864 114 864 l 765 864 q 872 756 872 864 l 872 576 q 801 499 872 500 l 801 493 l 1135 493 l 1135 864 l 1999 864 z "},"ऒ":{"ha":1972,"x_min":114,"x_max":1999,"o":"m 1999 864 l 1999 782 l 1810 782 l 1810 0 l 1618 0 l 1618 782 l 1326 782 l 1326 0 l 1135 0 l 1135 411 l 872 411 l 872 217 q 765 108 872 108 l 222 108 q 114 217 114 108 l 114 351 l 306 351 l 306 235 q 314 199 306 208 q 350 190 322 190 l 636 190 q 672 199 664 190 q 681 235 681 208 l 681 396 q 671 433 681 422 q 633 443 661 443 l 428 443 l 428 525 l 633 525 q 671 535 661 525 q 681 572 681 544 l 681 738 q 672 773 681 764 q 636 782 664 782 l 350 782 q 314 773 322 782 q 306 738 306 764 l 306 621 l 114 621 l 114 756 q 222 864 114 864 l 765 864 q 872 756 872 864 l 872 576 q 801 499 872 500 l 801 493 l 1135 493 l 1135 864 l 1618 864 l 1618 906 q 1609 941 1618 932 q 1574 950 1600 950 l 1192 950 q 1085 1057 1085 950 l 1085 1144 l 1275 1144 l 1275 1076 q 1284 1041 1275 1050 q 1321 1032 1293 1032 l 1701 1032 q 1810 924 1810 1032 l 1810 864 l 1999 864 z "},"ओ":{"ha":1972,"x_min":114,"x_max":2000,"o":"m 2000 864 l 2000 782 l 1811 782 l 1811 0 l 1619 0 l 1619 782 l 1326 782 l 1326 0 l 1135 0 l 1135 411 l 872 411 l 872 217 q 765 108 872 108 l 222 108 q 114 217 114 108 l 114 351 l 306 351 l 306 235 q 314 199 306 208 q 350 190 322 190 l 636 190 q 672 199 664 190 q 681 235 681 208 l 681 396 q 671 433 681 422 q 633 443 661 443 l 428 443 l 428 525 l 633 525 q 671 535 661 525 q 681 572 681 544 l 681 738 q 672 773 681 764 q 636 782 664 782 l 350 782 q 314 773 322 782 q 306 738 306 764 l 306 621 l 114 621 l 114 756 q 222 864 114 864 l 765 864 q 872 756 872 864 l 872 576 q 801 499 872 500 l 801 493 l 1135 493 l 1135 864 l 1626 864 q 1482 1004 1556 918 l 1360 1149 l 1571 1149 l 1811 864 l 2000 864 z "},"औ":{"ha":2032,"x_min":174,"x_max":2058,"o":"m 2058 864 l 2058 782 l 1869 782 l 1869 0 l 1678 0 l 1678 782 l 1386 782 l 1386 0 l 1194 0 l 1194 411 l 932 411 l 932 217 q 825 108 932 108 l 282 108 q 174 217 174 108 l 174 351 l 365 351 l 365 235 q 374 199 365 208 q 410 190 383 190 l 696 190 q 731 199 722 190 q 740 235 740 208 l 740 396 q 730 433 740 422 q 693 443 719 443 l 488 443 l 488 525 l 693 525 q 730 535 719 525 q 740 572 740 544 l 740 738 q 731 773 740 764 q 696 782 722 782 l 410 782 q 374 773 383 782 q 365 738 365 764 l 365 621 l 174 621 l 174 756 q 282 864 174 864 l 825 864 q 932 756 932 864 l 932 576 q 861 499 932 500 l 861 493 l 1194 493 l 1194 864 l 1667 864 q 1549 967 1603 914 l 1357 1149 l 1550 1149 l 1610 1079 q 1768 864 1714 960 l 1776 864 q 1690 1075 1756 904 l 1663 1149 l 1810 1149 l 1869 864 l 2058 864 z "},"क":{"ha":1507,"x_min":-28,"x_max":1535,"o":"m 1535 782 l 849 782 l 849 661 q 893 674 864 674 l 1281 674 q 1389 565 1389 674 l 1389 217 q 1281 108 1389 108 l 918 108 l 918 190 l 1153 190 q 1189 199 1181 190 q 1197 235 1197 208 l 1197 547 q 1189 583 1197 575 q 1153 592 1181 592 l 896 592 q 859 582 869 592 q 849 544 849 572 l 849 0 l 658 0 l 658 121 q 614 108 644 108 l 225 108 q 118 217 118 108 l 118 565 q 225 674 118 674 l 589 674 l 589 592 l 353 592 q 318 583 326 592 q 310 547 310 575 l 310 235 q 318 199 310 207 q 353 190 326 190 l 611 190 q 649 201 639 190 q 658 238 658 211 l 658 782 l -28 782 l -28 864 l 1535 864 l 1535 782 z "},"ख":{"ha":1901,"x_min":-28,"x_max":1929,"o":"m 1929 864 l 1929 782 l 1739 782 l 1739 0 l 1550 0 l 1550 185 q 1501 167 1538 167 l 1088 167 q 981 275 981 167 l 981 525 q 1088 632 981 632 l 1488 632 l 1488 550 l 1199 550 q 1163 542 1172 550 q 1154 506 1154 533 l 1154 292 q 1163 256 1154 265 q 1199 247 1172 247 l 1497 247 q 1538 259 1526 247 q 1550 300 1550 271 l 1550 782 l 801 782 l 801 432 q 693 325 801 325 l 329 325 l 329 126 q 338 91 329 100 q 375 82 347 82 l 913 82 l 913 0 l 244 0 q 138 108 138 0 l 138 643 l 329 643 l 329 407 l 568 407 q 603 416 594 407 q 613 451 613 425 l 613 782 l -28 782 l -28 864 l 1929 864 z "},"ग":{"ha":1528,"x_min":-28,"x_max":1556,"o":"m 326 190 l 674 190 q 709 199 700 190 q 718 235 718 208 l 718 510 l 326 510 q 291 501 300 510 q 282 465 282 492 l 282 235 q 291 199 282 208 q 326 190 300 190 m 1556 864 l 1556 782 l 1367 782 l 1367 0 l 1176 0 l 1176 782 l 908 782 l 908 217 q 801 108 908 108 l 211 108 q 104 217 104 108 l 104 483 q 211 592 104 592 l 718 592 l 718 782 l -28 782 l -28 864 l 1556 864 z "},"घ":{"ha":1233,"x_min":-28,"x_max":1261,"o":"m 881 238 l 881 782 l 375 782 q 339 773 347 782 q 331 738 331 764 l 331 569 q 339 533 331 542 q 375 525 347 525 l 625 525 l 625 443 l 375 443 q 339 434 347 443 q 331 399 331 425 l 331 235 q 339 199 331 208 q 375 190 347 190 l 833 190 q 871 201 861 190 q 881 238 881 211 m 1261 864 l 1261 782 l 1072 782 l 1072 0 l 881 0 l 881 121 q 836 108 867 108 l 247 108 q 139 217 139 108 l 139 403 q 208 481 139 476 l 208 486 q 139 563 139 489 l 139 739 q 154 782 139 771 l -28 782 l -28 864 l 1261 864 z "},"ङ":{"ha":1185,"x_min":-28,"x_max":1213,"o":"m 963 424 l 963 550 l 1103 550 l 1103 424 l 963 424 m -28 864 l 1213 864 l 1213 782 l 850 782 l 850 592 l 363 592 q 326 583 335 592 q 317 547 317 574 l 317 465 q 326 430 317 439 q 363 421 335 421 l 775 421 q 883 313 883 421 l 883 118 q 775 10 883 10 l 238 10 q 131 118 131 10 l 131 232 l 321 232 l 321 136 q 330 101 321 110 q 367 92 339 92 l 647 92 q 683 100 675 92 q 692 136 692 108 l 692 294 q 683 331 692 322 q 647 339 675 339 l 233 339 q 126 447 126 339 l 126 565 q 233 674 126 674 l 660 674 l 660 782 l -28 782 l -28 864 z "},"च":{"ha":1172,"x_min":-28,"x_max":1200,"o":"m 1200 864 l 1200 782 l 1011 782 l 1011 0 l 821 0 l 821 121 q 776 108 806 108 l 263 108 q 154 217 154 108 l 154 549 q 171 592 154 581 l 38 592 l 38 674 l 583 674 l 583 592 l 388 592 q 354 582 363 590 q 346 547 346 574 l 346 235 q 355 199 346 208 q 390 190 364 190 l 774 190 q 810 201 800 190 q 821 238 821 211 l 821 782 l -28 782 l -28 864 l 1200 864 z "},"छ":{"ha":1465,"x_min":-28,"x_max":1493,"o":"m 886 674 l 886 782 l 378 782 q 343 774 351 782 q 335 738 335 765 l 335 515 q 343 479 335 488 q 378 471 351 471 l 569 471 l 569 389 l 378 389 q 343 381 351 389 q 335 344 335 372 l 335 126 q 343 90 335 99 q 378 82 351 82 l 1113 82 q 1149 91 1140 82 q 1158 126 1158 100 l 1158 547 q 1149 583 1158 574 q 1113 592 1140 592 l 853 592 q 817 583 825 592 q 808 547 808 575 l 808 367 q 817 331 808 339 q 853 322 825 322 l 988 322 l 988 240 l 742 240 q 633 349 633 240 l 633 565 q 742 674 633 674 l 886 674 m 1493 782 l 1069 782 l 1069 674 l 1219 674 q 1328 565 1328 674 l 1328 108 q 1219 0 1328 0 l 250 0 q 143 108 143 0 l 143 347 q 213 425 143 421 l 213 431 q 143 508 143 432 l 143 739 q 158 782 143 771 l -28 782 l -28 864 l 1493 864 l 1493 782 z "},"ज":{"ha":1493,"x_min":-28,"x_max":1521,"o":"m 1521 864 l 1521 782 l 1332 782 l 1332 0 l 1140 0 l 1140 592 l 876 592 l 876 217 q 768 108 876 108 l 246 108 q 138 217 138 108 l 138 674 l 324 674 l 324 235 q 333 199 324 208 q 368 190 342 190 l 644 190 q 681 199 672 190 q 689 235 689 208 l 689 674 l 1140 674 l 1140 782 l -28 782 l -28 864 l 1521 864 z "},"झ":{"ha":1529,"x_min":-28,"x_max":1557,"o":"m 1178 460 l 1178 782 l 910 782 l 910 592 l 365 592 q 330 583 339 592 q 321 547 321 575 l 321 504 q 330 469 321 478 q 365 460 339 460 l 1178 460 m 1557 864 l 1557 782 l 1368 782 l 1368 0 l 1178 0 l 1178 378 l 908 378 q 910 351 910 369 l 910 217 q 803 108 910 108 l 318 108 l 318 0 l 122 0 l 122 264 l 318 264 l 318 190 l 674 190 q 710 199 701 190 q 719 235 719 208 l 719 332 q 710 368 719 358 q 674 378 700 378 l 238 378 q 129 485 129 378 l 129 565 q 238 674 129 674 l 719 674 l 719 782 l -28 782 l -28 864 l 1557 864 z "},"ञ":{"ha":1451,"x_min":-28,"x_max":1479,"o":"m 1479 864 l 1479 782 l 1289 782 l 1289 0 l 1097 0 l 1097 360 l 838 360 l 838 217 q 731 108 838 108 l 181 108 q 72 217 72 108 l 72 374 l 264 374 l 264 235 q 272 199 264 208 q 308 190 281 190 l 603 190 q 639 199 631 190 q 647 235 647 208 l 647 547 q 639 583 647 575 q 603 592 631 592 l 315 592 l 315 674 l 731 674 q 838 565 838 674 l 838 442 l 1097 442 l 1097 782 l -28 782 l -28 864 l 1479 864 z "},"ट":{"ha":1042,"x_min":-28,"x_max":1069,"o":"m 867 592 l 375 592 q 339 583 347 592 q 331 547 331 575 l 331 126 q 339 91 331 100 q 375 82 347 82 l 672 82 q 708 91 700 82 q 717 126 717 100 l 717 339 l 908 339 l 908 108 q 800 0 908 0 l 247 0 q 139 108 139 0 l 139 565 q 247 674 139 674 l 676 674 l 676 782 l -28 782 l -28 864 l 1069 864 l 1069 782 l 867 782 l 867 592 z "},"ठ":{"ha":1075,"x_min":-28,"x_max":1103,"o":"m 750 126 l 750 547 q 742 583 750 575 q 706 592 733 592 l 369 592 q 333 583 342 592 q 325 547 325 575 l 325 126 q 333 91 325 100 q 369 82 342 82 l 706 82 q 742 91 733 82 q 750 126 750 100 m 1103 782 l 632 782 l 632 674 l 829 674 q 936 565 936 674 l 936 108 q 829 0 936 0 l 247 0 q 139 108 139 0 l 139 565 q 247 674 139 674 l 440 674 l 440 782 l -28 782 l -28 864 l 1103 864 l 1103 782 z "},"ड":{"ha":1015,"x_min":-28,"x_max":1043,"o":"m 856 592 l 368 592 q 333 583 342 592 q 324 547 324 575 l 324 476 q 333 441 324 450 q 368 432 342 432 l 781 432 q 889 324 889 432 l 889 108 q 781 0 889 0 l 243 0 q 136 108 136 0 l 136 239 l 328 239 l 328 126 q 336 91 328 100 q 372 82 344 82 l 653 82 q 689 91 681 82 q 697 126 697 100 l 697 304 q 688 341 697 332 q 653 350 679 350 l 239 350 q 132 457 132 350 l 132 565 q 239 674 132 674 l 665 674 l 665 782 l -28 782 l -28 864 l 1043 864 l 1043 782 l 856 782 l 856 592 z "},"ढ":{"ha":1075,"x_min":-28,"x_max":1103,"o":"m 869 592 l 375 592 q 339 583 347 592 q 331 547 331 575 l 331 126 q 339 91 331 100 q 375 82 347 82 l 717 82 q 753 91 744 82 q 761 126 761 100 l 761 276 q 753 312 761 303 q 717 321 744 321 l 525 321 l 525 403 l 833 403 q 940 294 940 403 l 940 108 q 833 0 940 0 l 247 0 q 139 108 139 0 l 139 565 q 247 674 139 674 l 678 674 l 678 782 l -28 782 l -28 864 l 1103 864 l 1103 782 l 869 782 l 869 592 z "},"ण":{"ha":1515,"x_min":-28,"x_max":1543,"o":"m 692 235 l 692 782 l 321 782 l 321 235 q 330 199 321 208 q 365 190 339 190 l 646 190 q 683 199 674 190 q 692 235 692 208 m 1543 864 l 1543 782 l 1354 782 l 1354 0 l 1164 0 l 1164 782 l 872 782 l 872 217 q 765 108 872 108 l 247 108 q 139 217 139 108 l 139 782 l -28 782 l -28 864 l 1543 864 z "},"त":{"ha":1106,"x_min":-28,"x_max":1133,"o":"m 1133 864 l 1133 782 l 944 782 l 944 0 l 754 0 l 754 592 l 374 592 q 338 583 347 592 q 329 547 329 575 l 329 126 q 338 91 329 100 q 374 82 347 82 l 535 82 l 535 0 l 246 0 q 138 108 138 0 l 138 565 q 246 674 138 674 l 754 674 l 754 782 l -28 782 l -28 864 l 1133 864 z "},"थ":{"ha":1460,"x_min":138,"x_max":1488,"o":"m 1488 864 l 1488 782 l 1299 782 l 1299 0 l 1108 0 l 1108 121 q 1064 108 1094 108 l 246 108 q 138 217 138 108 l 138 501 l 624 501 q 660 510 651 501 q 669 544 669 518 l 669 738 q 660 773 669 764 q 624 782 651 782 l 375 782 q 339 773 347 782 q 331 738 331 764 l 331 611 l 142 611 l 142 756 q 250 864 142 864 l 750 864 q 857 756 857 864 l 857 526 q 750 419 857 419 l 329 419 l 329 235 q 338 199 329 208 q 374 190 347 190 l 1061 190 q 1099 201 1089 190 q 1108 238 1108 211 l 1108 864 l 1488 864 z "},"द":{"ha":1040,"x_min":-28,"x_max":1068,"o":"m 869 592 l 353 592 q 318 583 326 592 q 310 547 310 575 l 310 235 q 318 199 310 207 q 353 190 326 190 l 644 190 q 682 201 672 190 q 692 238 692 211 l 692 369 l 883 369 l 883 0 l 692 0 l 692 121 q 647 108 678 108 l 225 108 q 118 217 118 108 l 118 565 q 225 674 118 674 l 678 674 l 678 782 l -28 782 l -28 864 l 1068 864 l 1068 782 l 869 782 l 869 592 z "},"ध":{"ha":1424,"x_min":135,"x_max":1451,"o":"m 1451 864 l 1451 782 l 1263 782 l 1263 0 l 1072 0 l 1072 121 q 1028 108 1058 108 l 243 108 q 135 217 135 108 l 135 374 q 204 450 135 447 l 204 457 q 135 535 135 460 l 135 756 q 243 864 135 864 l 733 864 q 840 756 840 864 l 840 592 l 676 592 l 676 738 q 667 773 676 764 q 632 782 658 782 l 371 782 q 335 773 344 782 q 326 738 326 764 l 326 543 q 335 508 326 517 q 371 499 344 499 l 568 499 l 568 417 l 371 417 q 335 408 344 417 q 326 372 326 400 l 326 235 q 335 199 326 208 q 371 190 344 190 l 1025 190 q 1063 201 1053 190 q 1072 238 1072 211 l 1072 864 l 1451 864 z "},"न":{"ha":1467,"x_min":-28,"x_max":1494,"o":"m 663 235 l 663 592 l 335 592 q 299 583 308 592 q 290 547 290 575 l 290 235 q 299 199 290 208 q 335 190 308 190 l 619 190 q 654 199 646 190 q 663 235 663 207 m 1494 864 l 1494 782 l 1304 782 l 1304 0 l 1113 0 l 1113 592 l 849 592 l 849 217 q 742 108 849 108 l 211 108 q 104 217 104 108 l 104 565 q 211 674 104 674 l 1113 674 l 1113 782 l -28 782 l -28 864 l 1494 864 z "},"ऩ":{"ha":1467,"x_min":-28,"x_max":1494,"o":"m 422 -132 l 422 18 l 613 18 l 613 -132 l 422 -132 m 663 235 l 663 592 l 335 592 q 299 583 308 592 q 290 547 290 575 l 290 235 q 299 199 290 208 q 335 190 308 190 l 619 190 q 654 199 646 190 q 663 235 663 207 m 1494 864 l 1494 782 l 1304 782 l 1304 0 l 1113 0 l 1113 592 l 849 592 l 849 217 q 742 108 849 108 l 211 108 q 104 217 104 108 l 104 565 q 211 674 104 674 l 1113 674 l 1113 782 l -28 782 l -28 864 l 1494 864 z "},"प":{"ha":1060,"x_min":-28,"x_max":1088,"o":"m 707 238 l 707 782 l 325 782 l 325 235 q 333 199 325 208 q 369 190 342 190 l 660 190 q 697 201 686 190 q 707 238 707 211 m 1088 864 l 1088 782 l 897 782 l 897 0 l 707 0 l 707 121 q 663 108 692 108 l 247 108 q 139 217 139 108 l 139 782 l -28 782 l -28 864 l 1088 864 z "},"फ":{"ha":1561,"x_min":-28,"x_max":1590,"o":"m 707 238 l 707 782 l 325 782 l 325 235 q 333 199 325 208 q 369 190 342 190 l 660 190 q 697 201 686 190 q 707 238 707 211 m 1590 782 l 897 782 l 897 661 q 942 674 911 674 l 1336 674 q 1444 565 1444 674 l 1444 217 q 1336 108 1444 108 l 964 108 l 964 190 l 1208 190 q 1244 199 1236 190 q 1253 235 1253 208 l 1253 547 q 1244 583 1253 575 q 1208 592 1236 592 l 944 592 q 907 582 917 592 q 897 544 897 572 l 897 0 l 707 0 l 707 121 q 663 108 692 108 l 247 108 q 139 217 139 108 l 139 782 l -28 782 l -28 864 l 1590 864 l 1590 782 z "},"ब":{"ha":1147,"x_min":-28,"x_max":1175,"o":"m 350 190 l 747 190 q 768 192 763 190 l 300 533 q 306 386 306 453 l 306 235 q 315 199 306 208 q 350 190 324 190 m 1175 864 l 1175 782 l 986 782 l 986 0 l 794 0 l 794 121 q 750 108 781 108 l 225 108 q 118 217 118 108 l 118 565 q 225 674 118 674 l 735 674 l 735 592 l 339 592 l 807 250 q 794 438 794 314 l 794 782 l -28 782 l -28 864 l 1175 864 z "},"भ":{"ha":1506,"x_min":136,"x_max":1533,"o":"m 692 233 l 692 432 l 361 432 q 326 424 335 432 q 318 389 318 415 l 318 233 q 326 198 318 207 q 361 189 335 189 l 647 189 q 683 198 674 189 q 692 233 692 207 m 1533 864 l 1533 782 l 1344 782 l 1344 0 l 1154 0 l 1154 432 l 883 432 l 883 217 q 775 108 883 108 l 244 108 q 136 217 136 108 l 136 407 q 244 514 136 514 l 692 514 l 692 738 q 683 773 692 764 q 647 782 675 782 l 376 782 q 341 773 350 782 q 332 738 332 764 l 332 618 l 140 618 l 140 756 q 249 864 140 864 l 775 864 q 883 756 883 864 l 883 514 l 1154 514 l 1154 864 l 1533 864 z "},"म":{"ha":1508,"x_min":-28,"x_max":1536,"o":"m 1156 674 l 1156 782 l 885 782 l 885 674 l 1156 674 m 693 235 l 693 592 l 364 592 q 328 583 336 592 q 319 547 319 575 l 319 235 q 328 199 319 208 q 364 190 336 190 l 649 190 q 684 199 675 190 q 693 235 693 208 m 1536 864 l 1536 782 l 1347 782 l 1347 0 l 1156 0 l 1156 592 l 885 592 l 885 217 q 776 108 885 108 l 246 108 q 138 217 138 108 l 138 565 q 246 674 138 674 l 693 674 l 693 782 l -28 782 l -28 864 l 1536 864 z "},"य":{"ha":1340,"x_min":-28,"x_max":1368,"o":"m 988 243 l 988 782 l 708 782 q 725 739 725 772 l 725 538 q 617 429 725 429 l 285 429 l 285 235 q 294 199 285 208 q 329 190 303 190 l 933 190 q 976 201 964 190 q 988 243 988 213 m 1368 864 l 1368 782 l 1178 782 l 1178 0 l 988 0 l 988 126 q 939 108 975 108 l 201 108 q 93 217 93 108 l 93 511 l 489 511 q 524 520 515 511 q 533 556 533 529 l 533 738 q 525 773 533 764 q 489 782 517 782 l -28 782 l -28 864 l 1368 864 z "},"र":{"ha":1040,"x_min":-28,"x_max":1068,"o":"m 1068 864 l 1068 782 l 868 782 q 885 739 885 772 l 885 504 q 776 396 885 396 l 329 396 l 329 126 q 338 91 329 100 q 374 82 347 82 l 638 82 q 673 91 664 82 q 682 126 682 100 l 682 293 l 874 293 l 874 108 q 765 0 874 0 l 246 0 q 138 108 138 0 l 138 600 l 329 600 l 329 478 l 649 478 q 684 486 675 478 q 693 522 693 494 l 693 738 q 684 773 693 764 q 649 782 675 782 l -28 782 l -28 864 l 1068 864 z "},"ऱ":{"ha":1040,"x_min":-28,"x_max":1068,"o":"m 211 -240 l 211 -90 l 401 -90 l 401 -240 l 211 -240 m 1068 864 l 1068 782 l 868 782 q 885 739 885 772 l 885 504 q 776 396 885 396 l 329 396 l 329 126 q 338 91 329 100 q 374 82 347 82 l 638 82 q 673 91 664 82 q 682 126 682 100 l 682 293 l 874 293 l 874 108 q 765 0 874 0 l 246 0 q 138 108 138 0 l 138 600 l 329 600 l 329 478 l 649 478 q 684 486 675 478 q 693 522 693 494 l 693 738 q 684 773 693 764 q 649 782 675 782 l -28 782 l -28 864 l 1068 864 z "},"ल":{"ha":1571,"x_min":-28,"x_max":1599,"o":"m 1599 864 l 1599 782 l 1410 782 l 1410 0 l 1218 0 l 1218 592 l 913 592 q 877 583 886 592 q 868 547 868 575 l 868 263 l 678 263 l 678 547 q 669 583 678 574 q 632 592 660 592 l 374 592 q 338 583 347 592 q 329 547 329 575 l 329 126 q 338 91 329 100 q 374 82 347 82 l 656 82 l 656 0 l 246 0 q 138 108 138 0 l 138 565 q 246 674 138 674 l 685 674 q 747 659 728 674 q 771 611 767 644 l 776 611 q 851 674 785 674 l 1218 674 l 1218 782 l -28 782 l -28 864 l 1599 864 z "},"ळ":{"ha":1461,"x_min":-28,"x_max":1489,"o":"m 1153 235 l 1153 547 q 1144 583 1153 574 q 1107 592 1135 592 l 858 592 q 822 583 831 592 q 814 547 814 575 l 814 235 q 822 199 814 208 q 858 190 831 190 l 1107 190 q 1144 199 1135 190 q 1153 235 1153 208 m 647 235 l 647 547 q 639 583 647 575 q 603 592 631 592 l 354 592 q 319 583 328 592 q 310 547 310 575 l 310 235 q 319 199 310 208 q 354 190 328 190 l 603 190 q 639 199 631 190 q 647 235 647 208 m 1489 782 l 1114 782 l 1114 674 l 1228 674 q 1336 565 1336 674 l 1336 217 q 1228 108 1336 108 l 808 108 q 755 123 772 108 q 733 171 738 138 l 728 171 q 704 123 724 138 q 642 108 685 108 l 233 108 q 125 217 125 108 l 125 565 q 233 674 125 674 l 642 674 q 704 659 685 674 q 728 611 724 644 l 733 611 q 808 674 739 674 l 922 674 l 922 782 l -28 782 l -28 864 l 1489 864 l 1489 782 z "},"ऴ":{"ha":1461,"x_min":-28,"x_max":1489,"o":"m 400 -132 l 400 18 l 590 18 l 590 -132 l 400 -132 m 1153 235 l 1153 547 q 1144 583 1153 574 q 1107 592 1135 592 l 858 592 q 822 583 831 592 q 814 547 814 575 l 814 235 q 822 199 814 208 q 858 190 831 190 l 1107 190 q 1144 199 1135 190 q 1153 235 1153 208 m 647 235 l 647 547 q 639 583 647 575 q 603 592 631 592 l 354 592 q 319 583 328 592 q 310 547 310 575 l 310 235 q 319 199 310 208 q 354 190 328 190 l 603 190 q 639 199 631 190 q 647 235 647 208 m 1489 782 l 1114 782 l 1114 674 l 1228 674 q 1336 565 1336 674 l 1336 217 q 1228 108 1336 108 l 808 108 q 755 123 772 108 q 733 171 738 138 l 728 171 q 704 123 724 138 q 642 108 685 108 l 233 108 q 125 217 125 108 l 125 565 q 233 674 125 674 l 642 674 q 704 659 685 674 q 728 611 724 644 l 733 611 q 808 674 739 674 l 922 674 l 922 782 l -28 782 l -28 864 l 1489 864 l 1489 782 z "},"व":{"ha":1063,"x_min":-28,"x_max":1090,"o":"m 1090 864 l 1090 782 l 900 782 l 900 0 l 710 0 l 710 121 q 665 108 694 108 l 236 108 q 128 217 128 108 l 128 565 q 236 674 128 674 l 640 674 l 640 592 l 364 592 q 328 583 336 592 q 319 547 319 575 l 319 235 q 328 199 319 208 q 364 190 336 190 l 663 190 q 699 201 689 190 q 710 238 710 211 l 710 782 l -28 782 l -28 864 l 1090 864 z "},"श":{"ha":1538,"x_min":158,"x_max":1565,"o":"m 269 864 l 799 864 q 906 756 906 864 l 906 476 q 799 368 906 368 l 350 368 l 350 126 q 358 91 350 100 q 394 82 367 82 l 667 82 q 703 91 694 82 q 711 126 711 100 l 711 274 l 903 274 l 903 108 q 794 0 903 0 l 267 0 q 158 108 158 0 l 158 518 l 350 518 l 350 450 l 669 450 q 706 459 697 450 q 715 494 715 468 l 715 738 q 706 773 715 764 q 669 782 697 782 l 396 782 q 360 773 369 782 q 351 738 351 764 l 351 622 l 161 622 l 161 756 q 269 864 161 864 m 1565 864 l 1565 782 l 1376 782 l 1376 0 l 1185 0 l 1185 864 l 1565 864 z "},"ष":{"ha":1144,"x_min":-28,"x_max":1172,"o":"m 797 496 l 797 782 l 319 782 l 807 283 q 797 496 797 381 m 372 190 l 749 190 q 789 204 779 190 l 317 686 q 328 503 328 601 l 328 235 q 336 199 328 208 q 372 190 344 190 m 1172 864 l 1172 782 l 983 782 l 983 0 l 796 0 l 796 121 q 751 108 781 108 l 247 108 q 139 217 139 108 l 139 782 l -28 782 l -28 864 l 1172 864 z "},"स":{"ha":1522,"x_min":-28,"x_max":1551,"o":"m 1169 471 l 1169 782 l 872 782 q 889 739 889 772 l 889 497 q 888 471 889 479 l 1169 471 m 1551 864 l 1551 782 l 1361 782 l 1361 0 l 1169 0 l 1169 389 l 331 389 l 331 126 q 339 91 331 100 q 375 82 347 82 l 653 82 q 688 90 679 82 q 696 126 696 99 l 696 297 l 888 297 l 888 108 q 781 0 888 0 l 247 0 q 139 108 139 0 l 139 661 l 331 661 l 331 471 l 654 471 q 689 479 681 471 q 697 515 697 488 l 697 738 q 689 774 697 765 q 654 782 681 782 l -28 782 l -28 864 l 1551 864 z "},"ह":{"ha":1056,"x_min":-28,"x_max":1083,"o":"m 892 592 l 382 592 q 347 583 356 592 q 339 547 339 575 l 339 494 q 347 458 339 467 q 382 450 356 450 l 803 450 q 918 338 918 450 l 918 197 l 735 197 l 735 324 q 726 359 735 350 q 692 368 718 368 l 382 368 q 347 360 356 368 q 339 324 339 351 l 339 126 q 347 90 339 99 q 382 82 356 82 l 915 82 l 915 0 l 254 0 q 147 108 147 0 l 147 322 q 217 400 147 397 l 217 407 q 147 483 147 407 l 147 565 q 254 674 147 674 l 701 674 l 701 782 l -28 782 l -28 864 l 1083 864 l 1083 782 l 892 782 l 892 592 z "},"़":{"ha":0,"x_min":-419,"x_max":-229,"o":"m -419 -240 l -419 -90 l -229 -90 l -229 -240 l -419 -240 z "},"ऽ":{"ha":983,"x_min":133,"x_max":861,"o":"m 369 515 l 753 515 q 861 407 861 515 l 861 108 q 753 0 861 0 l 246 0 q 138 110 138 0 l 138 250 l 329 250 l 329 126 q 338 91 329 100 q 374 82 347 82 l 625 82 q 661 91 653 82 q 669 126 669 100 l 669 389 q 661 425 669 417 q 625 433 653 433 l 242 433 q 133 540 133 433 l 133 756 q 242 864 133 864 l 856 864 l 856 782 l 369 782 q 333 773 342 782 q 325 738 325 764 l 325 560 q 333 524 325 533 q 369 515 342 515 z "},"ा":{"ha":514,"x_min":-28,"x_max":542,"o":"m 542 864 l 542 782 l 353 782 l 353 0 l 161 0 l 161 782 l -28 782 l -28 864 l 542 864 z "},"ि":{"ha":514,"x_min":-28,"x_max":1353,"o":"m 269 1149 l 1246 1149 q 1353 1040 1353 1149 l 1353 928 l 1163 928 l 1163 1022 q 1153 1058 1163 1050 q 1118 1067 1144 1067 l 397 1067 q 361 1058 369 1067 q 353 1022 353 1050 l 353 864 l 542 864 l 542 782 l 353 782 l 353 0 l 161 0 l 161 782 l -28 782 l -28 864 l 161 864 l 161 1040 q 269 1149 161 1149 z "},"ी":{"ha":514,"x_min":-360,"x_max":542,"o":"m 542 864 l 542 782 l 353 782 l 353 0 l 161 0 l 161 782 l -28 782 l -28 864 l 161 864 l 161 1022 q 153 1058 161 1050 q 117 1067 144 1067 l -124 1067 q -159 1058 -150 1067 q -168 1022 -168 1050 l -168 928 l -360 928 l -360 1040 q -251 1149 -360 1149 l 244 1149 q 353 1040 353 1149 l 353 864 l 542 864 z "},"ु":{"ha":0,"x_min":-781,"x_max":11,"o":"m -383 0 l -93 0 q -13 -24 -37 0 q 11 -104 11 -49 l 11 -271 q -13 -351 11 -326 q -93 -375 -37 -375 l -508 -375 q -615 -360 -583 -375 q -683 -286 -647 -344 l -781 -125 l -586 -125 l -511 -254 q -486 -285 -497 -276 q -453 -293 -475 -293 l -222 -293 q -185 -283 -196 -293 q -175 -247 -175 -272 l -175 -128 q -185 -92 -175 -103 q -222 -82 -196 -82 l -383 -82 l -383 0 z "},"ू":{"ha":0,"x_min":-658,"x_max":168,"o":"m -232 -82 l -425 -82 q -462 -92 -451 -82 q -472 -128 -472 -103 l -472 -247 q -462 -283 -472 -272 q -425 -293 -451 -293 l -262 -293 l -262 -375 l -554 -375 q -634 -351 -610 -375 q -658 -271 -658 -326 l -658 -104 q -634 -24 -658 -49 q -554 0 -610 0 l -176 0 q -68 -15 -100 0 q -1 -89 -36 -29 l 168 -375 l -26 -375 l -174 -121 q -199 -90 -187 -99 q -232 -82 -210 -82 z "},"ृ":{"ha":0,"x_min":-597,"x_max":-14,"o":"m -364 -293 l -14 -293 l -14 -375 l -493 -375 q -573 -351 -549 -375 q -597 -271 -597 -326 l -597 -104 q -573 -24 -597 -49 q -493 0 -549 0 l -76 0 l -76 -82 l -364 -82 q -401 -92 -390 -82 q -411 -128 -411 -103 l -411 -247 q -401 -283 -411 -272 q -364 -293 -390 -293 z "},"ॄ":{"ha":0,"x_min":-597,"x_max":-15,"o":"m -364 -589 l -15 -589 l -15 -671 l -493 -671 q -573 -647 -549 -671 q -597 -567 -597 -622 l -597 -422 q -561 -336 -597 -365 q -597 -249 -597 -304 l -597 -104 q -573 -24 -597 -49 q -493 0 -549 0 l -56 0 l -56 -82 l -364 -82 q -401 -92 -390 -82 q -411 -128 -411 -103 l -411 -249 q -401 -284 -411 -274 q -364 -294 -390 -294 l -26 -294 l -26 -376 l -364 -376 q -401 -387 -390 -376 q -411 -422 -411 -397 l -411 -543 q -401 -578 -411 -568 q -364 -589 -390 -589 z "},"ॅ":{"ha":0,"x_min":-540,"x_max":190,"o":"m 8 1183 l 190 1183 l 190 1058 q 83 951 190 951 l -432 951 q -540 1058 -540 951 l -540 1183 l -358 1183 l -358 1078 q -350 1042 -358 1050 q -314 1033 -342 1033 l -36 1033 q 0 1042 -8 1033 q 8 1078 8 1050 l 8 1183 z "},"ॆ":{"ha":0,"x_min":-801,"x_max":-76,"o":"m -565 1032 l -185 1032 q -76 924 -76 1032 l -76 815 l -268 815 l -268 906 q -277 941 -268 932 q -312 950 -286 950 l -694 950 q -801 1057 -801 950 l -801 1144 l -611 1144 l -611 1076 q -602 1041 -611 1050 q -565 1032 -593 1032 z "},"े":{"ha":0,"x_min":-614,"x_max":-150,"o":"m -150 849 l -326 849 q -492 1004 -403 901 l -614 1149 l -403 1149 l -150 849 z "},"ै":{"ha":0,"x_min":-674,"x_max":-158,"o":"m -262 864 l -254 864 q -340 1075 -275 904 l -368 1149 l -221 1149 l -158 849 l -342 849 q -482 967 -385 875 l -674 1149 l -481 1149 l -421 1079 q -262 864 -317 960 z "},"ॉ":{"ha":514,"x_min":-111,"x_max":619,"o":"m -28 782 l -28 864 l 542 864 l 542 782 l 353 782 l 353 0 l 161 0 l 161 782 l -28 782 m 438 1183 l 619 1183 l 619 1058 q 513 951 619 951 l -3 951 q -111 1058 -111 951 l -111 1183 l 71 1183 l 71 1078 q 80 1042 71 1050 q 115 1033 89 1033 l 393 1033 q 428 1042 419 1033 q 438 1078 438 1050 l 438 1183 z "},"ॊ":{"ha":514,"x_min":-372,"x_max":542,"o":"m 542 864 l 542 782 l 353 782 l 353 0 l 161 0 l 161 782 l -28 782 l -28 864 l 161 864 l 161 906 q 152 941 161 932 q 117 950 143 950 l -265 950 q -372 1057 -372 950 l -372 1144 l -182 1144 l -182 1076 q -173 1041 -182 1050 q -136 1032 -164 1032 l 244 1032 q 353 924 353 1032 l 353 864 l 542 864 z "},"ो":{"ha":514,"x_min":-99,"x_max":542,"o":"m 542 864 l 542 782 l 353 782 l 353 0 l 161 0 l 161 782 l -28 782 l -28 864 l 168 864 q 24 1004 97 918 l -99 1149 l 113 1149 l 353 864 l 542 864 z "},"ौ":{"ha":514,"x_min":-158,"x_max":542,"o":"m 542 864 l 542 782 l 353 782 l 353 0 l 161 0 l 161 782 l -28 782 l -28 864 l 151 864 q 33 967 88 914 l -158 1149 l 35 1149 l 94 1079 q 253 864 199 960 l 261 864 q 175 1075 240 904 l 147 1149 l 294 1149 l 354 864 l 542 864 z "},"्":{"ha":0,"x_min":-356,"x_max":1,"o":"m -356 -85 l -161 -85 l 1 -300 l -196 -300 l -356 -85 z "},"ॐ":{"ha":1607,"x_min":94,"x_max":1651,"o":"m 1357 1035 l 1357 901 l 1219 901 l 1219 1035 l 1357 1035 m 844 558 l 1533 558 q 1642 450 1642 558 l 1642 108 q 1533 0 1642 0 l 1063 0 q 954 108 954 0 l 954 286 l 1146 286 l 1146 126 q 1155 91 1146 100 q 1190 82 1164 82 l 1406 82 q 1442 91 1433 82 q 1450 126 1450 100 l 1450 433 q 1441 468 1450 460 q 1406 476 1432 476 l 774 476 l 774 471 q 844 394 844 469 l 844 108 q 736 0 844 0 l 203 0 q 94 108 94 0 l 94 286 l 286 286 l 286 126 q 294 91 286 100 q 331 82 303 82 l 608 82 q 644 91 636 82 q 653 126 653 100 l 653 386 q 644 422 653 414 q 608 431 636 431 l 424 431 l 424 513 l 608 513 q 644 522 635 513 q 653 558 653 531 l 653 738 q 644 773 653 764 q 608 782 636 782 l 331 782 q 294 773 303 782 q 286 738 286 764 l 286 621 l 94 621 l 94 756 q 203 864 94 864 l 736 864 q 844 756 844 864 l 844 558 m 1486 967 l 1651 967 l 1651 843 q 1546 735 1651 735 l 1032 735 q 926 843 926 735 l 926 967 l 1090 967 l 1090 860 q 1099 825 1090 833 q 1135 817 1108 817 l 1442 817 q 1477 825 1468 817 q 1486 860 1486 833 l 1486 967 z "},"॑":{"ha":0,"x_min":-343,"x_max":-156,"o":"m -343 988 l -343 1349 l -156 1349 l -156 988 l -343 988 z "},"॒":{"ha":0,"x_min":-697,"x_max":-76,"o":"m -76 -264 l -697 -264 l -697 -182 l -76 -182 l -76 -264 z "},"॓":{"ha":0,"x_min":-522,"x_max":-162,"o":"m -522 1275 l -394 1383 l -162 1106 l -290 997 l -522 1275 z "},"॔":{"ha":0,"x_min":-317,"x_max":43,"o":"m -85 1383 l 43 1275 l -189 997 l -317 1106 l -85 1383 z "},"क़":{"ha":1507,"x_min":-28,"x_max":1535,"o":"m 201 -132 l 201 18 l 392 18 l 392 -132 l 201 -132 m 1535 782 l 849 782 l 849 661 q 893 674 864 674 l 1281 674 q 1389 565 1389 674 l 1389 217 q 1281 108 1389 108 l 918 108 l 918 190 l 1153 190 q 1189 199 1181 190 q 1197 235 1197 208 l 1197 547 q 1189 583 1197 575 q 1153 592 1181 592 l 896 592 q 859 582 869 592 q 849 544 849 572 l 849 0 l 658 0 l 658 121 q 614 108 644 108 l 225 108 q 118 217 118 108 l 118 565 q 225 674 118 674 l 589 674 l 589 592 l 353 592 q 318 583 326 592 q 310 547 310 575 l 310 235 q 318 199 310 207 q 353 190 326 190 l 611 190 q 649 201 639 190 q 658 238 658 211 l 658 782 l -28 782 l -28 864 l 1535 864 l 1535 782 z "},"ख़":{"ha":1901,"x_min":-28,"x_max":1929,"o":"m 658 -240 l 658 -90 l 849 -90 l 849 -240 l 658 -240 m 1929 864 l 1929 782 l 1739 782 l 1739 0 l 1550 0 l 1550 185 q 1501 167 1538 167 l 1088 167 q 981 275 981 167 l 981 525 q 1088 632 981 632 l 1488 632 l 1488 550 l 1199 550 q 1163 542 1172 550 q 1154 506 1154 533 l 1154 292 q 1163 256 1154 265 q 1199 247 1172 247 l 1497 247 q 1538 259 1526 247 q 1550 300 1550 271 l 1550 782 l 801 782 l 801 432 q 693 325 801 325 l 329 325 l 329 126 q 338 91 329 100 q 375 82 347 82 l 913 82 l 913 0 l 244 0 q 138 108 138 0 l 138 643 l 329 643 l 329 407 l 568 407 q 603 416 594 407 q 613 451 613 425 l 613 782 l -28 782 l -28 864 l 1929 864 z "},"ग़":{"ha":1528,"x_min":-28,"x_max":1556,"o":"m 408 -132 l 408 18 l 599 18 l 599 -132 l 408 -132 m 326 190 l 674 190 q 709 199 700 190 q 718 235 718 208 l 718 510 l 326 510 q 291 501 300 510 q 282 465 282 492 l 282 235 q 291 199 282 208 q 326 190 300 190 m 1556 864 l 1556 782 l 1367 782 l 1367 0 l 1176 0 l 1176 782 l 908 782 l 908 217 q 801 108 908 108 l 211 108 q 104 217 104 108 l 104 483 q 211 592 104 592 l 718 592 l 718 782 l -28 782 l -28 864 l 1556 864 z "},"ज़":{"ha":1493,"x_min":-28,"x_max":1521,"o":"m 401 -132 l 401 18 l 592 18 l 592 -132 l 401 -132 m 1521 864 l 1521 782 l 1332 782 l 1332 0 l 1140 0 l 1140 592 l 876 592 l 876 217 q 768 108 876 108 l 246 108 q 138 217 138 108 l 138 674 l 324 674 l 324 235 q 333 199 324 208 q 368 190 342 190 l 644 190 q 681 199 672 190 q 689 235 689 208 l 689 674 l 1140 674 l 1140 782 l -28 782 l -28 864 l 1521 864 z "},"ड़":{"ha":1015,"x_min":-28,"x_max":1043,"o":"m 458 -240 l 458 -90 l 649 -90 l 649 -240 l 458 -240 m 856 592 l 368 592 q 333 583 342 592 q 324 547 324 575 l 324 476 q 333 441 324 450 q 368 432 342 432 l 781 432 q 889 324 889 432 l 889 108 q 781 0 889 0 l 243 0 q 136 108 136 0 l 136 239 l 328 239 l 328 126 q 336 91 328 100 q 372 82 344 82 l 653 82 q 689 91 681 82 q 697 126 697 100 l 697 304 q 688 341 697 332 q 653 350 679 350 l 239 350 q 132 457 132 350 l 132 565 q 239 674 132 674 l 665 674 l 665 782 l -28 782 l -28 864 l 1043 864 l 1043 782 l 856 782 l 856 592 z "},"ढ़":{"ha":1075,"x_min":-28,"x_max":1103,"o":"m 485 -240 l 485 -90 l 675 -90 l 675 -240 l 485 -240 m 869 592 l 375 592 q 339 583 347 592 q 331 547 331 575 l 331 126 q 339 91 331 100 q 375 82 347 82 l 717 82 q 753 91 744 82 q 761 126 761 100 l 761 276 q 753 312 761 303 q 717 321 744 321 l 525 321 l 525 403 l 833 403 q 940 294 940 403 l 940 108 q 833 0 940 0 l 247 0 q 139 108 139 0 l 139 565 q 247 674 139 674 l 678 674 l 678 782 l -28 782 l -28 864 l 1103 864 l 1103 782 l 869 782 l 869 592 z "},"फ़":{"ha":1561,"x_min":-28,"x_max":1590,"o":"m 149 -132 l 149 18 l 339 18 l 339 -132 l 149 -132 m 707 238 l 707 782 l 325 782 l 325 235 q 333 199 325 208 q 369 190 342 190 l 660 190 q 697 201 686 190 q 707 238 707 211 m 1590 782 l 897 782 l 897 661 q 942 674 911 674 l 1336 674 q 1444 565 1444 674 l 1444 217 q 1336 108 1444 108 l 964 108 l 964 190 l 1208 190 q 1244 199 1236 190 q 1253 235 1253 208 l 1253 547 q 1244 583 1253 575 q 1208 592 1236 592 l 944 592 q 907 582 917 592 q 897 544 897 572 l 897 0 l 707 0 l 707 121 q 663 108 692 108 l 247 108 q 139 217 139 108 l 139 782 l -28 782 l -28 864 l 1590 864 l 1590 782 z "},"य़":{"ha":1340,"x_min":-28,"x_max":1368,"o":"m 335 -132 l 335 18 l 525 18 l 525 -132 l 335 -132 m 988 243 l 988 782 l 708 782 q 725 739 725 772 l 725 538 q 617 429 725 429 l 285 429 l 285 235 q 294 199 285 208 q 329 190 303 190 l 933 190 q 976 201 964 190 q 988 243 988 213 m 1368 864 l 1368 782 l 1178 782 l 1178 0 l 988 0 l 988 126 q 939 108 975 108 l 201 108 q 93 217 93 108 l 93 511 l 489 511 q 524 520 515 511 q 533 556 533 529 l 533 738 q 525 773 533 764 q 489 782 517 782 l -28 782 l -28 864 l 1368 864 z "},"ॠ":{"ha":1874,"x_min":-28,"x_max":1901,"o":"m 1260 546 l 1260 406 q 1299 360 1260 360 l 1536 360 q 1565 370 1557 360 q 1574 406 1574 381 l 1574 546 q 1565 582 1574 572 q 1531 592 1557 592 l 1303 592 q 1268 582 1276 592 q 1260 546 1260 572 m 906 782 l 906 360 l 1094 360 q 1072 440 1072 378 l 1072 567 q 1181 674 1072 674 l 1647 674 q 1756 567 1756 674 l 1756 385 q 1647 276 1756 276 l 1300 276 q 1267 269 1275 276 q 1258 236 1258 261 l 1258 128 q 1265 92 1258 101 q 1299 82 1272 82 l 1522 82 q 1556 90 1547 82 q 1565 124 1565 99 l 1565 189 l 1753 189 l 1753 107 q 1654 0 1753 0 l 1182 0 q 1074 107 1074 0 l 1074 208 q 1094 276 1074 258 l 906 276 l 906 0 l 715 0 l 715 276 l 622 276 l 314 0 l 82 0 l 447 326 l 278 513 q 191 574 235 558 q 89 589 147 589 l 57 589 l 57 674 l 183 674 q 328 656 275 674 q 438 578 382 638 l 635 360 l 715 360 l 715 782 l -28 782 l -28 864 l 1901 864 l 1901 782 l 906 782 z "},"ॡ":{"ha":1569,"x_min":-28,"x_max":1597,"o":"m 1410 138 l 1110 138 q 1073 127 1083 138 q 1063 92 1063 117 l 1063 -29 q 1073 -65 1063 -54 q 1110 -75 1083 -75 l 1438 -75 l 1438 -157 l 1110 -157 q 1073 -167 1083 -157 q 1063 -203 1063 -178 l 1063 -324 q 1073 -359 1063 -349 q 1110 -369 1083 -369 l 1450 -369 l 1450 -451 l 981 -451 q 901 -427 925 -451 q 876 -347 876 -403 l 876 -204 q 913 -117 876 -150 q 876 -29 876 -83 l 876 115 q 901 195 876 171 q 981 219 925 219 l 1218 219 l 1218 592 l 913 592 q 877 583 886 592 q 868 547 868 575 l 868 301 l 678 301 l 678 547 q 669 583 678 574 q 632 592 660 592 l 374 592 q 338 583 347 592 q 329 547 329 575 l 329 126 q 338 91 329 100 q 374 82 347 82 l 656 82 l 656 0 l 246 0 q 138 108 138 0 l 138 565 q 246 674 138 674 l 685 674 q 747 659 728 674 q 771 611 767 644 l 776 611 q 851 674 785 674 l 1218 674 l 1218 782 l -28 782 l -28 864 l 1597 864 l 1597 782 l 1410 782 l 1410 138 z "},"।":{"ha":590,"x_min":247,"x_max":435,"o":"m 247 0 l 247 864 l 435 864 l 435 0 l 247 0 z "},"॥":{"ha":1100,"x_min":247,"x_max":944,"o":"m 247 0 l 247 864 l 435 864 l 435 0 l 247 0 m 757 0 l 757 864 l 944 864 l 944 0 l 757 0 z "},"०":{"ha":1031,"x_min":143,"x_max":888,"o":"m 703 126 l 703 738 q 694 773 703 764 q 660 782 686 782 l 372 782 q 338 773 346 782 q 331 738 331 764 l 331 126 q 338 91 331 100 q 372 82 346 82 l 660 82 q 694 91 686 82 q 703 126 703 100 m 249 864 l 782 864 q 888 756 888 864 l 888 108 q 782 0 888 0 l 249 0 q 143 108 143 0 l 143 756 q 249 864 143 864 z "},"१":{"ha":690,"x_min":101,"x_max":525,"o":"m 525 864 l 525 0 l 335 0 l 335 782 l 101 782 l 101 864 l 525 864 z "},"२":{"ha":1050,"x_min":149,"x_max":903,"o":"m 903 82 l 903 0 l 149 0 l 149 81 l 579 464 q 676 568 643 519 q 708 676 708 617 l 708 738 q 701 773 708 764 q 668 782 693 782 l 390 782 q 356 773 364 782 q 349 738 349 764 l 349 560 l 157 560 l 157 756 q 263 864 157 864 l 794 864 q 900 754 900 864 l 900 678 q 870 531 900 585 q 772 414 840 478 l 406 82 l 903 82 z "},"३":{"ha":1018,"x_min":122,"x_max":882,"o":"m 649 86 q 683 95 675 86 q 692 131 692 104 l 692 342 q 642 390 692 390 l 474 390 l 474 474 l 644 474 q 681 485 671 474 q 692 522 692 496 l 692 732 q 683 768 692 758 q 649 778 675 778 l 356 778 q 321 768 329 778 q 313 732 313 758 l 313 607 l 122 607 l 122 756 q 228 864 122 864 l 776 864 q 882 754 882 864 l 882 538 q 796 438 882 446 l 796 432 q 860 406 839 429 q 882 333 882 383 l 882 111 q 776 0 882 0 l 228 0 q 122 108 122 0 l 122 260 l 314 260 l 314 131 q 322 95 314 104 q 356 86 331 86 l 649 86 z "},"४":{"ha":1007,"x_min":88,"x_max":928,"o":"m 928 242 l 928 160 l 785 160 l 785 0 l 606 0 l 606 160 l 88 160 l 88 256 l 393 864 l 583 864 l 278 242 l 606 242 l 606 453 l 785 453 l 785 242 l 928 242 z "},"५":{"ha":1017,"x_min":140,"x_max":889,"o":"m 331 543 l 783 543 q 889 435 889 543 l 889 111 q 783 0 889 0 l 247 0 q 142 108 142 0 l 142 290 l 333 290 l 333 126 q 341 91 333 100 q 374 82 349 82 l 656 82 q 690 91 682 82 q 697 126 697 100 l 697 417 q 690 452 697 443 q 656 461 682 461 l 140 461 l 140 864 l 874 864 l 874 782 l 331 782 l 331 543 z "},"६":{"ha":1044,"x_min":143,"x_max":908,"o":"m 718 126 l 718 374 q 710 410 718 400 q 675 419 701 419 l 333 419 l 333 126 q 342 91 333 100 q 376 82 350 82 l 675 82 q 710 91 701 82 q 718 126 718 100 m 333 500 l 803 500 q 908 393 908 500 l 908 108 q 803 0 908 0 l 249 0 q 143 108 143 0 l 143 756 q 249 864 143 864 l 801 864 q 907 756 907 864 l 907 603 l 715 603 l 715 738 q 708 773 715 764 q 674 782 700 782 l 376 782 q 342 773 350 782 q 333 738 333 764 l 333 500 z "},"७":{"ha":821,"x_min":83,"x_max":733,"o":"m 733 864 l 733 785 l 414 0 l 225 0 l 543 782 l 83 782 l 83 864 l 733 864 z "},"८":{"ha":985,"x_min":117,"x_max":867,"o":"m 681 519 l 681 738 q 672 773 681 764 q 638 782 664 782 l 344 782 q 310 773 318 782 q 301 738 301 764 l 301 519 q 312 484 301 494 q 349 474 322 474 l 636 474 q 671 484 661 474 q 681 519 681 494 m 681 126 l 681 346 q 671 381 681 371 q 636 392 661 392 l 346 392 q 311 381 321 392 q 301 346 301 371 l 301 126 q 310 91 301 100 q 344 82 318 82 l 638 82 q 672 91 664 82 q 681 126 681 100 m 867 754 l 867 540 q 776 433 867 435 l 776 429 q 867 329 867 428 l 867 111 q 761 0 867 0 l 222 0 q 117 111 117 0 l 117 329 q 207 429 117 428 l 207 433 q 117 540 117 435 l 117 754 q 222 864 117 864 l 761 864 q 867 754 867 864 z "},"९":{"ha":1044,"x_min":136,"x_max":901,"o":"m 369 433 l 711 433 l 711 738 q 703 773 711 764 q 668 782 694 782 l 369 782 q 335 773 343 782 q 326 738 326 764 l 326 479 q 335 443 326 453 q 369 433 343 433 m 242 864 l 796 864 q 901 756 901 864 l 901 108 q 796 0 901 0 l 243 0 q 139 108 139 0 l 139 250 l 329 250 l 329 126 q 337 91 329 100 q 371 82 344 82 l 668 82 q 703 91 694 82 q 711 126 711 100 l 711 353 l 242 353 q 136 460 136 353 l 136 756 q 242 864 136 864 z "},"॰":{"ha":919,"x_min":121,"x_max":794,"o":"m 629 304 l 629 476 q 620 512 629 503 q 585 521 611 521 l 332 521 q 295 512 304 521 q 286 476 286 503 l 286 304 q 295 269 286 278 q 332 260 304 260 l 585 260 q 620 269 611 260 q 629 304 629 278 m 229 600 l 688 600 q 794 492 794 600 l 794 289 q 688 181 794 181 l 229 181 q 121 289 121 181 l 121 492 q 229 600 121 600 z "},"ॲ":{"ha":1488,"x_min":114,"x_max":1596,"o":"m 1515 864 l 1515 782 l 1326 782 l 1326 0 l 1135 0 l 1135 411 l 872 411 l 872 217 q 765 108 872 108 l 222 108 q 114 217 114 108 l 114 351 l 306 351 l 306 235 q 314 199 306 208 q 350 190 322 190 l 636 190 q 672 199 664 190 q 681 235 681 208 l 681 396 q 671 433 681 422 q 633 443 661 443 l 428 443 l 428 525 l 633 525 q 671 535 661 525 q 681 572 681 544 l 681 738 q 672 773 681 764 q 636 782 664 782 l 350 782 q 314 773 322 782 q 306 738 306 764 l 306 621 l 114 621 l 114 756 q 222 864 114 864 l 765 864 q 872 756 872 864 l 872 576 q 801 499 872 500 l 801 493 l 1135 493 l 1135 864 l 1515 864 m 1414 1183 l 1596 1183 l 1596 1058 q 1489 951 1596 951 l 974 951 q 865 1058 865 951 l 865 1183 l 1047 1183 l 1047 1078 q 1056 1042 1047 1050 q 1092 1033 1064 1033 l 1369 1033 q 1406 1042 1397 1033 q 1414 1078 1414 1050 l 1414 1183 z "},"ॽ":{"ha":992,"x_min":178,"x_max":831,"o":"m 286 947 l 722 947 q 831 842 831 947 l 831 467 q 722 360 831 360 l 567 360 l 567 0 l 381 0 l 381 442 l 608 442 q 641 451 633 442 q 649 488 649 460 l 649 819 q 641 857 649 847 q 608 867 633 867 l 411 867 q 376 857 385 867 q 368 819 368 847 l 368 661 l 178 661 l 178 842 q 286 947 178 947 z "},"​":{"ha":0,"x_min":0,"x_max":0,"o":""},"‌":{"ha":0,"x_min":-33,"x_max":38,"o":"m -33 1103 l 38 1103 l 38 -481 l -33 -481 l -33 1103 z "},"‍":{"ha":0,"x_min":-207,"x_max":185,"o":"m 25 -481 l -46 -481 l -46 839 l -149 738 l -207 792 l -62 924 l -207 1057 l -150 1110 l -10 972 l 129 1110 l 185 1057 l 40 924 l 185 792 l 128 738 l 25 840 l 25 -481 z "},"–":{"ha":910,"x_min":85,"x_max":767,"o":"m 85 364 l 85 446 l 767 446 l 767 364 l 85 364 z "},"—":{"ha":1304,"x_min":85,"x_max":1215,"o":"m 85 364 l 85 446 l 1215 446 l 1215 364 l 85 364 z "},"‘":{"ha":349,"x_min":72,"x_max":269,"o":"m 269 864 l 269 499 l 72 499 l 72 588 l 206 864 l 269 864 z "},"’":{"ha":349,"x_min":82,"x_max":279,"o":"m 82 499 l 82 864 l 279 864 l 279 774 l 147 499 l 82 499 z "},"‚":{"ha":347,"x_min":82,"x_max":279,"o":"m 82 -182 l 82 183 l 279 183 l 279 94 l 147 -182 l 82 -182 z "},"“":{"ha":613,"x_min":72,"x_max":539,"o":"m 269 864 l 269 499 l 72 499 l 72 588 l 206 864 l 269 864 m 539 864 l 539 499 l 340 499 l 340 588 l 474 864 l 539 864 z "},"”":{"ha":613,"x_min":82,"x_max":549,"o":"m 351 499 l 351 864 l 549 864 l 549 774 l 417 499 l 351 499 m 82 499 l 82 864 l 279 864 l 279 774 l 147 499 l 82 499 z "},"„":{"ha":613,"x_min":82,"x_max":549,"o":"m 351 -182 l 351 183 l 549 183 l 549 94 l 417 -182 l 351 -182 m 82 -182 l 82 183 l 279 183 l 279 94 l 147 -182 l 82 -182 z "},"†":{"ha":844,"x_min":96,"x_max":750,"o":"m 750 644 l 750 563 l 517 563 l 517 -168 l 331 -168 l 331 563 l 96 563 l 96 644 l 331 644 l 331 864 l 517 864 l 517 644 l 750 644 z "},"‡":{"ha":861,"x_min":103,"x_max":757,"o":"m 757 543 l 525 543 l 525 115 l 757 115 l 757 33 l 525 33 l 525 -210 l 339 -210 l 339 33 l 103 33 l 103 115 l 339 115 l 339 543 l 103 543 l 103 625 l 339 625 l 339 864 l 525 864 l 525 625 l 757 625 l 757 543 z "},"•":{"ha":647,"x_min":107,"x_max":540,"o":"m 107 441 q 107 479 107 441 q 171 571 107 517 q 324 625 235 625 q 477 571 414 625 q 540 441 540 517 q 476 311 540 365 q 324 257 413 257 q 171 311 235 257 q 107 441 107 365 z "},"…":{"ha":1115,"x_min":82,"x_max":1042,"o":"m 82 0 l 82 169 l 289 169 l 289 0 l 82 0 m 461 0 l 461 169 l 667 169 l 667 0 l 461 0 m 835 0 l 835 169 l 1042 169 l 1042 0 l 835 0 z "},"‰":{"ha":2224,"x_min":74,"x_max":2147,"o":"m 1496 389 l 1496 89 q 1413 1 1496 1 l 1053 1 q 968 89 968 1 l 968 389 q 1053 476 968 476 l 1413 476 q 1496 389 1496 476 m 1356 107 l 1356 371 q 1349 399 1356 393 q 1321 406 1343 406 l 1146 406 q 1117 399 1124 406 q 1111 371 1111 393 l 1111 107 q 1117 77 1111 83 q 1146 71 1124 71 l 1321 71 q 1349 77 1343 71 q 1356 107 1356 83 m 1032 864 l 1183 864 l 533 0 l 383 0 l 1032 864 m 601 775 l 601 475 q 517 388 601 388 l 157 388 q 74 475 74 388 l 74 775 q 157 863 74 863 l 517 863 q 601 775 601 863 m 460 493 l 460 757 q 453 787 460 781 q 425 793 447 793 l 250 793 q 222 787 228 793 q 215 757 215 781 l 215 493 q 222 464 215 471 q 250 457 228 457 l 425 457 q 453 464 447 457 q 460 493 460 471 m 2147 389 l 2147 89 q 2064 1 2147 1 l 1703 1 q 1619 89 1619 1 l 1619 389 q 1703 476 1619 476 l 2064 476 q 2147 389 2147 476 m 2007 107 l 2007 371 q 2001 399 2007 393 q 1972 406 1994 406 l 1796 406 q 1768 399 1774 406 q 1763 371 1763 393 l 1763 107 q 1768 77 1763 83 q 1796 71 1774 71 l 1972 71 q 2001 77 1994 71 q 2007 107 2007 83 z "},"‹":{"ha":481,"x_min":67,"x_max":439,"o":"m 247 142 l 67 354 l 247 565 l 439 565 l 257 353 l 439 142 l 247 142 z "},"›":{"ha":478,"x_min":49,"x_max":421,"o":"m 421 354 l 240 142 l 49 142 l 231 353 l 49 565 l 240 565 l 421 354 z "},"⁄":{"ha":757,"x_min":26,"x_max":761,"o":"m 604 864 l 761 864 l 182 0 l 26 0 l 604 864 z "},"€":{"ha":978,"x_min":46,"x_max":904,"o":"m 904 565 l 717 565 l 717 739 q 708 774 717 767 q 674 782 700 782 l 401 782 q 367 774 375 782 q 358 739 358 767 l 358 563 l 574 563 l 574 481 l 358 481 l 358 385 l 574 385 l 574 303 l 358 303 l 358 125 q 367 90 358 97 q 401 82 375 82 l 674 82 q 708 90 700 82 q 717 125 717 97 l 717 299 l 904 299 l 904 110 q 794 0 904 0 l 281 0 q 171 110 171 0 l 171 303 l 46 303 l 46 385 l 171 385 l 171 481 l 46 481 l 46 563 l 171 563 l 171 754 q 281 864 171 864 l 794 864 q 904 754 904 864 l 904 565 z "},"™":{"ha":1338,"x_min":31,"x_max":1261,"o":"m 31 778 l 31 864 l 524 864 l 524 778 l 349 778 l 349 400 l 206 400 l 206 778 l 31 778 m 1261 864 l 1261 400 l 1129 400 l 1129 718 l 989 476 l 881 476 l 744 719 l 744 400 l 613 400 l 613 864 l 774 864 l 935 576 l 1100 864 l 1261 864 z "},"Ω":{"ha":1047,"x_min":65,"x_max":981,"o":"m 981 82 l 981 0 l 593 0 l 593 82 l 669 82 q 705 90 697 82 q 713 125 713 97 l 713 739 q 705 774 713 767 q 669 782 697 782 l 379 782 q 344 774 353 782 q 336 739 336 767 l 336 125 q 344 90 336 97 q 379 82 353 82 l 456 82 l 456 0 l 65 0 l 65 82 l 186 82 q 150 161 150 101 l 150 754 q 260 864 150 864 l 788 864 q 897 754 897 864 l 897 161 q 861 82 897 101 l 981 82 z "},"∏":{"ha":1050,"x_min":42,"x_max":928,"o":"m 928 864 l 928 782 l 926 782 l 926 0 l 749 0 l 749 782 l 385 782 l 385 110 q 275 0 385 0 l 42 0 l 42 88 l 163 88 q 197 95 189 88 q 206 131 206 103 l 206 864 l 928 864 z "},"−":{"ha":1006,"x_min":72,"x_max":849,"o":"m 72 369 l 72 493 l 849 493 l 849 369 l 72 369 z "},"∕":{"ha":611,"x_min":-33,"x_max":713,"o":"m 546 971 l 713 971 l 133 -189 l -33 -189 l 546 971 z "},"∙":{"ha":301,"x_min":54,"x_max":253,"o":"m 54 517 l 253 517 l 253 343 l 54 343 l 54 517 z "},"∞":{"ha":1332,"x_min":78,"x_max":1256,"o":"m 458 269 l 185 269 q 78 375 78 269 l 78 582 q 185 688 78 688 l 471 688 q 562 671 532 688 q 631 606 592 654 l 675 550 l 704 592 q 778 669 749 651 q 874 688 807 688 l 1146 688 q 1256 582 1256 688 l 1256 375 q 1146 269 1256 269 l 890 269 q 785 285 818 269 q 707 353 751 300 l 676 390 l 661 371 q 578 288 615 307 q 458 269 540 269 m 876 356 l 1065 356 q 1104 365 1096 356 q 1113 403 1113 374 l 1113 554 q 1104 592 1113 582 q 1065 601 1096 601 l 864 601 q 797 558 829 601 l 735 472 l 806 392 q 876 356 838 356 m 467 600 l 268 600 q 228 590 236 600 q 219 554 219 581 l 219 403 q 228 365 219 374 q 268 356 236 356 l 478 356 q 563 403 529 356 l 613 469 l 546 554 q 509 590 525 579 q 467 600 493 600 z "},"∫":{"ha":586,"x_min":38,"x_max":544,"o":"m 383 858 l 383 -64 q 274 -174 383 -174 l 38 -174 l 38 -87 l 156 -87 q 189 -80 182 -87 q 199 -44 196 -72 l 199 878 q 308 988 199 988 l 544 988 l 544 901 l 426 901 q 392 894 400 901 q 383 858 383 886 z "},"≈":{"ha":1099,"x_min":97,"x_max":1001,"o":"m 374 454 q 569 384 472 454 q 758 314 665 314 q 826 358 821 314 l 728 358 q 604 393 668 358 q 473 463 540 428 q 356 497 406 497 q 290 488 306 497 q 272 454 275 479 l 374 454 m 1001 589 l 1001 332 q 893 224 1001 224 l 728 224 q 540 294 644 224 q 340 364 435 364 q 288 351 303 364 q 272 308 272 339 l 272 225 l 97 225 l 97 482 q 206 589 97 589 l 374 589 q 569 519 472 589 q 758 449 665 449 q 811 461 796 449 q 826 506 826 474 l 826 589 l 1001 589 z "},"≠":{"ha":971,"x_min":97,"x_max":874,"o":"m 874 499 l 596 499 l 493 371 l 874 371 l 874 250 l 394 250 l 311 147 l 196 147 l 279 250 l 97 250 l 97 371 l 376 371 l 481 499 l 97 499 l 97 619 l 578 619 l 656 715 l 772 715 l 694 619 l 874 619 l 874 499 z "},"≤":{"ha":1010,"x_min":74,"x_max":922,"o":"m 922 253 l 922 146 l 74 146 l 74 253 l 922 253 m 922 575 l 215 489 l 922 401 l 922 278 l 75 419 l 75 561 l 922 699 l 922 575 z "},"≥":{"ha":1010,"x_min":88,"x_max":936,"o":"m 88 146 l 88 253 l 936 253 l 936 146 l 88 146 m 794 489 l 88 575 l 88 699 l 936 561 l 936 419 l 88 278 l 88 401 l 794 489 z "},"◊":{"ha":1039,"x_min":71,"x_max":968,"o":"m 968 435 l 597 0 l 426 0 l 71 435 l 426 864 l 597 864 l 968 435 m 774 435 l 513 749 l 267 435 l 513 117 l 774 435 z "},"◌":{"ha":586,"x_min":99,"x_max":479,"o":"m 190 210 l 190 108 q 124 136 150 108 q 99 210 99 164 l 190 210 m 99 263 l 99 364 l 190 364 l 190 263 l 99 263 m 99 418 l 99 519 l 190 519 l 190 418 l 99 418 m 190 572 l 99 572 q 124 647 99 619 q 190 674 149 674 l 190 572 m 388 108 l 388 210 l 479 210 q 454 138 479 168 q 388 108 429 108 m 388 263 l 388 364 l 479 364 l 479 263 l 388 263 m 388 418 l 388 519 l 479 519 l 479 418 l 388 418 m 388 572 l 388 674 q 479 572 479 674 l 388 572 m 243 572 l 243 674 l 335 674 l 335 572 l 243 572 m 243 108 l 243 210 l 335 210 l 335 108 l 243 108 z "},"":{"ha":874,"x_min":343,"x_max":531,"o":"m 343 -332 l 343 -68 l 531 -68 l 531 -144 l 403 -332 l 343 -332 z "},"ﬁ":{"ha":896,"x_min":74,"x_max":788,"o":"m 785 674 l 785 0 l 606 0 l 606 592 l 353 592 l 353 0 l 174 0 l 174 592 l 74 592 l 74 674 l 174 674 l 174 819 q 283 929 174 929 l 535 929 l 535 843 l 396 843 q 361 835 369 843 q 353 800 353 828 l 353 674 l 785 674 m 604 929 l 788 929 l 788 810 l 604 810 l 604 929 z "},"ﬂ":{"ha":897,"x_min":74,"x_max":785,"o":"m 606 929 l 785 929 l 785 0 l 606 0 l 606 592 l 353 592 l 353 0 l 174 0 l 174 592 l 74 592 l 74 674 l 174 674 l 174 819 q 283 929 174 929 l 536 929 l 536 843 l 396 843 q 361 835 369 843 q 353 800 353 828 l 353 674 l 606 674 l 606 929 z "}}}
